<?xml version="1.0" encoding="UTF-8" standalone="no"?>
<svg
   role="img"
   viewBox="0 0 24 24"
   version="1.1"
   id="svg1"
   sodipodi:docname="event.svg"
   inkscape:version="1.4.2 (ebf0e940, 2025-05-08)"
   xmlns:inkscape="http://www.inkscape.org/namespaces/inkscape"
   xmlns:sodipodi="http://sodipodi.sourceforge.net/DTD/sodipodi-0.dtd"
   xmlns="http://www.w3.org/2000/svg"
   xmlns:svg="http://www.w3.org/2000/svg"
   xmlns:rdf="http://www.w3.org/1999/02/22-rdf-syntax-ns#"
   xmlns:cc="http://creativecommons.org/ns#"
   xmlns:dc="http://purl.org/dc/elements/1.1/">
  <sodipodi:namedview
     id="namedview1"
     pagecolor="#505050"
     bordercolor="#eeeeee"
     borderopacity="1"
     inkscape:showpageshadow="0"
     inkscape:pageopacity="0"
     inkscape:pagecheckerboard="0"
     inkscape:deskcolor="#505050"
     inkscape:zoom="11.288584"
     inkscape:cx="16.211068"
     inkscape:cy="13.907856"
     inkscape:window-width="1472"
     inkscape:window-height="895"
     inkscape:window-x="0"
     inkscape:window-y="61"
     inkscape:window-maximized="0"
     inkscape:current-layer="svg1" />
  <defs
     id="defs1" />
  <title
     id="title1">Apple</title>
  <metadata
     id="metadata1">
    <rdf:RDF>
      <cc:Work
         rdf:about="">
        <dc:title>Apple</dc:title>
      </cc:Work>
    </rdf:RDF>
  </metadata>
  <path
     id="path3-79-8"
     style="fill:#917c6f;fill-opacity:1;fill-rule:nonzero;stroke:none;stroke-width:0.00572218"
     d="M 7.015625 0 C 6.663713 0 6.3789062 0.28482075 6.3789062 0.63671875 L 6.3789062 5.0722656 C 6.3789062 5.4241646 6.663713 5.7089844 7.015625 5.7089844 C 7.367544 5.7089844 7.6523438 5.4241646 7.6523438 5.0722656 L 7.6523438 0.63671875 C 7.6523438 0.28482075 7.367544 0 7.015625 0 z M 16.984375 0 C 16.632456 0 16.347656 0.28482075 16.347656 0.63671875 L 16.347656 5.0722656 C 16.347656 5.4241646 16.632456 5.7089844 16.984375 5.7089844 C 17.335718 5.7089844 17.621094 5.4241646 17.621094 5.0722656 L 17.621094 0.63671875 C 17.621094 0.28482075 17.335718 0 16.984375 0 z M 4.6894531 2.8535156 C 2.8909651 2.8535156 1.4257812 4.3161774 1.4257812 6.1152344 L 1.4257812 20.736328 C 1.4257812 22.536003 2.8909651 24 4.6894531 24 L 19.310547 24 C 21.109028 24 22.574219 22.536003 22.574219 20.736328 L 22.574219 6.1152344 C 22.574219 4.3161774 21.109028 2.8535156 19.310547 2.8535156 L 18.207031 2.8535156 L 18.207031 5.0722656 C 18.207031 5.7457556 17.659023 6.2949219 16.984375 6.2949219 C 16.311448 6.2949219 15.761719 5.7457556 15.761719 5.0722656 L 15.761719 2.8535156 L 8.2382812 2.8535156 L 8.2382812 5.0722656 C 8.2382812 5.7457556 7.689128 6.2949219 7.015625 6.2949219 C 6.341553 6.2949219 5.7929688 5.7457556 5.7929688 5.0722656 L 5.7929688 2.8535156 L 4.6894531 2.8535156 z M 2.4765625 9.5351562 L 21.523438 9.5351562 L 21.523438 20.736328 C 21.523438 21.956316 20.529369 22.949219 19.310547 22.949219 L 4.6894531 22.949219 C 3.4706241 22.949219 2.4765625 21.956316 2.4765625 20.736328 L 2.4765625 9.5351562 z M 4.6289062 11.511719 C 4.2420853 11.511719 3.9296875 11.824136 3.9296875 12.210938 L 3.9296875 14.695312 C 3.9296875 15.081564 4.2420852 15.396484 4.6289062 15.396484 L 7.578125 15.396484 C 7.96437 15.396484 8.2792969 15.081563 8.2792969 14.695312 L 8.2792969 12.210938 C 8.2792969 11.824137 7.96437 11.511719 7.578125 11.511719 L 4.6289062 11.511719 z M 10.525391 11.511719 C 10.138577 11.511719 9.8242188 11.824136 9.8242188 12.210938 L 9.8242188 14.695312 C 9.8242187 15.081564 10.138577 15.396484 10.525391 15.396484 L 13.474609 15.396484 C 13.860854 15.396484 14.175781 15.081563 14.175781 14.695312 L 14.175781 12.210938 C 14.175781 11.824137 13.860854 11.511719 13.474609 11.511719 L 10.525391 11.511719 z M 16.421875 11.511719 C 16.035623 11.511719 15.720703 11.824136 15.720703 12.210938 L 15.720703 14.695312 C 15.720703 15.081564 16.035623 15.396484 16.421875 15.396484 L 19.371094 15.396484 C 19.757915 15.396484 20.070312 15.081563 20.070312 14.695312 L 20.070312 12.210938 C 20.070312 11.824137 19.757915 11.511719 19.371094 11.511719 L 16.421875 11.511719 z M 4.6289062 17.087891 C 4.2420853 17.087891 3.9296875 17.400858 3.9296875 17.787109 L 3.9296875 20.273438 C 3.9296875 20.660239 4.2420852 20.972656 4.6289062 20.972656 L 7.578125 20.972656 C 7.96437 20.972656 8.2792969 20.660238 8.2792969 20.273438 L 8.2792969 17.787109 C 8.2792969 17.400858 7.96437 17.087891 7.578125 17.087891 L 4.6289062 17.087891 z M 10.525391 17.087891 C 10.138577 17.087891 9.8242188 17.400858 9.8242188 17.787109 L 9.8242188 20.273438 C 9.8242187 20.660239 10.138577 20.972656 10.525391 20.972656 L 13.474609 20.972656 C 13.860854 20.972656 14.175781 20.660238 14.175781 20.273438 L 14.175781 17.787109 C 14.175781 17.400858 13.860854 17.087891 13.474609 17.087891 L 10.525391 17.087891 z M 16.421875 17.087891 C 16.035623 17.087891 15.720703 17.400858 15.720703 17.787109 L 15.720703 20.273438 C 15.720703 20.660239 16.035623 20.972656 16.421875 20.972656 L 19.371094 20.972656 C 19.757915 20.972656 20.070312 20.660238 20.070312 20.273438 L 20.070312 17.787109 C 20.070312 17.400858 19.757915 17.087891 19.371094 17.087891 L 16.421875 17.087891 z "
     inkscape:label="event" />
</svg>
