<?xml version="1.0" encoding="UTF-8" standalone="no"?>
<svg
   role="img"
   viewBox="0 0 24 24"
   version="1.1"
   id="svg1"
   sodipodi:docname="music.svg"
   inkscape:version="1.4.2 (ebf0e940, 2025-05-08)"
   xmlns:inkscape="http://www.inkscape.org/namespaces/inkscape"
   xmlns:sodipodi="http://sodipodi.sourceforge.net/DTD/sodipodi-0.dtd"
   xmlns="http://www.w3.org/2000/svg"
   xmlns:svg="http://www.w3.org/2000/svg"
   xmlns:rdf="http://www.w3.org/1999/02/22-rdf-syntax-ns#"
   xmlns:cc="http://creativecommons.org/ns#"
   xmlns:dc="http://purl.org/dc/elements/1.1/">
  <sodipodi:namedview
     id="namedview1"
     pagecolor="#505050"
     bordercolor="#eeeeee"
     borderopacity="1"
     inkscape:showpageshadow="0"
     inkscape:pageopacity="0"
     inkscape:pagecheckerboard="0"
     inkscape:deskcolor="#505050"
     inkscape:zoom="6.502983"
     inkscape:cx="0.61510233"
     inkscape:cy="23.220113"
     inkscape:window-width="1472"
     inkscape:window-height="895"
     inkscape:window-x="0"
     inkscape:window-y="61"
     inkscape:window-maximized="0"
     inkscape:current-layer="svg1" />
  <defs
     id="defs1" />
  <title
     id="title1">Apple</title>
  <metadata
     id="metadata1">
    <rdf:RDF>
      <cc:Work
         rdf:about="">
        <dc:title>Apple</dc:title>
      </cc:Work>
    </rdf:RDF>
  </metadata>
  <path
     id="path36-6-7"
     d="m 15.316225,13.50775 v 0 c 0,-1.974769 1.598496,-3.5880608 3.588039,-3.5880608 0.195424,0 0.377046,0 0.573352,0 0.180629,0.090314 0.376251,0 0.556968,-0.091197 0.195423,-0.1956446 0.195423,-0.3762508 0.195423,-0.5725576 L 20.034584,6.1360497 c 0,-0.091197 -10.3107582,-2.0659011 -11.3507197,-2.2614128 L 8.5926667,20.41112 v 0.0912 c -0.089652,1.884389 -1.7028773,3.497681 -3.5872665,3.497681 -1.9895425,0 -3.6028342,-1.704445 -3.6028342,-3.588834 0,-2.079901 1.6132917,-3.693215 3.6028342,-3.693215 0.1808494,0 0.3770456,0 0.5577626,0 0.1954234,0.105992 0.3770457,0 0.4821989,-0.09031 0.1815119,-0.195424 0.2866651,-0.376251 0.2866651,-0.557763 V -1.35e-6 L 22.597434,1.1303186 V 13.703285 c -0.09031,1.884389 -1.70365,3.496907 -3.693214,3.496907 -1.989543,0 -3.58804,-1.612518 -3.58804,-3.692419 v 0"
     style="fill:#917c6f;fill-opacity:1;fill-rule:evenodd;stroke:none;stroke-width:0.0778993"
     inkscape:label="music" />
</svg>
