<?xml version="1.0" encoding="UTF-8" standalone="no"?>
<svg
   role="img"
   viewBox="0 0 24 24"
   version="1.1"
   id="svg1"
   sodipodi:docname="product.svg"
   inkscape:version="1.4.2 (ebf0e940, 2025-05-08)"
   xmlns:inkscape="http://www.inkscape.org/namespaces/inkscape"
   xmlns:sodipodi="http://sodipodi.sourceforge.net/DTD/sodipodi-0.dtd"
   xmlns="http://www.w3.org/2000/svg"
   xmlns:svg="http://www.w3.org/2000/svg"
   xmlns:rdf="http://www.w3.org/1999/02/22-rdf-syntax-ns#"
   xmlns:cc="http://creativecommons.org/ns#"
   xmlns:dc="http://purl.org/dc/elements/1.1/">
  <sodipodi:namedview
     id="namedview1"
     pagecolor="#505050"
     bordercolor="#eeeeee"
     borderopacity="1"
     inkscape:showpageshadow="0"
     inkscape:pageopacity="0"
     inkscape:pagecheckerboard="0"
     inkscape:deskcolor="#505050"
     inkscape:zoom="6.0793403"
     inkscape:cx="18.25856"
     inkscape:cy="16.613645"
     inkscape:window-width="1472"
     inkscape:window-height="895"
     inkscape:window-x="0"
     inkscape:window-y="61"
     inkscape:window-maximized="0"
     inkscape:current-layer="svg1" />
  <defs
     id="defs1" />
  <title
     id="title1">Apple</title>
  <metadata
     id="metadata1">
    <rdf:RDF>
      <cc:Work
         rdf:about="">
        <dc:title>Apple</dc:title>
      </cc:Work>
    </rdf:RDF>
  </metadata>
  <path
     id="path60-7"
     d="M 18.147379,4.9878998 C 17.640154,9.222076 15.132883,12.340057 12.000722,12.340057 8.869556,12.340057 6.361539,9.222076 5.85083,4.9878998 5.269723,4.703565 4.845833,4.1075314 4.845833,3.4027891 c 0,-0.9828579 0.79952,-1.7821311 1.796558,-1.7821311 0.980122,0 1.778647,0.7992732 1.778647,1.7821311 0,0.6206609 -0.327121,1.1268914 -0.784346,1.4587397 0.4219,3.1985799 2.253533,5.6961492 4.36403,5.6961492 2.124675,0 3.942876,-2.4975693 4.37995,-5.6961492 C 15.908523,4.5296805 15.580405,4.02345 15.580405,3.4027891 c 0,-0.9828579 0.800267,-1.7821311 1.792827,-1.7821311 0.982859,0 1.785861,0.7992732 1.785861,1.7821311 0,0.7047423 -0.415929,1.3007759 -1.011714,1.5851107 z M 23.994527,22.813928 22.590515,1.014178 C 22.565645,0.450732 22.089509,0.01714 21.533028,0.01714 H 2.4641865 c -0.5564807,0 -1.0179338,0.433592 -1.053009,0.997038 l -1.40774374,21.85597 c -0.024872,0.292294 0.087067,0.58459 0.2808524,0.789073 0.2039845,0.203984 0.4860802,0.323639 0.77489274,0.323639 H 22.942514 c 0,0 0,0 0,0 0.582848,0 1.057486,-0.472151 1.057486,-1.048531 0,-0.0398 0,-0.07463 -0.02487,-0.119406 v 0"
     style="fill:#917c6f;fill-opacity:1;fill-rule:evenodd;stroke:none;stroke-width:0.0877575"
     inkscape:label="product" />
</svg>
