<?xml version="1.0" encoding="UTF-8" standalone="no"?>
<!-- Created with Inkscape (http://www.inkscape.org/) -->

<svg
   width="158.75mm"
   height="15.875146mm"
   viewBox="0 0 158.75 15.875146"
   version="1.1"
   id="svg1"
   inkscape:version="1.4.2 (ebf0e940, 2025-05-08)"
   sodipodi:docname="Menu Scatch.svg"
   xmlns:inkscape="http://www.inkscape.org/namespaces/inkscape"
   xmlns:sodipodi="http://sodipodi.sourceforge.net/DTD/sodipodi-0.dtd"
   xmlns="http://www.w3.org/2000/svg"
   xmlns:svg="http://www.w3.org/2000/svg">
  <sodipodi:namedview
     id="namedview1"
     pagecolor="#505050"
     bordercolor="#eeeeee"
     borderopacity="1"
     inkscape:showpageshadow="0"
     inkscape:pageopacity="0"
     inkscape:pagecheckerboard="0"
     inkscape:deskcolor="#505050"
     inkscape:document-units="mm"
     inkscape:zoom="0.11787498"
     inkscape:cx="-2239.661"
     inkscape:cy="644.75088"
     inkscape:window-width="1472"
     inkscape:window-height="923"
     inkscape:window-x="0"
     inkscape:window-y="33"
     inkscape:window-maximized="0"
     inkscape:current-layer="layer1">
    <inkscape:page
       x="0"
       y="0"
       width="158.75"
       height="15.875146"
       id="page2"
       margin="0"
       bleed="0" />
  </sodipodi:namedview>
  <defs
     id="defs1" />
  <g
     inkscape:label="Layer 1"
     inkscape:groupmode="layer"
     id="layer1"
     transform="translate(1065.2044,142.84556)">
    <rect
       style="fill:#000000;stroke:none;stroke-width:0.477677;stroke-linecap:round;stroke-linejoin:round;stroke-miterlimit:19.1;paint-order:fill markers stroke"
       id="rect1"
       width="1199.5223"
       height="799.52234"
       x="-1291.5452"
       y="-262.15555"
       inkscape:label="Back ground"
       inkscape:export-filename="Exports/Menu scatch.png"
       inkscape:export-xdpi="96"
       inkscape:export-ydpi="96" />
    <path
       id="path1-4-7-1-1-4-4-5-4-5-4"
       style="font-size:121.133px;font-family:Brooch;-inkscape-font-specification:Brooch;letter-spacing:12.8715px;word-spacing:3.2179px;baseline-shift:baseline;display:inline;overflow:visible;mix-blend-mode:normal;vector-effect:none;fill:#917c6f;stroke-width:0.0362229;enable-background:accumulate;stop-color:#000000"
       d="m -19713.09,1663.0936 v 0 h -1.854 -0.173 c -0.516,0 -0.931,0.2896 -0.931,0.6503 v 1.4065 1.3621 c 0,0.1576 0.179,0.2825 0.404,0.2825 h 0.758 c 0.117,0 0.208,-0.063 0.208,-0.1452 v -1.5021 c 0,-0.073 0.151,-0.1946 0.189,-0.132 0.1,0.1613 0.239,1.7793 1.677,1.7793 h 0.746 c 0.09,0 0.158,-0.054 0.141,-0.1177 l -0.08,-0.3239 c -0.32,-1.2579 -2.908,-1.3339 -0.819,-1.3339 1.061,-0.058 0.903,0.086 0.903,-0.4308 v -0.6803 c 0,-0.777 -0.987,-0.8176 -1.163,-0.8176 z m 5.357,0 c -0.05,0 -0.09,0.048 -0.09,0.1106 v 0.4122 c 0,0.054 0.03,0.092 0.08,0.09 l 1.316,-0.037 c 0.12,0 0.223,0.1117 0.223,0.2574 v 2.5348 c 0,0.1872 0.123,0.336 0.277,0.336 h 0.344 c 0.154,0 0.277,-0.1488 0.277,-0.336 v -2.5348 c 0,-0.1457 0.103,-0.2608 0.223,-0.2574 l 1.317,0.037 c 0.04,0 0.08,-0.037 0.08,-0.09 v -0.4122 c 0,-0.063 -0.04,-0.1106 -0.09,-0.1106 z m 16.541,0 c -0.09,0 -0.169,0.058 -0.169,0.1338 v 3.5477 c 0,0.011 0.01,0.02 0.02,0.02 h 0.137 c 0.01,0 0.02,-0.01 0.02,-0.02 v -3.322 c 0,-0.069 0.08,-0.1335 0.151,-0.1451 0.08,-0.011 0.176,0.026 0.208,0.091 l 1.379,2.7527 c 0.194,0.3891 0.667,0.6438 1.194,0.6438 h 0.845 c 0.1,0 0.169,-0.059 0.169,-0.1339 v -3.5475 c 0,-0.011 -0.01,-0.02 -0.02,-0.02 h -0.133 c -0.01,-10e-5 -0.02,0.01 -0.02,0.02 v 3.3218 c 0,0.069 -0.08,0.1336 -0.151,0.1452 -0.08,0.012 -0.176,-0.026 -0.208,-0.09 l -1.382,-2.7529 c -0.195,-0.3891 -0.668,-0.6437 -1.195,-0.6437 z m -31.721,3e-4 c -0.07,0 -0.125,0.033 -0.142,0.081 l -0.08,0.228 -1.144,3.373 c 0,0.01 0,0.019 0.02,0.019 h 0.154 c 0.02,0 0.03,-0.01 0.03,-0.019 l 0.09,-0.2636 c 0.03,-0.074 0.118,-0.1266 0.223,-0.1266 h 2.006 c 0.07,-0.01 0.153,0.011 0.202,0.055 0.02,0.015 0.03,0.034 0.04,0.053 0.06,0.1775 0.275,0.3016 0.528,0.3016 h 0.817 c 0.02,0 0.02,-0.01 0.02,-0.019 l -1.107,-3.3739 c -0.06,-0.1809 -0.283,-0.3072 -0.54,-0.3086 z m 24.688,0 c -0.07,0 -0.126,0.033 -0.142,0.081 l -0.08,0.228 -1.144,3.373 c 0,0.01 0,0.019 0.02,0.019 h 0.155 c 0.02,0 0.03,-0.01 0.03,-0.019 l 0.09,-0.2636 c 0.02,-0.074 0.118,-0.1266 0.223,-0.1266 h 2.006 c 0.07,-0.01 0.153,0.011 0.202,0.055 0.02,0.015 0.03,0.034 0.04,0.053 0.06,0.1775 0.275,0.3016 0.528,0.3016 h 0.817 c 0.02,0 0.03,-0.01 0.02,-0.019 l -1.108,-3.3739 c -0.06,-0.1809 -0.282,-0.3072 -0.539,-0.3086 z m -24.497,0.1457 c 0.08,0 0.157,0.042 0.177,0.1015 l 0.887,2.7083 c 0.03,0.093 -0.07,0.1881 -0.206,0.1881 h -1.753 c -0.132,0 -0.236,-0.096 -0.205,-0.1891 l 0.922,-2.7084 c 0.02,-0.059 0.09,-0.1007 0.178,-0.1004 z m 24.687,0 c 0.08,0 0.157,0.042 0.177,0.1015 l 0.887,2.7083 c 0.03,0.093 -0.07,0.1881 -0.206,0.1881 h -1.752 c -0.133,0 -0.237,-0.096 -0.205,-0.1891 l 0.921,-2.7084 c 0.02,-0.059 0.09,-0.1007 0.178,-0.1004 z m -16.393,0 h 0.799 c 0.123,0 0.249,0.035 0.337,0.096 0.09,0.061 0.144,0.1502 0.144,0.2381 v 0.9603 c 0,0.088 -0.05,0.1776 -0.142,0.2401 -0.09,0.062 -0.215,0.097 -0.339,0.097 h -0.799 c -0.141,0 -0.26,-0.083 -0.26,-0.1814 v -1.2682 c 0,-0.099 0.119,-0.1815 0.26,-0.1815 z"
       transform="matrix(4.2857915,0,0,4.2857142,83468.943,-7270.3894)"
       inkscape:label="Logo typo" />
  </g>
</svg>
