<?xml version="1.0" encoding="UTF-8" standalone="no"?>
<!-- Created with Inkscape (http://www.inkscape.org/) -->

<svg
   width="84.663567mm"
   height="84.676392mm"
   viewBox="0 0 84.663567 84.676392"
   version="1.1"
   id="svg1"
   inkscape:version="1.4.2 (ebf0e940, 2025-05-08)"
   sodipodi:docname="Menu Scatch.svg"
   xmlns:inkscape="http://www.inkscape.org/namespaces/inkscape"
   xmlns:sodipodi="http://sodipodi.sourceforge.net/DTD/sodipodi-0.dtd"
   xmlns="http://www.w3.org/2000/svg"
   xmlns:svg="http://www.w3.org/2000/svg">
  <sodipodi:namedview
     id="namedview1"
     pagecolor="#505050"
     bordercolor="#eeeeee"
     borderopacity="1"
     inkscape:showpageshadow="0"
     inkscape:pageopacity="0"
     inkscape:pagecheckerboard="0"
     inkscape:deskcolor="#505050"
     inkscape:document-units="mm"
     inkscape:zoom="0.11787498"
     inkscape:cx="-2239.661"
     inkscape:cy="644.75088"
     inkscape:window-width="1472"
     inkscape:window-height="923"
     inkscape:window-x="0"
     inkscape:window-y="33"
     inkscape:window-maximized="0"
     inkscape:current-layer="layer1">
    <inkscape:page
       x="0"
       y="0"
       width="84.663567"
       height="84.676392"
       id="page2"
       margin="0"
       bleed="0" />
  </sodipodi:namedview>
  <defs
     id="defs1" />
  <g
     inkscape:label="Layer 1"
     inkscape:groupmode="layer"
     id="layer1"
     transform="translate(1239.6811,-405.69953)">
    <rect
       style="fill:#000000;stroke:none;stroke-width:0.477677;stroke-linecap:round;stroke-linejoin:round;stroke-miterlimit:19.1;paint-order:fill markers stroke"
       id="rect1"
       width="1199.5223"
       height="799.52234"
       x="-1291.5452"
       y="-262.15555"
       inkscape:label="Back ground"
       inkscape:export-filename="Exports/Menu scatch.png"
       inkscape:export-xdpi="96"
       inkscape:export-ydpi="96" />
    <path
       id="path2"
       style="font-size:121.133px;font-family:Brooch;-inkscape-font-specification:Brooch;letter-spacing:12.8715px;word-spacing:3.2179px;baseline-shift:baseline;display:inline;overflow:visible;vector-effect:none;fill:#917c6f;stroke-width:0.265144;stroke-linecap:round;stroke-linejoin:round;enable-background:accumulate;stop-color:#000000"
       d="m -1194.2643,405.70128 c -2.0917,0.045 -3.9362,0.87681 -4.8418,2.39766 l -5.2106,8.64001 a 0.24555836,0.24555836 0 0 0 0,0.004 c -0.064,0.1112 -0.2,0.14449 -0.3082,0.0756 l -8.4306,-5.39093 -2.3003,-1.48156 v 0.003 c -0.6119,-0.40172 -1.441,-0.19361 -2.0919,0.23937 a 0.24555836,0.24555836 0 0 0 -0.016,0.0114 l -9.8026,7.685 c -2.3344,1.83424 -3.4485,4.57237 -2.6377,6.73835 a 0.24555836,0.24555836 0 0 0 0,0.003 l 3.608,9.37264 c 0.032,0.10876 -0.024,0.21795 -0.1307,0.25485 l -9.544,3.12002 -2.6001,0.84155 c -0.6703,0.1912 -1.0552,0.90872 -1.0902,1.69394 a 0.24555836,0.24555836 0 0 0 -0.01,0.006 l -0.01,0.0874 v 0.0175 a 0.24555836,0.24555836 0 0 0 0.01,0.006 v 12.21889 c 0,2.94207 1.4888,5.50247 3.7038,6.22263 l 9.7241,3.08219 a 0.24555836,0.24555836 0 0 0 0.01,0.003 c 0.1299,0.036 0.1904,0.17039 0.131,0.29198 a 0.24555836,0.24555836 0 0 0 -0.01,0.0223 l -3.4697,9.28563 -0.9545,2.53235 a 0.24555836,0.24555836 0 0 0 0,0.004 c -0.2436,0.68386 0.099,1.44743 0.7477,1.95605 l 9.8048,7.69323 c 2.3335,1.83434 5.2959,2.28806 7.2505,1.04146 a 0.24555836,0.24555836 0 0 0 0,-0.003 l 8.5059,-5.56549 c 0.1079,-0.0689 0.2432,-0.0355 0.3076,0.0756 a 0.24555836,0.24555836 0 0 0 0,0.005 l 5.2135,8.44942 1.4199,2.30969 a 0.24555836,0.24555836 0 0 0 0,0.003 c 0.3754,0.59422 1.1918,0.84237 2.0185,0.66645 l 12.225,-2.73938 c 2.9081,-0.6548 5.1205,-2.65142 5.3414,-4.94658 a 0.24555836,0.24555836 0 0 0 0,-0.003 l 0.8844,-9.98579 c 0.016,-0.12109 0.1197,-0.20206 0.2404,-0.18594 l 9.9753,1.25837 2.7234,0.39776 a 0.24555836,0.24555836 0 0 0 0.036,0.003 c 0.6928,0 1.3693,-0.45621 1.7397,-1.14916 a 0.24555836,0.24555836 0 0 0 0,-0.008 l 5.4413,-11.1096 c 1.2962,-2.64651 1.0886,-5.5953 -0.5921,-7.19873 a 0.24555836,0.24555836 0 0 0 0,-0.003 l -7.3951,-6.91593 c -0.081,-0.0821 -0.082,-0.20722 0,-0.28897 l 7.2186,-6.87674 1.9784,-1.87973 c 0.5117,-0.49251 0.5635,-1.33422 0.1933,-2.08444 l -5.4412,-11.11741 c -1.2952,-2.64654 -3.7659,-4.32698 -6.0795,-4.02994 l -10.1194,1.37702 c -0.1204,0.0162 -0.2247,-0.0647 -0.2404,-0.18553 l -0.9674,-9.83671 -0.2626,-2.69183 a 0.24555836,0.24555836 0 0 0 0,-0.0108 c -0.098,-0.68617 -0.7134,-1.25401 -1.5354,-1.43964 l -12.2249,-2.74719 c -0.7263,-0.16355 -1.451,-0.23599 -2.148,-0.22114 z m 0.019,0.49299 c 0.6522,-0.0146 1.3342,0.0521 2.0227,0.20717 l 12.2254,2.74732 c 0.6612,0.14933 1.0956,0.60122 1.1574,1.029 l 0.2614,2.68197 0.968,9.84343 a 0.24555836,0.24555836 0 0 0 0,0.007 c 0.049,0.38555 0.4086,0.6623 0.7939,0.61055 l 10.1173,-1.37702 c 2.0332,-0.26104 4.3531,1.26037 5.5757,3.75823 l 5.4419,11.11837 c 0.2977,0.6035 0.2222,1.21048 -0.093,1.51418 l -1.9772,1.87836 -7.223,6.88126 a 0.24555836,0.24555836 0 0 0 -0.01,0.004 c -0.2691,0.26976 -0.2691,0.71417 0,0.98392 a 0.24555836,0.24555836 0 0 0 0.01,0.006 l 7.399,6.91908 c 1.4745,1.40675 1.7134,4.12923 0.49,6.6271 l -5.437,11.10234 c -0.2924,0.54712 -0.8334,0.88489 -1.3003,0.88759 l -2.6965,-0.39351 a 0.24555836,0.24555836 0 0 0 -0.01,0 l -9.9761,-1.2585 c -0.3855,-0.0516 -0.7449,0.22581 -0.7932,0.61165 a 0.24555836,0.24555836 0 0 0 0,0.009 l -0.8851,9.99305 c -0.1927,2.0057 -2.2099,3.89483 -4.9605,4.51416 l -12.2226,2.73951 c -0.6669,0.14193 -1.2717,-0.0863 -1.5008,-0.449 l -1.4182,-2.30696 -5.2098,-8.44435 c -0.2008,-0.34696 -0.6586,-0.45825 -0.997,-0.24279 a 0.24555836,0.24555836 0 0 0 0,0.003 l -8.5079,5.567 c -1.7155,1.09199 -4.4769,0.71711 -6.6808,-1.01557 l -9.8048,-7.69323 c -0.5287,-0.41447 -0.7421,-0.97331 -0.5883,-1.40497 l 0.9529,-2.52823 3.4697,-9.28619 -0.01,0.0218 c 0.1901,-0.38875 -0.024,-0.86616 -0.4417,-0.98145 l -9.7135,-3.07918 c -1.947,-0.63298 -3.3645,-2.97973 -3.3645,-5.75539 v -12.25205 c 0.011,-0.65403 0.3352,-1.18982 0.7406,-1.3055 a 0.24555836,0.24555836 0 0 0 0.01,-0.003 l 2.6091,-0.84402 9.548,-3.12166 a 0.24555836,0.24555836 0 0 0 0.01,0 c 0.351,-0.12135 0.547,-0.5035 0.4412,-0.85964 a 0.24555836,0.24555836 0 0 0 -0.01,-0.0186 l -3.6137,-9.38771 c -0.7101,-1.89597 0.2744,-4.44559 2.481,-6.1796 l 9.7906,-7.67569 c 0.5457,-0.36147 1.1898,-0.471 1.5475,-0.23621 a 0.24555836,0.24555836 0 0 0 0,0.003 l 2.3001,1.48101 8.4319,5.39148 c 0.3383,0.21529 0.7956,0.10313 0.9964,-0.24389 v 0.004 l 5.2111,-8.64111 a 0.24555836,0.24555836 0 0 0 0,-0.003 c 0.7941,-1.33378 2.4825,-2.1117 4.439,-2.15582 z m 11.1952,3.44899 c -0.7323,-0.003 -1.3949,0.27279 -1.7197,0.84882 v 0.003 l -8.0792,13.4108 c -0.1136,0.13466 -0.1256,0.30959 -0.1256,0.38392 a 0.24555836,0.24555836 0 0 0 0,0.0316 l 0.016,0.11907 v -0.019 c 0.01,0.1164 0.034,0.23425 0.1066,0.34323 0.063,0.0952 0.1803,0.18331 0.3165,0.20415 1.5882,0.6722 3.8439,0.30797 6.1522,-0.18593 2.3263,-0.49778 4.7141,-1.14752 6.4166,-1.14752 0.2058,0 0.3875,-0.10035 0.502,-0.23772 0.1143,-0.13737 0.1734,-0.30878 0.1734,-0.48532 a 0.24555836,0.24555836 0 0 0 0,-0.0244 l -1.1314,-11.39651 c -0.084,-0.84398 -0.8737,-1.57346 -1.8858,-1.7519 -0.2471,-0.0612 -0.4965,-0.0936 -0.7383,-0.0947 z m 0.01,0.49244 c 0.1978,0 0.4066,0.0267 0.6193,0.0799 a 0.24555836,0.24555836 0 0 0 0.019,0.004 c 0.8283,0.1427 1.4346,0.76363 1.4898,1.31892 l 1.1301,11.37473 c 0,0.0612 -0.024,0.12805 -0.059,0.16936 -0.035,0.0418 -0.068,0.0607 -0.1243,0.0607 -1.8244,0 -4.2129,0.66467 -6.5199,1.15834 -2.307,0.49364 -4.5241,0.79603 -5.8901,0.1999 a 0.24555836,0.24555836 0 0 0 -0.068,-0.014 c -0.01,-0.0122 -0.021,-0.0501 -0.024,-0.0917 a 0.24555836,0.24555836 0 0 0 0,-0.0192 l -0.013,-0.0963 c 0,-0.046 -0.013,-0.0379 0.01,-0.0565 a 0.24555836,0.24555836 0 0 0 0.038,-0.047 l 8.094,-13.43587 a 0.24555836,0.24555836 0 0 0 0,-0.006 c 0.2123,-0.37796 0.7071,-0.60072 1.3002,-0.59863 z m -33.3029,1.88097 c -0.5684,-0.0202 -1.1953,0.18325 -1.7261,0.63849 -0.6177,0.50126 -0.9661,1.15818 -0.9844,1.85549 a 0.24555836,0.24555836 0 0 0 -0.019,0.0218 c 0,0.0795 0,0.1679 0.013,0.26348 0.011,0.0807 0.033,0.17511 0.098,0.26143 v 1.3e-4 h 2e-4 l 5.616,14.55956 a 0.24555836,0.24555836 0 0 0 0,0.003 c 0.1512,0.37889 0.5828,0.49611 0.9201,0.38008 a 0.24555836,0.24555836 0 0 0 0.033,-0.0141 c 1.5233,-0.78483 2.6583,-2.7518 3.7212,-4.84766 1.0633,-2.09585 2.0435,-4.34 3.0876,-5.66797 a 0.24555836,0.24555836 0 0 0 0.01,-0.006 c 0.1156,-0.15795 0.1768,-0.34517 0.15,-0.52875 -0.027,-0.18361 -0.1396,-0.34372 -0.2926,-0.45312 a 0.24555836,0.24555836 0 0 0 -0.011,-0.007 l -9.7699,-6.23659 a 0.24555836,0.24555836 0 0 0 -0.019,-0.01 c -0.177,-0.0941 -0.3744,-0.15773 -0.5838,-0.18964 h -3e-4 c -0.078,-0.0119 -0.1582,-0.0193 -0.2392,-0.0222 z m -0.015,0.49613 h 2e-4 6e-4 c 0.063,0.002 0.1238,0.007 0.183,0.0159 v 1.4e-4 c 0.1577,0.0228 0.3013,0.0683 0.4235,0.13304 l 9.745,6.22002 c 0.069,0.0496 0.087,0.0886 0.092,0.12373 0.01,0.0353 10e-5,0.0872 -0.061,0.16784 l 0.01,-0.007 c -1.1162,1.41974 -2.0856,3.67191 -3.1393,5.74937 -1.0473,2.06502 -2.1895,3.9335 -3.4856,4.61665 -0.1209,0.0361 -0.2564,6e-5 -0.2948,-0.0952 l -5.6295,-14.59532 a 0.24555836,0.24555836 0 0 0 -0.046,-0.075 0.24555836,0.24555836 0 0 0 0,-1.3e-4 v -1.4e-4 -1.4e-4 c 0,-0.002 -0.01,-0.0144 -0.01,-0.0401 -0.01,-0.0354 -0.01,-0.096 -0.01,-0.15702 a 0.24555836,0.24555836 0 0 0 0.01,-0.006 c 0,-0.55532 0.272,-1.08828 0.8171,-1.52979 a 0.24555836,0.24555836 0 0 0 0.01,-0.005 c 0.4391,-0.37798 0.9529,-0.53007 1.393,-0.51656 z m 56.7031,21.42013 c -0.052,9e-4 -0.1046,0.004 -0.1569,0.0101 v 6.8e-4 a 0.24555836,0.24555836 0 0 0 -0.01,0 l -15.7119,2.14829 h -10e-5 c -0.3373,0.008 -0.6278,0.29532 -0.6278,0.64343 a 0.24555836,0.24555836 0 0 0 0.037,0.13058 l -0.022,-0.0337 v 0.0859 a 0.24555836,0.24555836 0 0 0 0.01,0.0648 c 0.4491,1.64095 2.1494,3.16607 3.9897,4.6509 1.8404,1.4848 3.843,2.92167 4.9192,4.21066 a 0.24555836,0.24555836 0 0 0 0.019,0.0201 c 0.2657,0.25287 0.6816,0.24504 0.9627,0.011 a 0.24555836,0.24555836 0 0 0 0.013,-0.011 l 8.3576,-7.98013 c 0.6141,-0.58608 0.6681,-1.62836 0.2181,-2.53961 -0.4322,-0.88288 -1.215,-1.42554 -2,-1.4121 z m 0.01,0.49202 h 10e-5 c 0.5549,-0.006 1.1864,0.39325 1.5505,1.13711 0.3765,0.76146 0.2874,1.58216 -0.1167,1.96797 l -8.3463,7.96931 c -0.1007,0.083 -0.2412,0.0751 -0.3091,0.0103 -1.1541,-1.37278 -3.1522,-2.79241 -4.9679,-4.25725 -1.8168,-1.46566 -3.4235,-2.98328 -3.8159,-4.37961 v -0.1129 a 0.24555836,0.24555836 0 0 0 -0.01,-0.0306 c 0,-0.11144 0.033,-0.14592 0.1457,-0.14592 a 0.24555836,0.24555836 0 0 0 0.033,-0.003 l 15.7249,-2.14897 c 0.036,-0.004 0.073,-0.006 0.1099,-0.007 z m -65.8866,1.74711 v 1.3e-4 a 0.24555836,0.24555836 0 0 0 -0.077,0.0125 l -11.0517,3.62341 c -0.8148,0.26769 -1.317,1.18514 -1.317,2.19268 a 0.24555836,0.24555836 0 0 0 0.01,0.0217 c 0.021,1.00782 0.524,1.89412 1.3236,2.17665 a 0.24555836,0.24555836 0 0 0 0.01,0.003 l 15.1211,4.77107 a 0.24555836,0.24555836 0 0 0 0.074,0.0114 c 0.1499,0 0.3084,-0.022 0.4588,-0.0937 0.1503,-0.0718 0.2929,-0.20725 0.3547,-0.39351 a 0.24555836,0.24555836 0 0 0 0.01,-0.0317 c 0.316,-1.6668 -0.5401,-3.76851 -1.5411,-5.89324 -1.0009,-2.12475 -2.1688,-4.27537 -2.5737,-5.89487 v 0.006 c -0.048,-0.21429 -0.1939,-0.38647 -0.3575,-0.45257 -0.1633,-0.0661 -0.3111,-0.0581 -0.4384,-0.0581 z m 0.03,0.49408 c 0.1047,0.003 0.1948,0.007 0.2243,0.0192 0.033,0.0135 0.039,-4e-5 0.062,0.10509 a 0.24555836,0.24555836 0 0 0 0,0.006 c 0.4335,1.73311 1.614,3.87864 2.6059,5.98476 0.9871,2.09549 1.761,4.14682 1.5033,5.56905 -0.019,0.0449 -0.039,0.0711 -0.093,0.0969 -0.053,0.0252 -0.1367,0.0379 -0.2232,0.041 l -15.0631,-4.75188 c -0.5499,-0.19424 -0.9834,-0.87974 -0.9977,-1.73176 a 0.24555836,0.24555836 0 0 0 -0.01,-0.0119 c 0,-0.83748 0.4369,-1.5401 0.9775,-1.71778 z m 28.1608,5.54219 c -0.2328,0.004 -0.4084,0.18405 -0.4065,0.41791 v 0.002 10.72019 c 0,0.23778 0.1803,0.41949 0.4175,0.42161 v 0 c 0.233,-0.004 0.4089,-0.18402 0.4071,-0.41749 v -0.002 -10.7202 c 0,-0.23755 -0.181,-0.41989 -0.4179,-0.42201 v 0 c 0,-1e-5 -8e-4,0 0,0 z m -4.3003,0.65563 v 9.21685 c 10e-5,0.51137 0.3507,0.93051 0.8282,1.03366 v -9.21644 c 0,-0.51146 -0.3508,-0.93083 -0.8282,-1.03407 z m 8.6156,0 c -0.4776,0.10305 -0.8285,0.52245 -0.8285,1.03407 v 9.21644 c 0.4777,-0.10296 0.8285,-0.52207 0.8285,-1.03366 z m -11.6802,0.9472 c -0.4778,0.10293 -0.8286,0.52188 -0.8286,1.03352 v 7.32259 c 0.4777,-0.10296 0.8285,-0.52206 0.8286,-1.03366 z m 14.7449,0 v 7.32245 c 0,0.51138 0.3511,0.93059 0.8287,1.03366 v -7.32259 c 0,-0.51184 -0.3509,-0.93071 -0.8287,-1.03352 z m -18.6383,1.57843 c -0.4777,0.10293 -0.8285,0.52189 -0.8285,1.03352 v 3.13207 c 0,0.51157 0.3508,0.9307 0.8285,1.03365 z m 22.5326,0 v 5.19924 c 0.4774,-0.10314 0.8281,-0.52224 0.8281,-1.03365 v -3.13207 c 0,-0.51146 -0.3506,-0.9304 -0.8281,-1.03352 z m 11.1302,11.34445 v 4.1e-4 c -0.1773,1.1e-4 -0.3517,0.0644 -0.4878,0.20032 a 0.24555836,0.24555836 0 0 0 -0.024,0.0266 c -1.0134,1.35735 -1.1692,3.61512 -1.2066,5.95791 -0.037,2.34278 0.063,4.7835 -0.2863,6.41896 a 0.24555836,0.24555836 0 0 0 -0.01,0.0513 v 0.13674 a 0.24555836,0.24555836 0 0 0 -0.016,0.0145 c -0.01,0.17017 0.044,0.33875 0.1574,0.46244 0.1107,0.12131 0.2751,0.18701 0.4438,0.18949 h 3e-4 l 11.5362,1.44635 c 0.8509,0.10561 1.7102,-0.50691 2.1524,-1.4184 a 0.24555836,0.24555836 0 0 0 0,-0.003 c 0.4314,-0.91581 0.3879,-1.95839 -0.2378,-2.5381 l -11.5163,-10.75171 a 0.24555836,0.24555836 0 0 0 -0.011,-0.009 c -0.1454,-0.12111 -0.3249,-0.18528 -0.5019,-0.18539 z m 0.017,0.51231 v 0 c 0.062,1.1e-4 0.1274,0.0145 0.1712,0.0504 l 11.5068,10.74239 c 0.408,0.37736 0.4911,1.19648 0.1276,1.96839 v 1.4e-4 c -0.3696,0.75907 -1.084,1.21293 -1.6485,1.14285 l -11.557,-1.44895 a 0.24555836,0.24555836 0 0 0 -0.031,-0.003 c -0.059,0 -0.077,-0.0143 -0.091,-0.03 -0.013,-0.0151 -0.029,-0.0473 -0.028,-0.10879 a 0.24555836,0.24555836 0 0 0 0.013,-0.014 v -0.14921 c 0.3645,-1.74658 0.2551,-4.16701 0.2917,-6.47267 0.037,-2.30742 0.2439,-4.47965 1.0958,-5.64469 v 0.003 c 0.026,-0.0212 0.083,-0.0355 0.145,-0.0358 z m -48.4743,4.7812 c -0.076,0.004 -0.15,0.0225 -0.2154,0.0526 -0.1742,0.08 -0.3034,0.22701 -0.3694,0.40599 l -4.007,10.7513 a 0.24555836,0.24555836 0 0 0 -0.016,0.0859 v -0.009 -1.4e-4 h -1e-4 v -1.4e-4 h -2e-4 -10e-5 -10e-5 v 1.4e-4 h -2e-4 v 1.4e-4 h -10e-5 v 1.3e-4 1.4e-4 1.4e-4 h -10e-5 c 0,0.008 -0.015,0.0851 -0.031,0.14852 -0.021,0.0796 -0.047,0.1374 -0.047,0.25897 a 0.24555836,0.24555836 0 0 0 0.016,0.0264 c -0.011,0.67129 0.3702,1.36442 1.0105,1.87056 a 0.24555836,0.24555836 0 0 0 0.01,0.005 c 0.8087,0.60164 1.8377,0.80523 2.5578,0.32665 l 13.2198,-8.64864 a 0.24555836,0.24555836 0 0 0 0.013,-0.008 c 0.1599,-0.11836 0.2617,-0.2866 0.2967,-0.46929 0.034,-0.17995 -0.01,-0.39286 -0.1615,-0.53847 -1.1337,-1.286 -3.3295,-1.93068 -5.6349,-2.47754 -2.3053,-0.54681 -4.7337,-0.98201 -6.2743,-1.68901 -0.089,-0.0553 -0.1876,-0.0841 -0.285,-0.0904 l 1e-4,-8.2e-4 c -0.026,-0.002 -0.051,-0.002 -0.077,-2.7e-4 z m 0.036,0.48381 h 9e-4 c 0.019,-8e-4 0.039,0.006 0.068,0.026 a 0.24555836,0.24555836 0 0 0 0.033,0.0186 c 1.6468,0.76123 4.0896,1.1848 6.3842,1.72901 2.2943,0.54424 4.4244,1.22431 5.393,2.3345 a 0.24555836,0.24555836 0 0 0 0.018,0.0201 c 0.016,0.0135 0.026,0.0351 0.016,0.0913 -0.011,0.0561 -0.053,0.12613 -0.1074,0.16675 l -13.2088,8.64097 a 0.24555836,0.24555836 0 0 0 0,0.003 c -0.473,0.31544 -1.3019,0.20154 -1.9902,-0.30857 -0.5531,-0.43812 -0.8477,-1.03104 -0.8276,-1.508 a 0.24555836,0.24555836 0 0 0 -0.01,-0.0126 c 0,-0.009 0.013,-0.0689 0.029,-0.12948 0.013,-0.0533 0.021,-0.11363 0.032,-0.17292 l 4.0074,-10.7513 a 0.24555836,0.24555836 0 0 0 0,-0.003 c 0.021,-0.0591 0.072,-0.1107 0.1138,-0.13003 v 2.7e-4 c 0.019,-0.008 0.033,-0.014 0.048,-0.0147 z m 32.3749,7.57045 v 1.4e-4 c 4e-4,0 6e-4,0 9e-4,0 z m -3e-4,1.4e-4 v 10e-4 a 0.24555836,0.24555836 0 0 0 -0.011,0 c -1.7346,0.0728 -3.6224,1.36608 -5.4988,2.80268 -1.8762,1.4366 -3.7402,3.03727 -5.2749,3.784 -0.2368,0.1143 -0.3769,0.34389 -0.3913,0.57917 a 0.24555836,0.24555836 0 0 0 -0.015,0.0796 c 0,0.0399 -0.01,0.0956 0.024,0.18743 0.016,0.0459 0.046,0.10626 0.105,0.15223 0.01,0.006 0.016,0.003 0.027,0.008 l 6.0076,9.72286 v 1.3e-4 c 0.2254,0.38604 0.6129,0.62015 1.047,0.73113 0.4343,0.11109 0.9232,0.10826 1.4105,0.0238 a 0.24555836,0.24555836 0 0 0 0.016,-0.003 c 0.9946,-0.24073 1.7685,-0.91182 1.8632,-1.76492 a 0.24555836,0.24555836 0 0 0 0,-0.006 l 1.3648,-15.54251 c 0.052,-0.39247 -0.2609,-0.75552 -0.6719,-0.75606 z m 0,0.49422 c 0.1116,0.003 0.1953,0.11417 0.1842,0.19772 a 0.24555836,0.24555836 0 0 0 0,0.011 l -1.366,15.55128 c -0.066,0.57713 -0.6401,1.12877 -1.4811,1.3355 -0.4311,0.0738 -0.8557,0.0716 -1.1985,-0.0162 -0.3447,-0.0882 -0.5983,-0.25195 -0.7444,-0.50285 a 0.24555836,0.24555836 0 0 0 0,-0.006 l -6.0482,-9.78753 a 0.24555836,0.24555836 0 0 0 -0.037,-0.0207 0.24555836,0.24555836 0 0 0 0.01,-0.0492 c 0,-0.0698 0.032,-0.13758 0.1153,-0.17757 1.6399,-0.79784 3.4986,-2.41097 5.3589,-3.83538 1.857,-1.42175 3.7161,-2.63302 5.2118,-2.70005 z m -10.8691,6.66683 h 8e-4 c 0.021,0 0.069,0.01 0.1052,0.0384 0.016,0.0122 0.016,0.0214 0.024,0.0341 a 0.24555836,0.24555836 0 0 0 -0.1299,-0.0725 z"
       inkscape:label="Plain LOGO" />
  </g>
</svg>
