<?xml version="1.0" encoding="UTF-8" standalone="no"?>
<!-- Created with Inkscape (http://www.inkscape.org/) -->

<svg
   width="90mm"
   height="90mm"
   viewBox="0 0 90 90"
   version="1.1"
   id="svg1"
   inkscape:version="1.4.2 (ebf0e940, 2025-05-08)"
   sodipodi:docname="logo-plain.svg"
   xmlns:inkscape="http://www.inkscape.org/namespaces/inkscape"
   xmlns:sodipodi="http://sodipodi.sourceforge.net/DTD/sodipodi-0.dtd"
   xmlns="http://www.w3.org/2000/svg"
   xmlns:svg="http://www.w3.org/2000/svg">
  <sodipodi:namedview
     id="namedview1"
     pagecolor="#505050"
     bordercolor="#eeeeee"
     borderopacity="1"
     inkscape:showpageshadow="0"
     inkscape:pageopacity="0"
     inkscape:pagecheckerboard="0"
     inkscape:deskcolor="#505050"
     inkscape:document-units="mm"
     inkscape:zoom="0.11625201"
     inkscape:cx="769.87917"
     inkscape:cy="-206.44804"
     inkscape:window-width="1472"
     inkscape:window-height="895"
     inkscape:window-x="0"
     inkscape:window-y="61"
     inkscape:window-maximized="0"
     inkscape:current-layer="svg1">
    <inkscape:page
       x="0"
       y="0"
       width="90"
       height="90"
       id="page2"
       margin="0"
       bleed="0" />
  </sodipodi:namedview>
  <defs
     id="defs1" />
  <path
     id="path112-0-37-6-4-1-3-6-9-9-4-0-8-2-3-5-5"
     style="display:inline;fill:#917c6f;fill-opacity:1;stroke:none;stroke-width:6.6146;stroke-linecap:round;stroke-linejoin:round;stroke-dasharray:none"
     inkscape:label="1"
     d="M 44.946599,4.1618833e-5 C 42.887289,0.00504162 40.845999,0.15280162 38.796209,0.44252162 c -0.56159,0.0791 -1.19565,0.57526998 -1.446,1.08203998 -2.86243,5.7027 -8.94648,10.1002904 -10.6806,16.2944804 -0.18471,0.71229 -0.3871,1.69807 -0.53915,2.82593 -0.017,0.1495 -0.034,0.33277 -0.0463,0.5267 -0.0238,0.38597 0.1347,0.5998 0.38982,0.60072 0.11599,0 0.25103,-0.0481 0.39866,-0.14488 2.92093,-1.90165 5.56327,-3.56131 7.83314,-4.72665 3.59308,-1.84243 16.99154,-1.84243 20.58462,0 2.26987,1.16534 4.91187,2.825 7.8328,4.72665 0.14729,0.0967 0.28301,0.14304 0.39867,0.14488 v 0 c 0.25546,0 0.41397,-0.21475 0.38982,-0.60072 -0.0136,-0.19393 -0.0272,-0.3772 -0.0463,-0.5267 -0.15205,-1.12786 -0.35411,-2.11364 -0.53881,-2.82593 -1.73446,-6.19419 -7.81818,-10.5917804 -10.68094,-16.2944804 -0.25036,-0.50677 -0.88407,-1.00291998 -1.44567,-1.08203998 -2.12088,-0.29992 -4.19822,-0.44479 -6.25719,-0.442480001167 z M 26.323329,4.1602316 c -0.0881,-0.006 -0.2143,0.0255 -0.37452,0.0995 C 8.8378787,12.181622 -1.5103813,30.111722 0.17985874,48.876702 c 0.051,0.56231 0.30614,0.60582 0.55139,0.0977 4.01725996,-8.20973 7.05213996,-13.02483 13.85903026,-17.81625 0.41806,-0.29434 0.96945,-0.88489 1.22491,-1.32736 l 1.45111,-2.51258 c 0.25546,-0.44288 0.49153,-1.21483 0.53745,-1.72395 0.74766,-8.28841 3.40191,-13.3228 8.50563,-20.9059304 0.21804,-0.32073 0.20818,-0.5151 0.0136,-0.52806 z m 37.35471,0 c -0.19457,0.0129 -0.20443,0.20688 0.0136,0.52762 5.10372,7.5830904 7.75796,12.6179604 8.50563,20.9063704 0.0463,0.50912 0.28131,1.28107 0.53677,1.72395 l 1.45111,2.51213 c 0.25546,0.44292 0.80685,1.03299 1.22491,1.32736 6.80654,4.79143 9.84143,9.60697 13.85902,17.8167 0.2456,0.50816 0.50003,0.46417 0.55106,-0.0981 1.69024,-18.76498 -8.65803,-36.69413 -25.76862,-44.6164904 -0.16021,-0.0741 -0.28641,-0.10552 -0.37451,-0.0995 z M 45.001359,22.958992 a 22.048985,22.041204 0 0 0 -22.04899,22.04124 22.048985,22.041204 0 0 0 22.04899,22.04121 22.048985,22.041204 0 0 0 22.049,-22.04121 22.048985,22.041204 0 0 0 -22.049,-22.04124 z m -29.71852,17.4349 c -0.11259,0.005 -0.24253,0.0518 -0.38336,0.14531 -0.16123,0.10879 -0.31294,0.21247 -0.43336,0.30363 -0.90107,0.69514 -1.65418,1.36342 -2.17904,1.87943 -4.4985803,4.59845 -5.2666603,12.06402 -8.7760603,17.39371 -0.31363,0.4702 -0.42656,1.26671 -0.2143,1.79246 1.60146,3.97273 3.65125,7.4822 6.20379,10.74176 0.34934,0.44659 1.0963303,0.74695 1.6599703,0.71086 6.37216,-0.37349 13.22429,2.69493 19.45733,1.09918 0.70957,-0.19623 1.66473,-0.51421 2.71752,-0.94645 0.13878,-0.0588 0.30478,-0.13838 0.47962,-0.22355 0.34594,-0.1726 0.45241,-0.41653 0.32553,-0.63773 -0.0578,-0.1 -0.16702,-0.19297 -0.32519,-0.2726 -3.10768,-1.57772 -5.86669,-3.03553 -8.01104,-4.41796 -3.39273,-2.18905 -10.09179,-13.78842 -10.29214,-17.8204 -0.12552,-2.54775 -0.0102,-5.66522 0.17824,-9.14462 0.0102,-0.17586 -0.0204,-0.31608 -0.0738,-0.41744 v -0.005 c -0.0718,-0.1245 -0.18743,-0.18835 -0.332,-0.18233 z m 59.43501,0 c -0.14423,-0.006 -0.25954,0.0579 -0.33132,0.18236 v 0.005 c -0.0558,0.10089 -0.0833,0.24158 -0.0742,0.41744 0.18742,3.47937 0.30376,6.59684 0.17824,9.14462 -0.20001,4.03195 -6.89907,15.63087 -10.29214,17.8204 -2.14469,1.3824 -4.90337,2.84024 -8.01138,4.41792 -0.1575,0.0796 -0.26669,0.17219 -0.32451,0.27264 -0.12688,0.22121 -0.0204,0.46466 0.32553,0.63773 0.17484,0.0852 0.34049,0.16477 0.47894,0.22355 1.05347,0.43224 2.00863,0.75022 2.71786,0.94598 6.23338,1.59578 13.08517,-1.4722 19.45665,-1.09919 0.56432,0.0366 1.31131,-0.26379 1.66065,-0.71038 2.55254,-3.25959 4.60199,-6.76903 6.20379,-10.74176 0.21192,-0.52575 0.099,-1.32226 -0.21464,-1.79246 -3.50906,-5.32969 -4.27714,-12.79525 -8.77606,-17.39418 -0.52452,-0.51602 -1.27763,-1.18382 -2.17871,-1.87944 -0.12007,-0.0907 -0.27178,-0.19436 -0.43302,-0.30315 -0.14116,-0.0935 -0.27144,-0.14069 -0.38369,-0.14535 z m -31.16794,37.45686 c -0.51125,0 -1.29838,0.18188 -1.76201,0.3971 -7.55421,3.49651 -13.24335,3.71635 -22.36466,3.08921 -0.56296,-0.0416 -0.65242,0.20086 -0.19083,0.52625 15.41831,10.85191 36.12606,10.84588 51.53723,0 0.46159,-0.32539 0.37179,-0.56789 -0.19117,-0.52625 -9.12098,0.62714 -14.80977,0.4073 -22.36432,-3.08921 -0.46363,-0.21522 -1.25076,-0.3971 -1.76236,-0.3971 z" />
</svg>
