<?xml version="1.0" encoding="UTF-8" standalone="no"?>
<!-- Created with Inkscape (http://www.inkscape.org/) -->

<svg
   width="500mm"
   height="25mm"
   viewBox="0 0 500 25"
   version="1.1"
   id="svg1"
   inkscape:version="1.4.2 (ebf0e940, 2025-05-08)"
   sodipodi:docname="logo-typo.svg"
   xmlns:inkscape="http://www.inkscape.org/namespaces/inkscape"
   xmlns:sodipodi="http://sodipodi.sourceforge.net/DTD/sodipodi-0.dtd"
   xmlns="http://www.w3.org/2000/svg"
   xmlns:svg="http://www.w3.org/2000/svg">
  <sodipodi:namedview
     id="namedview1"
     pagecolor="#505050"
     bordercolor="#eeeeee"
     borderopacity="1"
     inkscape:showpageshadow="0"
     inkscape:pageopacity="0"
     inkscape:pagecheckerboard="0"
     inkscape:deskcolor="#505050"
     inkscape:document-units="mm"
     inkscape:zoom="0.15057749"
     inkscape:cx="786.97023"
     inkscape:cy="577.77561"
     inkscape:window-width="1472"
     inkscape:window-height="895"
     inkscape:window-x="0"
     inkscape:window-y="61"
     inkscape:window-maximized="0"
     inkscape:current-layer="layer1">
    <inkscape:page
       x="0"
       y="0"
       width="500"
       height="25"
       id="page2"
       margin="0"
       bleed="0" />
  </sodipodi:namedview>
  <defs
     id="defs1" />
  <g
     inkscape:label="Layer 1"
     inkscape:groupmode="layer"
     id="layer1"
     transform="translate(1065.2044,142.84556)">
    <g
       id="g3-6-3-5"
       transform="matrix(0.94488129,0,0,0.94488129,16747.304,-3154.4724)"
       style="stroke-width:1.05833">
      <path
         id="path1-4-7-1-1-4-4-5-4-5-4-2-4-0-6-1-6-0-2-7-8-9-2-0"
         style="font-size:121.133px;font-family:Brooch;-inkscape-font-specification:Brooch;letter-spacing:12.8715px;word-spacing:3.2179px;baseline-shift:baseline;display:inline;overflow:visible;mix-blend-mode:normal;vector-effect:none;fill:#917c6f;fill-opacity:1;stroke-width:0.547656;enable-background:accumulate;stop-color:#000000"
         d="m -18497.478,3187.3073 -0.04,0.02 h -11.862 -1.107 c -3.301,0 -5.957,2.0684 -5.957,4.6448 v 10.0463 9.7283 c 0,1.1257 1.146,2.0187 2.586,2.0187 h 4.848 c 0.75,0 1.332,-0.4501 1.332,-1.0373 v -10.7289 c 0,-0.5214 0.967,-1.3901 1.209,-0.9429 0.64,1.1521 1.53,12.7091 10.731,12.7091 h 4.772 c 0.576,0 1.01,-0.3855 0.902,-0.8404 l -0.512,-2.3137 c -2.046,-8.985 -18.605,-9.5278 -5.241,-9.5278 6.79,-0.4142 5.778,0.6142 5.778,-3.0766 v -4.8599 c 0,-5.5499 -6.315,-5.8399 -7.44,-5.8399 z m -8.56,1.081 h 5.112 c 0.786,0 1.592,0.2497 2.155,0.6853 0.577,0.4358 0.922,1.0737 0.922,1.7016 v 6.8584 c 0,0.6287 -0.32,1.2688 -0.909,1.7152 -0.576,0.4427 -1.376,0.6929 -2.168,0.6929 h -5.112 c -0.903,0 -1.664,-0.5927 -1.664,-1.2956 v -9.0589 c 0,-0.707 0.761,-1.2961 1.664,-1.2961 z"
         inkscape:label="r" />
      <path
         id="path1-4-7-1-1-4-4-5-4-5-4-2-4-0-6-1-6-0-2-7-6-4-7-6-4"
         style="font-size:121.133px;font-family:Brooch;-inkscape-font-specification:Brooch;letter-spacing:12.8715px;word-spacing:3.2179px;baseline-shift:baseline;display:inline;overflow:visible;mix-blend-mode:normal;vector-effect:none;fill:#917c6f;fill-opacity:1;stroke-width:0.547656;enable-background:accumulate;stop-color:#000000"
         d="m -18665.047,3187.3073 -0.04,0.02 h -11.862 -1.107 c -3.301,0 -5.957,2.0684 -5.957,4.6448 v 10.0463 9.7283 c 0,1.1257 1.146,2.0187 2.586,2.0187 h 4.848 c 0.75,0 1.332,-0.4501 1.332,-1.0373 v -10.7289 c 0,-0.5214 0.967,-1.3901 1.209,-0.9429 0.64,1.1521 1.53,12.7091 10.731,12.7091 h 4.772 c 0.576,0 1.01,-0.3855 0.902,-0.8404 l -0.512,-2.3137 c -2.046,-8.985 -18.605,-9.5278 -5.241,-9.5278 6.79,-0.4142 5.778,0.6142 5.778,-3.0766 v -4.8599 c 0,-5.5499 -6.315,-5.8399 -7.44,-5.8399 z m -8.56,1.081 h 5.112 c 0.786,0 1.592,0.2497 2.155,0.6853 0.577,0.4358 0.922,1.0737 0.922,1.7016 v 6.8584 c 0,0.6287 -0.32,1.2688 -0.909,1.7152 -0.576,0.4427 -1.376,0.6929 -2.168,0.6929 h -5.112 c -0.903,0 -1.664,-0.5927 -1.664,-1.2956 v -9.0589 c 0,-0.707 0.761,-1.2961 1.664,-1.2961 z"
         inkscape:label="r" />
      <path
         id="path1-3-6-6-1-1-7-4-5-1-0-7-9-1-3-9-5-9-9-3-7-4-6-2"
         style="font-size:121.133px;font-family:Brooch;-inkscape-font-specification:Brooch;letter-spacing:12.8715px;word-spacing:3.2179px;baseline-shift:baseline;display:inline;overflow:visible;mix-blend-mode:normal;vector-effect:none;fill:#917c6f;fill-opacity:1;stroke-width:0.547656;enable-background:accumulate;stop-color:#000000"
         d="m -18447.888,3187.3077 -12.124,4e-4 c -0.318,0 -0.572,0.3389 -0.576,0.7815 v 0.01 2.9444 0.01 c 0,0.3772 0.195,0.383 0.514,0.3688 h 8.414 c 0.768,0 1.427,0.7974 1.427,1.8381 v 18.1038 c 0,1.3371 0.788,2.4008 1.771,2.4008 h 0.574 1.058 0.575 c 0.983,0 1.772,-1.0641 1.772,-2.4012 v -18.1034 c 0,-1.0407 0.658,-1.8381 1.425,-1.8381 h 8.416 c 0.319,0.014 0.512,0.01 0.512,-0.3693 v -0.01 -2.9443 -0.01 c 0,-0.4426 -0.257,-0.7815 -0.575,-0.7815 l -12.125,-5e-4 z"
         inkscape:label="t" />
      <path
         d="m -18388.838,3187.3086 h -7.152 c -0.448,0 -0.807,0.2358 -0.909,0.5788 l -0.512,1.6296 -7.32,24.109 c 0,0.072 0,0.1358 0.128,0.1358 h 0.992 c 0.126,0 0.192,-0.072 0.192,-0.1358 l 0.574,-1.8842 c 0.129,-0.5288 0.757,-0.9048 1.428,-0.9048 h 12.837 c 0.448,-0.072 0.978,0.079 1.292,0.393 0.128,0.1074 0.192,0.2433 0.256,0.379 0.384,1.2687 1.761,2.1565 3.379,2.1565 h 5.228 c 0.127,0 0.191,-0.072 0.127,-0.1357 l -7.09,-24.1154 v 0 c -0.383,-1.3002 -1.816,-2.2072 -3.474,-2.2072 z m -5.936,1.0413 c 0.511,0 1.003,0.3001 1.132,0.7255 l 5.676,19.3585 c 0.192,0.6647 -0.448,1.3445 -1.318,1.3445 h -11.211 c -0.85,0 -1.517,-0.6861 -1.311,-1.3522 l 5.892,-19.3578 c 0.129,-0.4219 0.576,-0.7206 1.14,-0.7185 z"
         style="font-size:121.133px;font-family:Brooch;-inkscape-font-specification:Brooch;letter-spacing:12.8715px;word-spacing:3.2179px;baseline-shift:baseline;display:inline;overflow:visible;mix-blend-mode:normal;vector-effect:none;fill:#917c6f;fill-opacity:1;stroke-width:0.547656;enable-background:accumulate;stop-color:#000000"
         id="path1-9-7-1-4-9-6-2-6-6-0-3-5-3-4-1-5-5-7-2-9-9-6-6"
         inkscape:label="a" />
      <path
         d="m -18556.408,3187.3086 h -7.152 c -0.448,0 -0.807,0.2358 -0.909,0.5788 l -0.512,1.6296 -7.32,24.109 c 0,0.072 0,0.1358 0.128,0.1358 h 0.992 c 0.126,0 0.192,-0.072 0.192,-0.1358 l 0.574,-1.8842 c 0.129,-0.5288 0.757,-0.9048 1.428,-0.9048 h 12.837 c 0.448,-0.072 0.978,0.079 1.292,0.393 0.128,0.1074 0.192,0.2433 0.256,0.379 0.384,1.2687 1.761,2.1565 3.379,2.1565 h 5.228 c 0.127,0 0.191,-0.072 0.127,-0.1357 l -7.09,-24.1154 v 0 c -0.383,-1.3002 -1.816,-2.2072 -3.474,-2.2072 z m -5.936,1.0413 c 0.511,0 1.003,0.3001 1.132,0.7255 l 5.676,19.3585 c 0.192,0.6647 -0.448,1.3445 -1.318,1.3445 h -11.211 c -0.85,0 -1.517,-0.6861 -1.311,-1.3522 l 5.892,-19.3578 c 0.129,-0.4219 0.576,-0.7206 1.14,-0.7185 z"
         style="font-size:121.133px;font-family:Brooch;-inkscape-font-specification:Brooch;letter-spacing:12.8715px;word-spacing:3.2179px;baseline-shift:baseline;display:inline;overflow:visible;mix-blend-mode:normal;vector-effect:none;fill:#917c6f;fill-opacity:1;stroke-width:0.547656;enable-background:accumulate;stop-color:#000000"
         id="path1-9-7-1-4-9-6-2-6-6-0-3-5-3-4-1-5-5-7-2-7-5-4-3-7"
         inkscape:label="a" />
      <path
         d="m -18347.791,3187.3072 c -0.578,0 -1.084,0.4145 -1.084,0.9563 v 25.3562 c 0,0.079 0.06,0.1429 0.129,0.1429 h 0.878 c 0.06,0 0.129,-0.072 0.129,-0.1429 v -23.7424 c 0,-0.4931 0.516,-0.9549 0.971,-1.0376 0.513,-0.079 1.129,0.1858 1.336,0.6502 l 8.849,19.6742 c 1.245,2.781 4.278,4.6014 7.661,4.6014 h 5.422 c 0.642,0 1.084,-0.4217 1.084,-0.957 v -25.3547 c 0,-0.079 -0.06,-0.1431 -0.127,-0.1431 h -0.854 c -0.06,-7e-4 -0.128,0.073 -0.128,0.1431 v 23.7416 c 0,0.4931 -0.515,0.9549 -0.97,1.0377 -0.514,0.086 -1.129,-0.1857 -1.336,-0.6432 l -8.866,-19.6756 c -1.252,-2.7808 -4.287,-4.6005 -7.669,-4.6005 z"
         style="font-size:121.133px;font-family:Brooch;-inkscape-font-specification:Brooch;letter-spacing:12.8715px;word-spacing:3.2179px;baseline-shift:baseline;display:inline;overflow:visible;mix-blend-mode:normal;vector-effect:none;fill:#917c6f;fill-opacity:1;stroke-width:0.547656;enable-background:accumulate;stop-color:#000000"
         id="path1-1-9-3-5-8-2-9-0-9-7-9-6-4-6-8-6-5-5-3-19-4-6"
         inkscape:label="n" />
      <path
         d="m -18850.499,3187.3072 c -0.578,0 -1.084,0.4145 -1.084,0.9563 v 25.3562 c 0,0.079 0.06,0.1429 0.129,0.1429 h 0.878 c 0.06,0 0.129,-0.072 0.129,-0.1429 v -23.7424 c 0,-0.4931 0.516,-0.9549 0.971,-1.0376 0.513,-0.079 1.129,0.1858 1.336,0.6502 l 8.849,19.6742 c 1.245,2.781 4.278,4.6014 7.661,4.6014 h 5.422 c 0.641,0 1.083,-0.4217 1.083,-0.957 v -25.3547 c 0,-0.079 -0.06,-0.143 -0.127,-0.143 h -0.854 c -0.06,-7e-4 -0.127,0.073 -0.127,0.143 v 23.7416 c 0,0.4931 -0.515,0.9549 -0.97,1.0377 -0.514,0.086 -1.129,-0.1857 -1.336,-0.6432 l -8.866,-19.6756 c -1.252,-2.7808 -4.287,-4.6005 -7.669,-4.6005 z"
         style="font-size:121.133px;font-family:Brooch;-inkscape-font-specification:Brooch;letter-spacing:12.8715px;word-spacing:3.2179px;baseline-shift:baseline;display:inline;overflow:visible;mix-blend-mode:normal;vector-effect:none;fill:#917c6f;fill-opacity:1;stroke-width:0.547656;enable-background:accumulate;stop-color:#000000"
         id="path1-1-9-3-5-8-2-9-0-9-7-9-6-4-6-8-6-5-5-0-3-6-4-3"
         inkscape:label="n" />
      <path
         id="path106-6-7-2-4"
         style="fill:#917c6f;fill-opacity:1;stroke-width:1.05833;stroke-linecap:round;stroke-linejoin:round"
         inkscape:label="u"
         d="m -18737.934,3187.3072 c -1.07,10e-5 -1.937,0.764 -1.937,1.7063 v 17.5145 h 0.02 c 0,1.9941 0.804,3.6986 2.411,5.1141 1.607,1.4155 3.544,2.1234 5.808,2.1234 h 0.407 0.08 1.499 6.01 1.499 0.08 0.406 c 2.264,0 4.201,-0.7079 5.808,-2.1234 1.607,-1.4155 2.411,-3.12 2.411,-5.1141 h 0.02 v -17.5145 c 0,-0.9423 -0.867,-1.7062 -1.937,-1.7063 h -2.248 c -2.419,-4e-4 -4.416,1.8946 -4.54,4.3107 v 19.2528 a 1.8181922,1.8181797 0 0 1 -1.818,1.818 h -5.371 a 1.8181922,1.8181797 0 0 1 -1.819,-1.818 v -19.2528 c -0.124,-2.4161 -2.121,-4.3111 -4.54,-4.3107 z" />
      <path
         id="path105-0-0-9-1"
         style="font-size:44.3402px;font-family:Brooch;-inkscape-font-specification:Brooch;letter-spacing:52.8451px;word-spacing:0px;fill:#917c6f;fill-opacity:1;stroke-width:1.05832;stroke-linecap:round;stroke-linejoin:round"
         d="m -18621.535,3187.3071 c -1.825,0 -3.385,0.7079 -4.679,2.1236 -1.295,1.4155 -1.943,3.1201 -1.943,5.1143 v 11.9827 c 0,1.994 0.648,3.6989 1.943,5.1149 1.294,1.415 2.854,2.1229 4.679,2.1229 h 13.215 c 1.825,0 3.385,-0.7079 4.679,-2.1229 1.294,-1.416 1.942,-3.1209 1.942,-5.1149 v -11.9827 c 0,-1.9941 -0.648,-3.6988 -1.942,-5.1143 -1.294,-1.4156 -2.854,-2.1236 -4.679,-2.1236 z m 2.522,1.0748 h 8.171 c 0.179,0 0.337,0.074 0.471,0.2217 0.139,0.1476 0.204,0.3262 0.204,0.5354 v 22.7945 c 0,0.209 -0.06,0.3885 -0.204,0.5366 -0.134,0.1464 -0.292,0.2205 -0.471,0.2205 h -8.171 c -0.179,0 -0.338,-0.074 -0.472,-0.2205 -0.139,-0.1481 -0.203,-0.3275 -0.203,-0.5366 v -22.7945 c 0,-0.2092 0.06,-0.3877 0.203,-0.5354 0.134,-0.1477 0.293,-0.2217 0.472,-0.2217 z"
         sodipodi:nodetypes="ssssssssssssssscsssssssscs"
         inkscape:label="o" />
      <path
         d="m -18794.723,3187.3074 c -0.555,0 -1.004,0.4354 -1.004,0.9726 v 24.5134 c 0,0.537 0.45,0.9722 1.004,0.9722 h 24.45 c 0.553,0 1.004,-0.4353 1.004,-0.9722 v -0.8042 c 0,-0.5372 -0.45,-0.9727 -1.004,-0.9727 h -13.467 c -0.333,0 -0.606,-0.2631 -0.606,-0.5875 v -4.8124 c 0,-0.3239 0.273,-0.5861 0.606,-0.5843 l 10.894,0.056 c 0.554,0 1.005,-0.4314 1.005,-0.9675 v -3.9775 c 0,-0.5369 -0.45,-0.9723 -1.005,-0.9727 h -10.894 c -0.333,0 -0.606,-0.263 -0.606,-0.5875 v -7.9394 c 0,-0.3245 0.273,-0.5876 0.606,-0.5876 h 13.467 c 0.554,0 1.004,-0.4357 1.004,-0.9727 v -0.8039 c 0,-0.5371 -0.45,-0.9726 -1.004,-0.9726 z"
         style="font-size:121.133px;font-family:Brooch;-inkscape-font-specification:Brooch;letter-spacing:12.8715px;word-spacing:3.2179px;baseline-shift:baseline;display:inline;overflow:visible;mix-blend-mode:normal;vector-effect:none;fill:#917c6f;fill-opacity:1;stroke-width:0.501798;enable-background:accumulate;stop-color:#000000"
         id="path1-8-9-2-9"
         sodipodi:nodetypes="sssssssssssscsscsssssssss"
         inkscape:label="e" />
    </g>
  </g>
</svg>
