<?xml version="1.0" encoding="UTF-8" standalone="no"?>
<svg
   role="img"
   viewBox="0 0 24 24"
   version="1.1"
   id="svg1"
   sodipodi:docname="book.svg"
   inkscape:version="1.4.2 (ebf0e940, 2025-05-08)"
   xmlns:inkscape="http://www.inkscape.org/namespaces/inkscape"
   xmlns:sodipodi="http://sodipodi.sourceforge.net/DTD/sodipodi-0.dtd"
   xmlns="http://www.w3.org/2000/svg"
   xmlns:svg="http://www.w3.org/2000/svg"
   xmlns:rdf="http://www.w3.org/1999/02/22-rdf-syntax-ns#"
   xmlns:cc="http://creativecommons.org/ns#"
   xmlns:dc="http://purl.org/dc/elements/1.1/">
  <sodipodi:namedview
     id="namedview1"
     pagecolor="#505050"
     bordercolor="#eeeeee"
     borderopacity="1"
     inkscape:showpageshadow="0"
     inkscape:pageopacity="0"
     inkscape:pagecheckerboard="0"
     inkscape:deskcolor="#505050"
     inkscape:zoom="16.443693"
     inkscape:cx="13.37899"
     inkscape:cy="11.676209"
     inkscape:window-width="1472"
     inkscape:window-height="895"
     inkscape:window-x="0"
     inkscape:window-y="61"
     inkscape:window-maximized="0"
     inkscape:current-layer="svg1" />
  <defs
     id="defs1" />
  <title
     id="title1">Apple</title>
  <metadata
     id="metadata1">
    <rdf:RDF>
      <cc:Work
         rdf:about="">
        <dc:title>Apple</dc:title>
      </cc:Work>
    </rdf:RDF>
  </metadata>
  <path
     id="path9-36-8"
     style="fill:#917c6f;fill-opacity:1;fill-rule:evenodd;stroke:none;stroke-width:0.0225288"
     d="M 1.9134792 -1.7587273 C 1.6891054 -1.7639929 1.5306667 -1.554075 1.5306667 -1.2020867 L 1.5306667 10.17096 C 1.5306667 10.639511 1.8134514 11.192181 2.1576199 11.399476 L 7.9134792 14.86432 C 8.2577185 15.071614 8.5384794 14.858517 8.5384792 14.38971 L 8.5384792 3.0147102 C 8.5384795 2.5459027 8.2577183 1.9932334 7.9134792 1.7861946 L 2.1576199 -1.6786492 C 2.0715778 -1.7304728 1.9882706 -1.7569721 1.9134792 -1.7587273 z M 16.630276 -1.6806023 C 16.555466 -1.6788431 16.47415 -1.6523478 16.388089 -1.6005242 L 10.632229 1.8643196 C 10.287985 2.0711032 10.007229 2.6235809 10.007229 3.0928352 L 10.007229 14.465882 C 10.007229 14.934497 10.287985 15.149738 10.632229 14.942445 L 16.388089 11.477601 C 16.732333 11.27037 17.013089 10.716194 17.013089 10.247132 L 17.013089 -1.1259148 C 17.013089 -1.4777112 16.854707 -1.6858799 16.630276 -1.6806023 z M 0.016994875 -0.30364915 C -0.24133958 -0.30368338 -0.51620825 -0.16589069 -0.51620825 0.21978835 L -0.51620825 11.592835 C -0.51620825 12.061706 -0.26996415 12.689514 0.10879175 12.823304 L 6.4896511 15.073304 L 1.6869167 12.182679 C 1.0354214 11.790442 0.61855738 10.921396 0.61855737 10.17096 L 0.61855737 0.25689772 C 0.61855737 0.016012045 0.47007042 -0.21280887 0.190823 -0.28216478 C 0.13675306 -0.29551575 0.076610519 -0.30364125 0.016994875 -0.30364915 z M 18.489651 -0.30364915 C 18.430015 -0.30364125 18.369935 -0.29551575 18.315823 -0.28216478 C 18.036691 -0.21280886 17.888089 0.016012045 17.888089 0.25689772 L 17.888089 10.17096 C 17.888089 10.921396 17.47127 11.790442 16.819729 12.182679 L 12.016995 15.073304 L 18.397854 12.823304 C 18.776335 12.689514 19.022854 12.061706 19.022854 11.592835 L 19.022854 0.21978835 C 19.022854 -0.16589069 18.748073 -0.30368338 18.489651 -0.30364915 z M -2.0884739 0.78033522 C -2.4176717 0.78956319 -2.746677 1.2481811 -2.746677 2.0147102 L -2.746677 12.73932 C -2.746677 14.054356 -1.6809075 14.226221 -0.69589575 14.399476 L 4.6771511 15.346741 L -0.36191138 13.604554 C -1.0807166 13.356005 -1.4302706 12.343079 -1.4302708 11.592835 L -1.4302708 2.2471321 C -1.4302708 1.2118099 -1.759276 0.7711073 -2.0884739 0.78033522 z M 20.56387 0.78033522 C 20.245321 0.79880567 19.936917 1.2441637 19.936917 2.2471321 L 19.936917 11.592835 C 19.936917 12.343079 19.587452 13.356005 18.868557 13.604554 L 13.829495 15.346741 L 19.202542 14.399476 C 20.187726 14.226221 21.253323 14.054356 21.253323 12.73932 L 21.253323 2.0147102 C 21.253323 1.2242271 20.90297 0.76067318 20.56387 0.78033522 z M 2.6693386 0.87408522 C 2.6734074 0.87366281 2.6769547 0.87414089 2.6810574 0.87408522 C 2.6862932 0.87397312 2.6914916 0.87358284 2.6966824 0.87408522 C 2.6996402 0.87438992 2.7035014 0.87553638 2.706448 0.87603835 C 2.7096673 0.87659647 2.7130248 0.87718608 2.7162136 0.87799147 C 2.729043 0.88121763 2.7414362 0.88640577 2.753323 0.89361647 L 7.6986355 3.8955696 C 7.7018776 3.8975295 7.7053835 3.8992498 7.7084011 3.901429 C 7.7140592 3.9055149 7.7191771 3.9103272 7.7240261 3.9151008 C 7.7321078 3.923057 7.7397727 3.9310249 7.7455105 3.9404915 C 7.7528549 3.9526087 7.7578567 3.9658964 7.7611355 3.979554 C 7.7660537 4.0000404 7.7660768 4.021052 7.7611355 4.042054 C 7.7603572 4.0455076 7.7602424 4.0503605 7.7591824 4.0537727 C 7.7581652 4.0569131 7.7565341 4.0604469 7.7552761 4.0635383 C 7.7539302 4.0668934 7.7530059 4.0700219 7.7513699 4.073304 C 7.7496995 4.0766605 7.7474842 4.0798044 7.7455105 4.0830696 C 7.7365717 4.0978581 7.7251971 4.1102064 7.7123074 4.120179 C 7.7037206 4.1267633 7.6947331 4.1315085 7.6849636 4.135804 C 7.6455164 4.1534379 7.5977968 4.1520497 7.5580105 4.1279915 L 2.612698 1.1260383 C 2.6017462 1.1194083 2.5917395 1.1115239 2.5834011 1.1026008 C 2.5802827 1.0992638 2.5783264 1.0964314 2.5755886 1.0928352 C 2.5733983 1.0900787 2.5697331 1.0879173 2.5677761 1.0850227 C 2.5674868 1.084574 2.5680599 1.0835213 2.5677761 1.0830696 C 2.5655846 1.0797525 2.5637987 1.0767765 2.5619167 1.073304 C 2.5559723 1.0620131 2.5527988 1.0505667 2.550198 1.0381477 C 2.5481561 1.0289138 2.5463377 1.0203032 2.5462917 1.010804 C 2.5462458 1.0013047 2.5481559 0.9909557 2.550198 0.9815071 C 2.551243 0.97675668 2.5525284 0.97250383 2.5541042 0.96783522 C 2.5572249 0.9585304 2.5604761 0.94927181 2.565823 0.94049147 C 2.5759757 0.92366239 2.5896936 0.91003866 2.6048855 0.89947585 C 2.6111456 0.89512327 2.6175811 0.89097635 2.6244167 0.8877571 C 2.6312524 0.88453785 2.6386535 0.88199005 2.6459011 0.8799446 C 2.6534552 0.87781268 2.6615184 0.87489712 2.6693386 0.87408522 z M 15.80801 0.87408522 C 15.811195 0.87373638 15.81459 0.87420827 15.817776 0.87408522 C 15.820963 0.87396218 15.824365 0.87398548 15.827542 0.87408522 C 15.82814 0.87409833 15.828897 0.87406404 15.829495 0.87408522 C 15.835068 0.87428273 15.839631 0.87515019 15.84512 0.87603835 C 15.845739 0.8761361 15.846455 0.87593214 15.847073 0.87603835 C 15.851573 0.87682896 15.856345 0.87870254 15.860745 0.8799446 C 15.862033 0.88031393 15.863374 0.87953762 15.864651 0.8799446 C 15.867536 0.88084988 15.869641 0.88275421 15.872464 0.88385085 C 15.899472 0.89436486 15.924669 0.91384546 15.940823 0.94049147 C 15.943456 0.94482963 15.944588 0.9477106 15.946682 0.95221022 C 15.947052 0.95296711 15.948282 0.95340268 15.948635 0.95416335 C 15.950293 0.95790686 15.951246 0.96205786 15.952542 0.9658821 C 15.952756 0.96648863 15.952337 0.96722707 15.952542 0.96783522 C 15.953869 0.97192281 15.955525 0.97735812 15.956448 0.9815071 C 15.958499 0.99085924 15.960345 0.99944296 15.960354 1.0088508 C 15.960363 1.0182587 15.958395 1.0289907 15.956448 1.0381477 C 15.955513 1.0427736 15.955901 1.0473132 15.954495 1.0518196 C 15.952106 1.0594744 15.948441 1.0661499 15.944729 1.073304 C 15.939162 1.0840351 15.931656 1.0935494 15.923245 1.1026008 C 15.914834 1.1116523 15.905044 1.1193303 15.893948 1.1260383 L 10.948635 4.1279915 C 10.904228 4.1548418 10.849877 4.1525436 10.80801 4.1279915 C 10.807519 4.1276984 10.806545 4.1282911 10.806057 4.1279915 C 10.797281 4.122705 10.790135 4.1157553 10.78262 4.1084602 C 10.782297 4.1081419 10.780987 4.1087823 10.780667 4.1084602 C 10.772895 4.1007641 10.767081 4.0928401 10.761135 4.0830696 C 10.734749 4.0394276 10.735845 3.9858706 10.759182 3.9443977 C 10.759428 3.943969 10.758932 3.9428708 10.759182 3.9424446 C 10.764496 3.9332645 10.771244 3.924891 10.778714 3.917054 C 10.782623 3.9130192 10.78791 3.9089094 10.792385 3.9053352 C 10.796892 3.9017443 10.801004 3.8986354 10.806057 3.8955696 L 15.753323 0.89361647 C 15.758394 0.89054986 15.763667 0.88813931 15.768948 0.88580397 C 15.776017 0.88268925 15.78311 0.87984244 15.790432 0.87799147 C 15.794576 0.87692492 15.797966 0.87670329 15.802151 0.87603835 C 15.804319 0.87569401 15.805837 0.87432326 15.80801 0.87408522 z M 2.6791042 3.3506477 C 2.6829282 3.3505622 2.686992 3.3523398 2.690823 3.3526008 C 2.6920739 3.3526861 2.6934789 3.352479 2.6947292 3.3526008 C 2.6972252 3.3528107 2.7000512 3.3522515 2.7025417 3.3526008 C 2.7047701 3.3529666 2.7061822 3.3540731 2.7084011 3.354554 C 2.7135527 3.3555498 2.7189597 3.3568477 2.7240261 3.3584602 C 2.729032 3.3601549 2.734771 3.3620385 2.7396511 3.3643196 C 2.744554 3.3665453 2.7486073 3.3692722 2.753323 3.3721321 L 7.6986355 6.3740852 C 7.702663 6.376524 7.7066739 6.3791249 7.7103542 6.3818977 C 7.7140412 6.38466 7.716782 6.3866545 7.7201199 6.3897102 C 7.7205084 6.3900612 7.7216893 6.3893554 7.722073 6.3897102 C 7.7250453 6.3924853 7.7272031 6.3964887 7.7298855 6.3994758 C 7.7421853 6.4130912 7.7513307 6.4275187 7.7572292 6.4443977 C 7.7615453 6.4567483 7.7643946 6.4703666 7.7650417 6.4834602 C 7.7652837 6.4877826 7.7652248 6.4908334 7.7650417 6.495179 C 7.7647285 6.5045719 7.7634397 6.5132456 7.7611355 6.5225227 C 7.7600773 6.5268246 7.7587378 6.5300064 7.7572292 6.5342415 C 7.7541133 6.5433378 7.7507008 6.5510798 7.7455105 6.5596321 C 7.7389931 6.5703108 7.7307977 6.5807239 7.722073 6.588929 C 7.7133483 6.5971341 7.7050606 6.6028899 7.6947292 6.6084602 C 7.6843979 6.6140306 7.6728635 6.6193577 7.6615261 6.6221321 C 7.6558584 6.6235622 7.6497547 6.6233823 7.643948 6.6240852 C 7.6203573 6.6267581 7.5963833 6.6245194 7.5736355 6.6143196 C 7.5680472 6.6119133 7.5633644 6.6097437 7.5580105 6.6065071 L 2.612698 3.604554 C 2.6085876 3.6020666 2.6047283 3.5995782 2.6009792 3.5967415 C 2.5934812 3.591068 2.5854979 3.58408 2.5794949 3.5772102 C 2.5764934 3.5737753 2.5742978 3.5711284 2.5716824 3.5674446 C 2.5664515 3.5600771 2.5616474 3.5521693 2.5580105 3.5440071 C 2.5419731 3.5080154 2.5415417 3.4661307 2.5599636 3.4287727 C 2.5619132 3.424674 2.5634183 3.4210189 2.565823 3.417054 C 2.5688019 3.4121014 2.5721065 3.4078081 2.5755886 3.4033821 C 2.5767339 3.4019039 2.5782959 3.4008962 2.5794949 3.3994758 C 2.581275 3.3974257 2.5834709 3.3935854 2.5853542 3.3916633 C 2.5864257 3.3905683 2.5881565 3.3907642 2.5892605 3.3897102 C 2.5916673 3.387377 2.5925682 3.3840269 2.5951199 3.3818977 C 2.5983726 3.3792478 2.6033813 3.3783629 2.6068386 3.3760383 C 2.6077086 3.3754424 2.6079096 3.3746596 2.6087917 3.3740852 C 2.6108954 3.3727266 2.6124842 3.3714173 2.6146511 3.370179 C 2.6163874 3.3691912 2.6187362 3.367181 2.6205105 3.3662727 C 2.6223509 3.3653487 2.6244947 3.3651592 2.6263699 3.3643196 C 2.6291708 3.3630192 2.6313055 3.3615185 2.6341824 3.3604133 C 2.6376116 3.3591286 2.6423936 3.3575146 2.6459011 3.3565071 C 2.6497906 3.3553898 2.6536613 3.3553241 2.6576199 3.354554 C 2.6597433 3.3541409 2.6613423 3.3529126 2.6634792 3.3526008 C 2.6647155 3.3524205 2.6661452 3.3527434 2.6673855 3.3526008 C 2.6711839 3.3521642 2.6752803 3.3507333 2.6791042 3.3506477 z M 15.823635 3.3506477 C 15.830226 3.3506579 15.836668 3.351649 15.843167 3.3526008 C 15.85114 3.3537686 15.858952 3.3559194 15.866604 3.3584602 C 15.868154 3.3589644 15.868979 3.3598538 15.87051 3.3604133 C 15.873882 3.3616556 15.877004 3.3628137 15.880276 3.3643196 C 15.889849 3.3687099 15.899202 3.3753032 15.90762 3.3818977 C 15.910911 3.3844675 15.914318 3.3868185 15.917385 3.3897102 C 15.920337 3.392483 15.922474 3.3944555 15.925198 3.3975227 C 15.928038 3.4007034 15.930445 3.4037981 15.93301 3.4072883 C 15.935484 3.4106444 15.938624 3.4134145 15.940823 3.417054 C 15.943171 3.4209381 15.944763 3.4247617 15.946682 3.4287727 C 15.948605 3.4328117 15.951052 3.4363512 15.952542 3.4404915 C 15.954277 3.4450856 15.955235 3.4494784 15.956448 3.4541633 C 15.957513 3.458376 15.957753 3.461626 15.958401 3.4658821 C 15.959235 3.4706913 15.960043 3.4747237 15.960354 3.479554 C 15.960593 3.4838246 15.960517 3.4870165 15.960354 3.4912727 C 15.960143 3.5048696 15.956698 3.5174545 15.952542 3.5303352 C 15.951117 3.5346126 15.950477 3.537926 15.948635 3.542054 C 15.937875 3.5676388 15.919524 3.5890922 15.893948 3.604554 L 10.948635 6.6065071 C 10.905736 6.632437 10.853105 6.6306469 10.811917 6.6084602 C 10.801576 6.60289 10.793318 6.5971313 10.784573 6.588929 C 10.775828 6.5807266 10.767687 6.5703056 10.761135 6.5596321 C 10.757424 6.5535171 10.754012 6.5484692 10.75137 6.542054 C 10.74886 6.5362389 10.747163 6.5304443 10.74551 6.5244758 C 10.731713 6.473309 10.750331 6.4180293 10.792385 6.3838508 C 10.793052 6.3833336 10.79366 6.3824045 10.794339 6.3818977 C 10.798577 6.3785784 10.801343 6.376948 10.806057 6.3740852 L 15.753323 3.3721321 C 15.764493 3.3653795 15.776479 3.3597701 15.788479 3.3565071 C 15.791131 3.3557019 15.793615 3.3551611 15.796292 3.354554 C 15.798951 3.3539943 15.801432 3.3529981 15.804104 3.3526008 C 15.805406 3.3524112 15.806707 3.3527522 15.80801 3.3526008 C 15.813291 3.351988 15.81835 3.3506396 15.823635 3.3506477 z M 2.6771511 5.8291633 C 2.68152 5.8289488 2.6844809 5.8289551 2.6888699 5.8291633 C 2.6914778 5.8292616 2.6940871 5.8289115 2.6966824 5.8291633 C 2.7029988 5.8298089 2.7099725 5.8315197 2.7162136 5.8330696 C 2.7225915 5.8346786 2.7295227 5.8363127 2.7357449 5.838929 C 2.7419089 5.841512 2.7474403 5.845127 2.753323 5.8486946 L 7.6986355 8.8506477 C 7.7061477 8.8551963 7.7138268 8.8606044 7.7201199 8.8662727 C 7.7232751 8.869105 7.7250863 8.8710113 7.7279324 8.8740852 C 7.7340249 8.8805522 7.7389184 8.886227 7.7435574 8.8936165 C 7.7479298 8.9005812 7.7522455 8.9094803 7.7552761 8.917054 C 7.7567914 8.9208408 7.7580117 8.924872 7.7591824 8.9287727 C 7.7626943 8.9404749 7.7647421 8.9516614 7.7650417 8.963929 C 7.7656566 8.9891029 7.759487 9.0150246 7.7455105 9.0381477 C 7.7370558 9.0521394 7.7262793 9.0636161 7.7142605 9.073304 C 7.7113628 9.0756204 7.7095062 9.0771107 7.706448 9.0791633 C 7.7000032 9.0836339 7.6939624 9.0876162 7.6869167 9.0908821 C 7.6802856 9.0939559 7.672445 9.0967237 7.6654324 9.0986946 C 7.6584017 9.1006148 7.6512143 9.1018183 7.643948 9.1026008 C 7.6367001 9.1034339 7.6298006 9.1029405 7.6224636 9.1026008 C 7.6151266 9.1022612 7.6082591 9.1021949 7.6009792 9.1006477 C 7.5900594 9.098327 7.5781563 9.0940647 7.5677761 9.088929 C 7.5643161 9.0872171 7.5613741 9.085103 7.5580105 9.0830696 L 2.612698 6.0830696 C 2.60103 6.0760086 2.5901429 6.0673018 2.581448 6.057679 C 2.581104 6.057292 2.5817872 6.0561162 2.581448 6.0557258 C 2.5787824 6.0527163 2.5760022 6.0491656 2.5736355 6.0459602 C 2.57197 6.0437046 2.5692912 6.0424438 2.5677761 6.0401008 C 2.5666502 6.0383259 2.5668639 6.0360611 2.565823 6.0342415 C 2.5639031 6.0309543 2.5615949 6.0278978 2.5599636 6.0244758 C 2.5597391 6.0239949 2.5601825 6.0230061 2.5599636 6.0225227 C 2.5528979 6.0071974 2.5473442 5.9905248 2.5462917 5.9736946 C 2.5462569 5.9730688 2.546318 5.9723679 2.5462917 5.9717415 C 2.5450078 5.9455485 2.5511672 5.9196634 2.565823 5.8955696 C 2.5687327 5.8907321 2.5721981 5.886233 2.5755886 5.8818977 C 2.5777863 5.8791343 2.5810155 5.8766468 2.5834011 5.8740852 C 2.5849347 5.8724214 2.5857034 5.8697994 2.5873074 5.8682258 C 2.5888915 5.8666831 2.5915168 5.8657783 2.5931667 5.8643196 C 2.5958394 5.8619478 2.5981497 5.8586423 2.6009792 5.8565071 C 2.6017398 5.8559301 2.6021612 5.8551144 2.6029324 5.854554 C 2.6108144 5.8488466 2.6195153 5.8447385 2.628323 5.8408821 C 2.6315379 5.8394853 2.6347915 5.8381247 2.6380886 5.8369758 C 2.6401478 5.8362568 2.641858 5.8356421 2.643948 5.8350227 C 2.6457546 5.8344808 2.647984 5.8335367 2.6498074 5.8330696 C 2.6522629 5.8324678 2.655134 5.8315816 2.6576199 5.8311165 C 2.6641583 5.82981 2.6705335 5.8294883 2.6771511 5.8291633 z M 15.817776 5.8291633 C 15.822169 5.8289558 15.825123 5.8289466 15.829495 5.8291633 C 15.8315 5.8292515 15.833358 5.8289851 15.835354 5.8291633 C 15.837879 5.829391 15.840662 5.8307493 15.843167 5.8311165 C 15.850362 5.8321986 15.857717 5.8327963 15.864651 5.8350227 C 15.866664 5.8356525 15.868528 5.8362531 15.87051 5.8369758 C 15.877798 5.8396844 15.885222 5.8447551 15.891995 5.8486946 C 15.899714 5.8531842 15.906671 5.8583104 15.913479 5.8643196 C 15.914567 5.8652798 15.916325 5.865275 15.917385 5.8662727 C 15.919672 5.8684259 15.921094 5.8717555 15.923245 5.8740852 C 15.925184 5.8761967 15.927284 5.8776953 15.929104 5.8799446 C 15.933157 5.8849024 15.937415 5.8899311 15.940823 5.8955696 C 15.955429 5.9196611 15.96165 5.9455477 15.960354 5.9717415 C 15.960328 5.972368 15.960389 5.9730688 15.960354 5.9736946 C 15.959295 5.9905253 15.953751 6.0071969 15.946682 6.0225227 C 15.946464 6.0230061 15.946907 6.0239948 15.946682 6.0244758 C 15.94505 6.027898 15.942744 6.0309542 15.940823 6.0342415 C 15.940531 6.0347525 15.941122 6.035687 15.940823 6.0361946 C 15.940067 6.0374503 15.939668 6.0388677 15.93887 6.0401008 C 15.937354 6.0424438 15.934677 6.0437046 15.93301 6.0459602 C 15.931703 6.0477583 15.930503 6.0500801 15.929104 6.0518196 C 15.927978 6.0531971 15.926383 6.0543883 15.925198 6.0557258 C 15.924859 6.0561162 15.925542 6.057292 15.925198 6.057679 C 15.916499 6.0673015 15.905626 6.0760099 15.893948 6.0830696 L 10.948635 9.0850227 C 10.921405 9.1014025 10.890064 9.1061897 10.860745 9.1026008 C 10.848985 9.1010682 10.838546 9.0992768 10.827542 9.0947883 C 10.801014 9.0842111 10.777148 9.0644628 10.761135 9.0381477 C 10.73793 8.9997685 10.735648 8.9537221 10.75137 8.9151008 C 10.757649 8.8993524 10.766717 8.8847223 10.778714 8.8721321 C 10.782403 8.8682844 10.786242 8.8638532 10.790432 8.8604133 C 10.795036 8.8567049 10.800863 8.8537992 10.806057 8.8506477 L 15.753323 5.8486946 C 15.75853 5.8455305 15.763521 5.8432729 15.768948 5.8408821 C 15.770897 5.8400227 15.772833 5.83969 15.774807 5.838929 C 15.77817 5.8376121 15.781156 5.8360559 15.784573 5.8350227 C 15.786424 5.8344728 15.78857 5.8335386 15.790432 5.8330696 C 15.79295 5.8324434 15.795711 5.8315941 15.798245 5.8311165 C 15.804898 5.8298228 15.811123 5.8294778 15.817776 5.8291633 z M 2.6712917 8.307679 C 2.6992516 8.3051512 2.7275306 8.3115642 2.753323 8.3272102 L 7.6986355 11.329163 C 7.7026624 11.331598 7.7066743 11.334206 7.7103542 11.336976 C 7.7140407 11.339735 7.7167823 11.341735 7.7201199 11.344788 C 7.7205083 11.345139 7.7216893 11.344434 7.722073 11.344788 C 7.725045 11.347561 7.7272033 11.351568 7.7298855 11.354554 C 7.742185 11.368163 7.7513294 11.382594 7.7572292 11.399476 C 7.7615462 11.411829 7.7643938 11.42544 7.7650417 11.438538 C 7.7652839 11.442862 7.7652246 11.44591 7.7650417 11.450257 C 7.7647289 11.459653 7.7634398 11.468321 7.7611355 11.477601 C 7.7600774 11.481904 7.7587376 11.485084 7.7572292 11.48932 C 7.7541128 11.498418 7.7507021 11.506158 7.7455105 11.51471 C 7.7418744 11.52075 7.7381578 11.527032 7.7337917 11.532288 C 7.7294311 11.53755 7.7251073 11.541492 7.7201199 11.54596 C 7.7049173 11.559799 7.6865477 11.569508 7.6673855 11.575257 C 7.661147 11.577176 7.656253 11.57815 7.6498074 11.579163 C 7.6232714 11.583127 7.5952385 11.579975 7.5697292 11.567445 C 7.5654845 11.565435 7.5621123 11.564081 7.5580105 11.561585 L 2.612698 8.5596321 C 2.5984719 8.5510198 2.5873184 8.5407018 2.5775417 8.5283821 C 2.5751199 8.5254489 2.571881 8.5236669 2.5697292 8.5205696 C 2.5523507 8.4949935 2.5439598 8.4634079 2.5462917 8.432679 C 2.5463433 8.4320675 2.5462316 8.4313372 2.5462917 8.4307258 C 2.5463512 8.430064 2.5462224 8.4294343 2.5462917 8.4287727 C 2.5473563 8.4193156 2.5509264 8.4106682 2.5541042 8.401429 C 2.5571899 8.3924576 2.5606607 8.3825626 2.565823 8.3740852 C 2.570504 8.3663033 2.5775152 8.3590738 2.5834011 8.3526008 C 2.5837512 8.3522238 2.5830472 8.3510203 2.5834011 8.3506477 C 2.5866222 8.3471788 2.5896473 8.3439534 2.5931667 8.3408821 C 2.5938046 8.3403356 2.594473 8.339463 2.5951199 8.338929 C 2.598714 8.3359221 2.6029872 8.3337109 2.6068386 8.3311165 C 2.6076562 8.3305606 2.6079637 8.3297011 2.6087917 8.3291633 C 2.6113678 8.3275018 2.6139323 8.3267344 2.6166042 8.3252571 C 2.6174632 8.324778 2.6176896 8.3237645 2.6185574 8.323304 C 2.6217094 8.321645 2.6250605 8.3208006 2.628323 8.3193977 C 2.6314147 8.3180491 2.6349202 8.3166111 2.6380886 8.3154915 C 2.6484592 8.311937 2.6603568 8.3086676 2.6712917 8.307679 z M 15.817776 8.307679 C 15.822168 8.3074707 15.825124 8.3074645 15.829495 8.307679 C 15.831499 8.3077666 15.833359 8.3075012 15.835354 8.307679 C 15.837879 8.3079051 15.840662 8.3092668 15.843167 8.3096321 C 15.850361 8.3107121 15.857718 8.311314 15.864651 8.3135383 C 15.868815 8.3148371 15.872342 8.3157504 15.87637 8.3174446 C 15.880148 8.319033 15.884453 8.3213742 15.888089 8.323304 C 15.897311 8.3282377 15.905501 8.3357655 15.913479 8.3428352 C 15.914567 8.3437956 15.916325 8.3437903 15.917385 8.3447883 C 15.91953 8.3468229 15.921221 8.3484563 15.923245 8.3506477 C 15.925556 8.3531097 15.926956 8.3558056 15.929104 8.3584602 C 15.933028 8.3632985 15.937509 8.3686001 15.940823 8.3740852 C 15.945692 8.3821077 15.9495 8.3890113 15.952542 8.3975227 C 15.95273 8.3980355 15.95236 8.3989617 15.952542 8.3994758 C 15.956733 8.4117146 15.95976 8.4240045 15.960354 8.4365852 C 15.960388 8.4372006 15.960329 8.437923 15.960354 8.4385383 C 15.96048 8.4422977 15.960539 8.4465135 15.960354 8.4502571 C 15.960328 8.450883 15.960389 8.4515849 15.960354 8.4522102 C 15.959844 8.4603241 15.95838 8.467771 15.956448 8.4756477 C 15.956307 8.4762439 15.956597 8.4770066 15.956448 8.4776008 C 15.953317 8.4897081 15.947179 8.501859 15.940823 8.5127571 C 15.938385 8.5169371 15.935904 8.5205492 15.93301 8.5244758 C 15.931703 8.5262757 15.930504 8.5285935 15.929104 8.5303352 C 15.927978 8.5317162 15.926383 8.5329003 15.925198 8.5342415 C 15.924859 8.5346325 15.925542 8.535807 15.925198 8.5361946 C 15.919498 8.5425165 15.912659 8.5465372 15.905667 8.5518196 C 15.901649 8.5549155 15.898378 8.5588939 15.893948 8.5615852 L 15.893948 8.5596321 L 10.948635 11.561585 C 10.92447 11.576191 10.896748 11.582403 10.87051 11.581116 C 10.861761 11.580749 10.8536 11.579219 10.84512 11.57721 C 10.83664 11.575201 10.82769 11.572998 10.819729 11.569398 C 10.816281 11.567811 10.81328 11.565415 10.809964 11.563538 C 10.809525 11.563286 10.808447 11.563796 10.80801 11.563538 C 10.796985 11.557111 10.787741 11.547694 10.778714 11.538148 C 10.778405 11.537816 10.777066 11.538483 10.77676 11.538148 C 10.775218 11.536484 10.774323 11.534042 10.772854 11.532288 C 10.771356 11.530468 10.770363 11.528345 10.768948 11.526429 C 10.766165 11.522746 10.763585 11.520695 10.761135 11.516663 C 10.759327 11.513684 10.756829 11.509955 10.755276 11.506898 C 10.755009 11.506356 10.755535 11.505488 10.755276 11.504945 C 10.754865 11.504112 10.753715 11.503829 10.753323 11.502991 C 10.750381 11.496707 10.749373 11.489965 10.747464 11.48346 C 10.735455 11.442552 10.744012 11.398253 10.768948 11.36432 C 10.769264 11.363896 10.768627 11.362786 10.768948 11.362366 C 10.779082 11.348894 10.790782 11.33844 10.806057 11.329163 L 15.753323 8.3272102 C 15.75853 8.3240623 15.763522 8.321778 15.768948 8.3193977 C 15.770897 8.3185396 15.772833 8.3182056 15.774807 8.3174446 C 15.77817 8.3161333 15.781157 8.3145678 15.784573 8.3135383 C 15.786424 8.3129872 15.78857 8.3120558 15.790432 8.3115852 C 15.79295 8.310961 15.795711 8.3101086 15.798245 8.3096321 C 15.804898 8.3083321 15.811124 8.3079945 15.817776 8.307679 z "
     transform="translate(2.746677,5.2059929)"
     inkscape:label="book" />
</svg>
