<?xml version="1.0" encoding="UTF-8" standalone="no"?>
<!-- Created with Inkscape (http://www.inkscape.org/) -->

<svg
   width="30.000107mm"
   height="30.000063mm"
   viewBox="0 0 30.000107 30.000063"
   version="1.1"
   id="svg1"
   inkscape:version="1.4.2 (ebf0e940, 2025-05-08)"
   sodipodi:docname="email-me.svg"
   xmlns:inkscape="http://www.inkscape.org/namespaces/inkscape"
   xmlns:sodipodi="http://sodipodi.sourceforge.net/DTD/sodipodi-0.dtd"
   xmlns="http://www.w3.org/2000/svg"
   xmlns:svg="http://www.w3.org/2000/svg">
  <sodipodi:namedview
     id="namedview1"
     pagecolor="#505050"
     bordercolor="#eeeeee"
     borderopacity="1"
     inkscape:showpageshadow="0"
     inkscape:pageopacity="0"
     inkscape:pagecheckerboard="0"
     inkscape:deskcolor="#505050"
     inkscape:document-units="mm"
     inkscape:zoom="0.11787498"
     inkscape:cx="657.47625"
     inkscape:cy="814.4222"
     inkscape:window-width="1472"
     inkscape:window-height="895"
     inkscape:window-x="0"
     inkscape:window-y="61"
     inkscape:window-maximized="0"
     inkscape:current-layer="layer1">
    <inkscape:page
       x="0"
       y="0"
       width="30.000107"
       height="30.000063"
       id="page2"
       margin="0"
       bleed="0" />
  </sodipodi:namedview>
  <defs
     id="defs1" />
  <g
     inkscape:label="Layer 1"
     inkscape:groupmode="layer"
     id="layer1"
     transform="translate(1212.3493,42.00318)">
    <path
       id="path9"
       style="fill:#917c6f;fill-opacity:1;fill-rule:nonzero;stroke:none;stroke-width:0.00379386"
       d="m -1197.3494,-42.00318 c -8.2843,0 -14.9998,6.71555 -14.9998,15.00022 0,2.8215 0.7793,5.46127 2.1344,7.71559 l -1.1245,5.07811 c -0.159,0.71628 0.48,1.35514 1.1962,1.19617 l 5.0781,-1.12447 c 2.2543,1.35555 4.8941,2.13444 7.7156,2.13444 8.2847,0 15.0002,-6.71554 15.0002,-14.99984 0,-8.27785 -6.7223,-15.00022 -15.0002,-15.00022 z m 0.1245,6.35018 c 1.6033,0 3.0301,0.32133 4.281,0.96402 1.2504,0.64268 2.2353,1.55663 2.9538,2.74146 0.7186,1.1852 1.0783,2.58971 1.0783,4.21348 v 0.0106 c 0,1.14689 -0.1502,2.10751 -0.4511,2.88146 -0.3005,0.77395 -0.7099,1.35782 -1.2281,1.75163 -0.5182,0.3938 -1.0987,0.59108 -1.7414,0.59108 -0.6495,0 -1.1867,-0.18172 -1.612,-0.54442 -0.4249,-0.36269 -0.7239,-0.80314 -0.8965,-1.32139 l -0.031,-0.0933 h -0.093 c -0.2421,0.62903 -0.6165,1.09716 -1.1245,1.40446 -0.508,0.30769 -1.0934,0.46135 -1.757,0.46135 -0.7189,0 -1.3491,-0.18322 -1.8916,-0.54933 -0.5425,-0.36611 -0.964,-0.87753 -1.2645,-1.53425 -0.3008,-0.65634 -0.4511,-1.42349 -0.4511,-2.30101 v -0.0102 c 0,-0.85021 0.1537,-1.5965 0.4614,-2.23918 0.3073,-0.64269 0.7326,-1.14536 1.2751,-1.50805 0.5421,-0.3627 1.1658,-0.54404 1.8707,-0.54404 0.5528,0 1.0608,0.13318 1.5237,0.39914 0.4628,0.26594 0.7913,0.62026 0.9848,1.06225 h 0.083 v -0.4822 c 0,-0.43212 0.3506,-0.78227 0.7827,-0.78227 0.4321,0 0.7827,0.35015 0.7827,0.78227 v 4.26544 c 0,0.71173 0.1278,1.24402 0.3835,1.59647 0.2554,0.35207 0.5873,0.52848 0.9952,0.52848 0.5455,0 0.9879,-0.3179 1.3267,-0.95375 0.3384,-0.63548 0.5076,-1.58585 0.5076,-2.85035 v -0.0103 c 0,-1.34075 -0.2883,-2.49827 -0.8654,-3.47253 -0.577,-0.97427 -1.3821,-1.72581 -2.4151,-2.2543 -1.0331,-0.52848 -2.2339,-0.79291 -3.6019,-0.79291 -0.9952,0 -1.9106,0.17603 -2.7468,0.52848 -0.8362,0.35245 -1.5616,0.85169 -2.1766,1.49779 -0.6153,0.64609 -1.0918,1.41325 -1.4306,2.30101 -0.3384,0.88815 -0.5076,1.86433 -0.5076,2.92851 v 0.0102 c 0,1.5479 0.3141,2.85908 0.9431,3.9335 0.6287,1.07481 1.4838,1.88819 2.5655,2.44095 1.0812,0.55277 2.3063,0.82937 3.6743,0.82937 0.6981,0 1.3684,-0.0452 2.0107,-0.13469 0.2406,-0.0338 0.4599,-0.0717 0.6579,-0.11418 0.4196,-0.0895 0.8142,0.23409 0.8142,0.66317 0,0.30314 -0.2004,0.57133 -0.4925,0.65176 -0.8593,0.23598 -1.8628,0.35396 -3.0112,0.35396 -1.2645,0 -2.4269,-0.18815 -3.4877,-0.56488 -1.0607,-0.37674 -1.9834,-0.93139 -2.7676,-1.6636 -0.7842,-0.73222 -1.3924,-1.63593 -1.8241,-2.71035 -0.4321,-1.07442 -0.648,-2.30628 -0.648,-3.69521 v -0.0106 c 0,-1.28536 0.2076,-2.4565 0.6219,-3.51385 0.4146,-1.05697 1.0038,-1.96942 1.7675,-2.73616 0.7633,-0.76712 1.6685,-1.35975 2.7156,-1.77783 1.0468,-0.41809 2.199,-0.62711 3.4567,-0.62711 z m -0.3628,5.80461 c -0.4628,0 -0.8585,0.11386 -1.1867,0.34187 -0.3281,0.2284 -0.5804,0.55654 -0.7568,0.98487 -0.1761,0.42871 -0.2641,0.94318 -0.2641,1.54451 v 0.0102 c 0,0.60816 0.088,1.12832 0.2641,1.56006 0.1764,0.43213 0.4287,0.76558 0.7568,1.00042 0.3282,0.23484 0.7167,0.35208 1.1659,0.35208 0.7117,0 1.2785,-0.26254 1.7,-0.78761 0.4215,-0.52507 0.6324,-1.22995 0.6324,-2.1143 v -0.0107 c 0,-0.88435 -0.2109,-1.5858 -0.6324,-2.10404 -0.4215,-0.51825 -0.9811,-0.77741 -1.6792,-0.77741 z"
       inkscape:label="email me" />
  </g>
</svg>
