<?xml version="1.0" encoding="UTF-8" standalone="no"?>
<svg
   role="img"
   viewBox="0 0 24 24"
   version="1.1"
   id="svg1"
   sodipodi:docname="project.svg"
   inkscape:version="1.4.2 (ebf0e940, 2025-05-08)"
   xmlns:inkscape="http://www.inkscape.org/namespaces/inkscape"
   xmlns:sodipodi="http://sodipodi.sourceforge.net/DTD/sodipodi-0.dtd"
   xmlns="http://www.w3.org/2000/svg"
   xmlns:svg="http://www.w3.org/2000/svg"
   xmlns:rdf="http://www.w3.org/1999/02/22-rdf-syntax-ns#"
   xmlns:cc="http://creativecommons.org/ns#"
   xmlns:dc="http://purl.org/dc/elements/1.1/">
  <sodipodi:namedview
     id="namedview1"
     pagecolor="#505050"
     bordercolor="#eeeeee"
     borderopacity="1"
     inkscape:showpageshadow="0"
     inkscape:pageopacity="0"
     inkscape:pagecheckerboard="0"
     inkscape:deskcolor="#505050"
     inkscape:zoom="6.0793403"
     inkscape:cx="18.25856"
     inkscape:cy="16.613645"
     inkscape:window-width="1472"
     inkscape:window-height="895"
     inkscape:window-x="0"
     inkscape:window-y="61"
     inkscape:window-maximized="0"
     inkscape:current-layer="svg1" />
  <defs
     id="defs1" />
  <title
     id="title1">Apple</title>
  <metadata
     id="metadata1">
    <rdf:RDF>
      <cc:Work
         rdf:about="">
        <dc:title>Apple</dc:title>
      </cc:Work>
    </rdf:RDF>
  </metadata>
  <path
     id="path32-41"
     d="m 17.242866,4.5074919 h 1.501088 c 0.411581,0 0.754524,-0.3367252 0.754524,-0.7490519 V 0.75278225 c 0,-0.4115806 -0.342943,-0.752782 -0.754524,-0.752782 h -1.501088 c -0.415062,0 -0.753528,0.3412014 -0.753528,0.752782 V 3.75844 c 0,0.4123266 0.338466,0.7490518 0.753528,0.7490519 z m 5.247342,4.5007772 c 0,-2.8882764 -16.8613771,-1.5028288 -19.4932549,-1.5028288 -0.8229121,0 -1.5028286,0.6781754 -1.5028286,1.5028288 V 20.99683 c 0,0.829876 0.6799165,1.500093 1.5028286,1.500093 H 20.986385 c 0.838829,0 1.503823,-0.670217 1.503823,-1.500093 z m 1.50457,-3.0073986 V 20.99683 C 23.994778,22.655836 22.648872,24 20.986385,24 H 2.996953 C 1.3379475,24 0.00522215,22.655836 0.00522215,20.99683 V 6.0008705 c 0,-1.6495555 1.33272535,-2.9934719 2.99173085,-2.9934719 H 3.7504815 V 3.75844 c 0,0.8236587 0.6659899,1.4879075 1.5010881,1.4879075 h 1.4933785 c 0.8229128,0 1.5000933,-0.6642488 1.5000933,-1.4879075 V 3.0073986 H 15.749736 V 3.75844 c 0,0.8236587 0.665741,1.4879075 1.49313,1.4879075 h 1.501088 c 0.826394,0 1.50283,-0.6642488 1.50283,-1.4879075 V 3.0073986 h 0.739601 c 1.662487,0 3.008393,1.3439164 3.008393,2.9934719 z M 4.30854,9.9522934 h 15.163576 c 0.169109,0 0.327276,0.074607 0.437693,0.1840296 v 0 c 0.109424,0.109424 0.179057,0.26759 0.179057,0.423021 v 0.786852 c 0,0.174083 -0.06963,0.329016 -0.179057,0.437942 v 0 c -0.109423,0.109423 -0.26759,0.18403 -0.437693,0.18403 H 4.30854 c -0.1740825,0 -0.3280213,-0.07461 -0.4369469,-0.18403 v 0 C 3.76217,11.674715 3.6875631,11.520776 3.6875631,11.346196 v -0.786852 c 0,-0.154188 0.074606,-0.313349 0.18403,-0.423021 v 0 C 3.9810162,10.0269 4.1347062,9.9522934 4.30854,9.9522934 Z m 0,2.9091666 h 15.163576 c 0.169109,0 0.327276,0.07212 0.437693,0.181543 v 0.02487 c 0.109424,0.109423 0.179057,0.266595 0.179057,0.436698 v 0.778398 c 0,0.164135 -0.06963,0.324539 -0.179057,0.43247 v 0 c -0.109423,0.119372 -0.26759,0.181544 -0.437693,0.181544 H 4.30854 c -0.1740825,0 -0.3280213,-0.07212 -0.4369469,-0.181544 v 0 C 3.76217,14.608499 3.6875631,14.44685 3.6875631,14.282964 v -0.778397 c 0,-0.169109 0.074606,-0.328021 0.18403,-0.436698 v -0.02487 C 3.9810162,12.93358 4.1347062,12.861461 4.30854,12.86146 Z m 0,2.909166 h 15.163576 c 0.169109,0 0.327276,0.06963 0.437693,0.179056 v 0.02487 c 0.109424,0.109423 0.179057,0.267341 0.179057,0.436698 v 0.779144 c 0,0.164135 -0.06963,0.323793 -0.179057,0.432471 v 0 c -0.109423,0.124345 -0.26759,0.18403 -0.437693,0.18403 H 4.30854 c -0.1740825,0 -0.3280213,-0.05968 -0.4369469,-0.18403 v 0 c -0.1094231,-0.109423 -0.18403,-0.26759 -0.18403,-0.432471 v -0.779143 c 0,-0.169109 0.074606,-0.328021 0.18403,-0.436698 v -0.02487 C 3.9810162,15.840259 4.1347062,15.770626 4.30854,15.770626 Z m 0,2.90842 h 15.163576 c 0.169109,0 0.327276,0.07461 0.437693,0.181543 v 0 c 0.109424,0.109423 0.179057,0.267589 0.179057,0.436948 v 0.777401 c 0,0.166623 -0.06963,0.323545 -0.179057,0.434212 v 0 c -0.109423,0.114397 -0.26759,0.174082 -0.437693,0.174082 H 4.30854 c -0.1740825,0 -0.3280213,-0.05968 -0.4369469,-0.174082 v 0 C 3.76217,20.399727 3.6875631,20.241561 3.6875631,20.074938 v -0.777401 c 0,-0.16911 0.074606,-0.327276 0.18403,-0.436948 v 0 C 3.9810162,18.751167 4.1347062,18.679046 4.30854,18.679046 Z M 5.2515696,4.5074919 h 1.4933785 c 0.4088455,0 0.7507931,-0.3367252 0.7507931,-0.7490519 V 0.75278225 C 7.4957412,0.34120165 7.1537936,2.5e-7 6.7449481,2.5e-7 H 5.2515696 c -0.4220257,0 -0.750047,0.3412014 -0.750047,0.752782 V 3.75844 c 0,0.4123266 0.3280213,0.7490518 0.750047,0.7490518 v 0"
     style="fill:#917c6f;fill-opacity:1;fill-rule:evenodd;stroke:none;stroke-width:0.0877318"
     inkscape:label="project" />
</svg>
