<?xml version="1.0" encoding="UTF-8" standalone="no"?>
<!-- Created with Inkscape (http://www.inkscape.org/) -->

<svg
   width="84.663567mm"
   height="84.676392mm"
   viewBox="0 0 84.663567 84.676392"
   version="1.1"
   id="svg1"
   inkscape:version="1.4.2 (ebf0e940, 2025-05-08)"
   sodipodi:docname="logo-plain.svg"
   xmlns:inkscape="http://www.inkscape.org/namespaces/inkscape"
   xmlns:sodipodi="http://sodipodi.sourceforge.net/DTD/sodipodi-0.dtd"
   xmlns="http://www.w3.org/2000/svg"
   xmlns:svg="http://www.w3.org/2000/svg">
  <sodipodi:namedview
     id="namedview1"
     pagecolor="#505050"
     bordercolor="#eeeeee"
     borderopacity="1"
     inkscape:showpageshadow="0"
     inkscape:pageopacity="0"
     inkscape:pagecheckerboard="0"
     inkscape:deskcolor="#505050"
     inkscape:document-units="mm"
     inkscape:zoom="0.90118379"
     inkscape:cx="150.91261"
     inkscape:cy="163.11878"
     inkscape:window-width="1472"
     inkscape:window-height="895"
     inkscape:window-x="0"
     inkscape:window-y="61"
     inkscape:window-maximized="0"
     inkscape:current-layer="svg1">
    <inkscape:page
       x="0"
       y="0"
       width="84.663567"
       height="84.676392"
       id="page2"
       margin="0"
       bleed="0" />
  </sodipodi:namedview>
  <defs
     id="defs1" />
  <path
     id="path30-5-7-1-7-4-2-1-4-1-4-8-4-8-6-6-6-9-7"
     style="font-size:121.133px;font-family:Brooch;-inkscape-font-specification:Brooch;letter-spacing:12.8715px;word-spacing:3.2179px;baseline-shift:baseline;display:inline;overflow:visible;mix-blend-mode:normal;vector-effect:none;fill:#917c6f;stroke-width:0.343371;enable-background:accumulate;stop-color:#000000"
     d="m 42.268898,0.00969128 c -0.0082,0.00466 -0.0192,0.0096 -0.02853,0.023039 L 29.009581,20.221764 c -9.987755,0.0879 -18.646918,0.278417 -22.875154,0.571536 -0.019199,0.0047 -0.095722,0.13338 -0.086671,0.153155 3.7054666,7.217185 7.238139,14.01108 10.728025,20.531193 L 6.0559842,62.813538 c -0.00823,0.01399 -0.00823,0.02496 -0.00823,0.03398 0,0.0082 0.058969,0.106118 0.064729,0.112097 0.00549,0.0066 0.013714,0.01097 0.033462,0.01097 L 29.54963,64.315829 c 3.986599,6.768743 8.116096,13.423114 12.569513,20.170026 0.03812,0.05713 0.0757,0.114235 0.11355,0.171422 0.0082,0.0096 0.02469,0.01234 0.03346,0.01289 0,5.5e-5 0.0288,0 0.06747,0 0.0384,0 0.06802,5.5e-5 0.06802,0 v 0 c 0.0082,0 0.02469,-0.0047 0.0288,-0.01289 0.03812,-0.05719 0.07543,-0.114291 0.113276,-0.171422 4.453965,-6.746912 8.583462,-13.40131 12.570062,-20.170026 l 23.404231,-1.345241 c 0.0192,0 0.02468,-0.0047 0.03346,-0.01097 0.0055,-0.0063 0.06363,-0.104197 0.065,-0.112097 0,-0.0085 0,-0.01975 -0.0082,-0.03398 L 67.888455,41.477154 c 3.489612,-6.520003 7.021736,-13.313651 10.727477,-20.530699 0.0082,-0.01975 -0.06802,-0.15129 -0.08695,-0.153155 -4.22878,-0.293174 -12.887394,-0.483686 -22.874875,-0.571536 L 42.423041,0.03273048 c -0.0082,-0.012891 -0.0192,-0.020571 -0.02468,-0.023039 -0.0082,-0.00466 -0.122053,-0.00466 -0.129458,0 z M 9.1594153,22.67176 c 0.2836012,0.166623 0.5545857,0.274632 0.6412569,0.274632 1.6991388,-0.08143 8.6668418,-0.150714 17.5777898,-0.189497 -0.675267,1.423053 -1.152233,5.287051 -1.206265,9.834462 -3.896911,2.316671 -6.995679,4.657615 -7.894756,5.956558 C 13.987219,30.931111 10.596346,24.836701 9.714001,23.099329 9.6709397,23.017649 9.4430165,22.838383 9.1594153,22.67176 Z m 66.3415657,0 c -0.283875,0.166623 -0.512347,0.345889 -0.55486,0.427569 -0.881797,1.736906 -4.271297,7.828518 -8.5596,15.44236 -0.904836,-1.300232 -4.000313,-3.637638 -7.890916,-5.950579 -0.05403,-4.55158 -0.531547,-8.418403 -1.208185,-9.838192 7.2247,0.03256 13.585156,0.09446 17.57203,0.193474 0.08667,0 0.357656,-0.108009 0.641531,-0.274632 z m -33.4153,0.0517 c 0.164292,-2.7e-5 0.328857,5.5e-5 0.493148,0 0.0055,0.07685 0.01371,0.150111 0.0192,0.219201 0.0082,0.07883 0.04772,0.198411 0.08749,0.265499 0.06473,0.103293 0.134669,0.202964 0.207901,0.300415 0.04772,0.06325 0.143172,0.145503 0.211466,0.185053 l 14.583521,8.429128 c 0.270436,0.156831 0.538404,0.314183 0.803354,0.471562 v 0 c 0,0.307107 0.0055,0.616545 0.0055,0.928589 l -0.0055,16.865824 c 0,0.07913 0.0192,0.203294 0.05348,0.276169 0.048,0.112233 0.09956,0.2223 0.156611,0.330036 0.0384,0.0698 0.121779,0.162207 0.185411,0.20908 0.07378,0.05285 0.153594,0.10897 0.238345,0.167967 -0.07899,0.139579 -0.158531,0.27913 -0.237797,0.418655 -0.09435,-0.04451 -0.184039,-0.08618 -0.26687,-0.123946 -0.07214,-0.03209 -0.194736,-0.05938 -0.273727,-0.05664 -0.121779,0.0047 -0.242735,0.01481 -0.363416,0.02968 -0.07899,0.0096 -0.197478,0.05123 -0.265773,0.09081 l -14.579132,8.436999 c -0.270436,0.156118 -0.54005,0.309246 -0.807743,0.459988 -0.267967,-0.150742 -0.53758,-0.30387 -0.808016,-0.459988 L 26.944009,51.730545 c -0.06802,-0.03974 -0.187056,-0.08135 -0.265773,-0.09081 -0.120956,-0.01481 -0.241637,-0.02523 -0.363415,-0.02968 -0.07844,-0.0047 -0.201045,0.02496 -0.273179,0.05664 -0.0853,0.03878 -0.176908,0.0811 -0.273453,0.126908 -0.07899,-0.139223 -0.157983,-0.278418 -0.236975,-0.41764 0.08695,-0.06042 0.168406,-0.117939 0.243557,-0.171944 0.06418,-0.04693 0.148932,-0.139277 0.185959,-0.20908 0.05678,-0.107736 0.108065,-0.217803 0.155515,-0.330036 0.03346,-0.07288 0.05458,-0.19704 0.05458,-0.276169 l -0.0055,-16.865824 c 0,-0.312373 0,-0.622168 0.0055,-0.929603 0.264402,-0.156996 0.531546,-0.314046 0.801434,-0.470548 l 14.583246,-8.429128 c 0.06857,-0.03974 0.164291,-0.121805 0.211741,-0.185053 0.07378,-0.09745 0.143172,-0.197122 0.207901,-0.300415 0.04306,-0.06709 0.07899,-0.186672 0.08804,-0.265499 0.0055,-0.06909 0.0082,-0.142349 0.0192,-0.219201 z m 0.248494,37.90802 c 4.133886,2.325256 7.854163,3.879138 9.303162,3.880866 -4.497575,7.854108 -8.146541,14.151811 -9.212102,15.838525 -0.048,0.07833 -0.0949,0.700473 -0.0949,0.700473 0,0 -0.048,-0.62214 -0.09572,-0.700473 -1.065287,-1.686714 -4.714802,-7.984417 -9.211554,-15.838525 1.443514,0.0047 5.169825,-1.551304 9.311116,-3.880866 z"
     inkscape:label="Plain Logo" />
</svg>
