<?xml version="1.0" encoding="UTF-8" standalone="no"?>
<!-- Created with Inkscape (http://www.inkscape.org/) -->

<svg
   width="20.000328mm"
   height="59.999958mm"
   viewBox="0 0 20.000328 59.999958"
   version="1.1"
   id="svg1"
   inkscape:version="1.4.2 (ebf0e940, 2025-05-08)"
   sodipodi:docname="Menu Scatch.svg"
   xmlns:inkscape="http://www.inkscape.org/namespaces/inkscape"
   xmlns:sodipodi="http://sodipodi.sourceforge.net/DTD/sodipodi-0.dtd"
   xmlns="http://www.w3.org/2000/svg"
   xmlns:svg="http://www.w3.org/2000/svg">
  <sodipodi:namedview
     id="namedview1"
     pagecolor="#505050"
     bordercolor="#eeeeee"
     borderopacity="1"
     inkscape:showpageshadow="0"
     inkscape:pageopacity="0"
     inkscape:pagecheckerboard="0"
     inkscape:deskcolor="#505050"
     inkscape:document-units="mm"
     inkscape:zoom="0.11787498"
     inkscape:cx="-2239.661"
     inkscape:cy="644.75088"
     inkscape:window-width="1472"
     inkscape:window-height="923"
     inkscape:window-x="0"
     inkscape:window-y="33"
     inkscape:window-maximized="0"
     inkscape:current-layer="layer1">
    <inkscape:page
       x="0"
       y="0"
       width="20.000328"
       height="59.999958"
       id="page2"
       margin="0"
       bleed="0" />
  </sodipodi:namedview>
  <defs
     id="defs1" />
  <g
     inkscape:label="Layer 1"
     inkscape:groupmode="layer"
     id="layer1"
     transform="translate(1291.7841,-166.84824)">
    <rect
       style="fill:#000000;stroke:none;stroke-width:0.477677;stroke-linecap:round;stroke-linejoin:round;stroke-miterlimit:19.1;paint-order:fill markers stroke"
       id="rect1"
       width="1199.5223"
       height="799.52234"
       x="-1291.5452"
       y="-262.15555"
       inkscape:label="Back ground"
       inkscape:export-filename="Exports/Menu scatch.png"
       inkscape:export-xdpi="96"
       inkscape:export-ydpi="96" />
    <path
       id="rect13"
       style="fill:#917c6f;stroke:none;stroke-width:0.780568;stroke-linecap:round;stroke-linejoin:round;stroke-miterlimit:19.1;stroke-dasharray:none;paint-order:fill markers stroke"
       d="m -1291.7842,166.84823 v 59.99996 h 8 a 12,12 0 0 0 12.0003,-11.99979 v -36.00038 a 12,12 0 0 0 -12.0003,-11.99979 z m 9.9999,17.99994 a 3,3 0 0 1 3.0003,2.99982 3,3 0 0 1 -3.0003,3.00033 3,3 0 0 1 -2.9998,-3.00033 3,3 0 0 1 2.9998,-2.99982 z m 0,8.99997 a 3,3 0 0 1 3.0003,3.00033 3,3 0 0 1 -3.0003,2.99982 3,3 0 0 1 -2.9998,-2.99982 3,3 0 0 1 2.9998,-3.00033 z m 0,8.99996 a 3,3 0 0 1 3.0003,3.00034 3,3 0 0 1 -3.0003,2.99981 3,3 0 0 1 -2.9998,-2.99981 3,3 0 0 1 2.9998,-3.00034 z"
       inkscape:label="Hover to social media and music"
       sodipodi:insensitive="true" />
  </g>
</svg>
