<?xml version="1.0" encoding="UTF-8" standalone="no"?>
<!-- Created with Inkscape (http://www.inkscape.org/) -->

<svg
   width="29.999847mm"
   height="30.000227mm"
   viewBox="0 0 29.999847 30.000227"
   version="1.1"
   id="svg1"
   inkscape:version="1.4.2 (ebf0e940, 2025-05-08)"
   sodipodi:docname="Menu Scatch.svg"
   xmlns:inkscape="http://www.inkscape.org/namespaces/inkscape"
   xmlns:sodipodi="http://sodipodi.sourceforge.net/DTD/sodipodi-0.dtd"
   xmlns="http://www.w3.org/2000/svg"
   xmlns:svg="http://www.w3.org/2000/svg">
  <sodipodi:namedview
     id="namedview1"
     pagecolor="#505050"
     bordercolor="#eeeeee"
     borderopacity="1"
     inkscape:showpageshadow="0"
     inkscape:pageopacity="0"
     inkscape:pagecheckerboard="0"
     inkscape:deskcolor="#505050"
     inkscape:document-units="mm"
     inkscape:zoom="0.11787498"
     inkscape:cx="-2239.661"
     inkscape:cy="644.75088"
     inkscape:window-width="1472"
     inkscape:window-height="923"
     inkscape:window-x="0"
     inkscape:window-y="33"
     inkscape:window-maximized="0"
     inkscape:current-layer="layer1">
    <inkscape:page
       x="0"
       y="5.0513403e-14"
       width="29.999847"
       height="30.000229"
       id="page2"
       margin="0"
       bleed="0" />
  </sodipodi:namedview>
  <defs
     id="defs1" />
  <g
     inkscape:label="Layer 1"
     inkscape:groupmode="layer"
     id="layer1"
     transform="translate(1212.349,101.42439)">
    <rect
       style="fill:#000000;stroke:none;stroke-width:0.477677;stroke-linecap:round;stroke-linejoin:round;stroke-miterlimit:19.1;paint-order:fill markers stroke"
       id="rect1"
       width="1199.5223"
       height="799.52234"
       x="-1291.5452"
       y="-262.15555"
       inkscape:label="Back ground"
       inkscape:export-filename="Exports/Menu scatch.png"
       inkscape:export-xdpi="96"
       inkscape:export-ydpi="96" />
    <path
       id="path20"
       style="fill:#917c6f;fill-opacity:1;fill-rule:nonzero;stroke:none;stroke-width:0.00752729"
       d="m -1197.349,-101.42439 c -8.2842,0 -15.0001,6.71609 -15.0001,15.00063 0,8.28456 6.7159,14.9996 15.0001,14.9996 8.2843,0 14.9997,-6.71504 14.9997,-14.9996 0,-8.28454 -6.7154,-15.00063 -14.9997,-15.00063 z m 0,4.47777 c 2.9057,0 5.2612,2.35564 5.2612,5.26117 0,2.90629 -2.3555,5.26169 -5.2612,5.26169 -2.9057,0 -5.2611,-2.3554 -5.2611,-5.26169 0,-2.90553 2.3554,-5.26117 5.2611,-5.26117 z m 0,12.09796 c 5.2615,0 8.8641,3.3236 8.8641,6.68228 v 0.90485 c -0.4783,0.46218 -0.9927,0.88786 -1.5379,1.27176 -2.0728,1.45804 -4.5988,2.31459 -7.3262,2.31459 -2.7274,0 -5.2548,-0.85655 -7.3277,-2.31459 -0.5452,-0.3839 -1.0588,-0.80906 -1.5364,-1.27124 v -0.90537 c 0,-3.35868 3.7246,-6.68228 8.8641,-6.68228 z"
       inkscape:label="profile" />
  </g>
</svg>
