<?xml version="1.0" encoding="UTF-8" standalone="no"?>
<!-- Created with Inkscape (http://www.inkscape.org/) -->

<svg
   width="793.75mm"
   height="79.375mm"
   viewBox="0 0 793.74999 79.375"
   version="1.1"
   id="svg1"
   inkscape:version="1.4.2 (ebf0e940, 2025-05-08)"
   sodipodi:docname="Artan Logo.svg"
   xml:space="preserve"
   xmlns:inkscape="http://www.inkscape.org/namespaces/inkscape"
   xmlns:sodipodi="http://sodipodi.sourceforge.net/DTD/sodipodi-0.dtd"
   xmlns:xlink="http://www.w3.org/1999/xlink"
   xmlns="http://www.w3.org/2000/svg"
   xmlns:svg="http://www.w3.org/2000/svg"><sodipodi:namedview
     id="namedview1"
     pagecolor="#505050"
     bordercolor="#eeeeee"
     borderopacity="1"
     inkscape:showpageshadow="0"
     inkscape:pageopacity="0"
     inkscape:pagecheckerboard="0"
     inkscape:deskcolor="#505050"
     inkscape:document-units="px"
     inkscape:zoom="0.087205351"
     inkscape:cx="-71245.628"
     inkscape:cy="15996.725"
     inkscape:window-width="1472"
     inkscape:window-height="923"
     inkscape:window-x="1080"
     inkscape:window-y="33"
     inkscape:window-maximized="0"
     inkscape:current-layer="svg1"
     showguides="false"><inkscape:page
       x="0"
       y="0"
       width="793.75"
       height="79.375"
       id="page6"
       margin="0"
       bleed="0" /></sodipodi:namedview><defs
     id="defs1"><linearGradient
       id="swatch20"
       inkscape:swatch="solid"><stop
         style="stop-color:#ffffff;stop-opacity:1;"
         offset="0"
         id="stop20" /></linearGradient><color-profile
       name="Adobe-RGB-1998"
       xlink:href="file:///System/Library/ColorSync/Profiles/AdobeRGB1998.icc"
       id="color-profile1" /><color-profile
       name="Generic-Lab-Profile"
       xlink:href="file:///System/Library/ColorSync/Profiles/Generic%20Lab%20Profile.icc"
       id="color-profile2" /><color-profile
       name="SMPTE-RP-431-2-2007-DCI-P3"
       xlink:href="file:///System/Library/ColorSync/Profiles/DCI(P3)%20RGB.icc"
       id="color-profile3" /></defs><rect
     style="fill:#000000;fill-opacity:1;stroke-width:21.1667;stroke-linecap:round;stroke-linejoin:round;stroke-miterlimit:19.1;paint-order:stroke fill markers"
     id="rect17-1-5-3"
     width="1442.7067"
     height="1442.7067"
     x="-324.47824"
     y="-681.66602"
     inkscape:export-filename="../Exports/Clean Social Media Profile.png"
     inkscape:export-xdpi="96"
     inkscape:export-ydpi="96" /><path
     id="path30-5-7-1-7"
     style="font-size:121.133px;font-family:Brooch;-inkscape-font-specification:Brooch;letter-spacing:12.8715px;word-spacing:3.2179px;baseline-shift:baseline;display:inline;overflow:visible;mix-blend-mode:normal;vector-effect:none;fill:#917c6f;stroke-width:0.768405;enable-background:accumulate;stop-color:#000000"
     d="m 238.94024,3.0078125e-4 -38.939,5e-4 h -3.639 c -10.84,0 -19.539,6.20509991875 -19.539,13.93559921875 v 30.1393 c -0.02,0.02 -0.06,0.04 -0.08,0.059 V 73.32 c 0,3.3766 3.752,6.0549 8.486,6.0549 h 15.917 c 2.454,0 4.359,-1.3592 4.359,-3.1099 V 44.0758 c 0,-1.5624 3.181,-4.1688 3.967,-2.8293 2.027,3.4576 5.018,38.1282 35.231,38.1284 h 15.669 c 1.951,0 3.302,-1.1525 2.96,-2.5223 l -1.732,-6.9396 c -6.727,-26.9555 -61.067,-28.5838 -17.189,-28.5838 22.265,-1.237 18.947,1.8323 18.947,-9.2299 v -14.578 c 0,-16.65279922 -20.723,-17.521399218753 -24.414,-17.521399218753 z m 116.45,5e-4 c -1.082,0 -1.91,1.02809991875 -1.91,2.37039991875 V 11.2027 c 0,1.1478 0.715,1.9625 1.643,1.9358 l 27.64,-0.7994 c 2.52,-0.073 4.681,2.3941 4.681,5.5144 v 54.3186 c 0,4.0113 2.576,7.2027 5.811,7.2027 h 7.24 c 3.236,0 5.809,-3.1914 5.809,-7.2027 V 17.8535 c 0,-3.1203 2.162,-5.5872 4.681,-5.5144 l 27.643,0.7994 c 0.924,0.058 1.642,-0.788 1.642,-1.9358 V 2.3712007 c 0,-1.3423 -0.83,-2.37039991875 -1.912,-2.37039991875 z M 52.10024,0.02980078 h -23.476 c -1.437,0 -2.644,0.7005 -2.985,1.73119992 l -1.611,4.8855 L 0.01323957,78.9258 a 0.45483456,0.33557723 0 0 0 0.442,0.4154 H 3.6902396 a 0.73762723,0.54422184 0 0 0 0.716,-0.4159 l 1.862,-5.6483 c 0.519,-1.5765 2.477,-2.712 4.6760004,-2.712 h 42.126 c 1.563,-0.1905 3.211,0.2388 4.244,1.1731 0.367,0.3319 0.626,0.7207 0.76,1.1374 1.219,3.8042 5.779,6.4657 11.077,6.4657 h 17.168 c 0.384,0 0.535,-0.1398 0.447,-0.4154 L 63.50524,6.6268007 v 0.016 c -1.285,-3.8968 -5.97,-6.61659992 -11.405,-6.61659992 z m 530.219,0 h -23.475 c -1.438,0 -2.645,0.7005 -2.986,1.73119992 l -1.611,4.8855 -24.015,72.2792993 a 0.45483456,0.33557723 0 0 0 0.442,0.4154 h 3.235 a 0.73762723,0.54422184 0 0 0 0.717,-0.4159 l 1.861,-5.6483 c 0.519,-1.5765 2.477,-2.712 4.677,-2.712 h 42.125 c 1.563,-0.1905 3.211,0.2388 4.244,1.1731 0.367,0.3319 0.627,0.7207 0.76,1.1374 1.219,3.8042 5.779,6.4657 11.077,6.4657 h 17.168 c 0.384,0 0.535,-0.1398 0.447,-0.4154 l -23.26,-72.2989993 v 0.016 c -1.285,-3.8968 -5.971,-6.61659992 -11.406,-6.61659992 z m 128.181,0 c -1.996,0 -3.541,1.25099992 -3.541,2.86849992 V 78.917 a 0.5279735,0.42777582 0 0 0 0.528,0.4278 h 2.864 a 0.5279735,0.42777582 0 0 0 0.527,-0.4278 V 7.7327007 c 0,-1.4878 1.586,-2.8629 3.174,-3.1094 1.588,-0.2464 3.688,0.558 4.367,1.9405 l 28.95,58.9859993 c 4.091,8.3369 14.021,13.795 25.093,13.795 h 17.746 c 1.997,0 3.541,-1.2514 3.541,-2.869 V 0.45770078 a 0.5279735,0.42777582 0 0 0 -0.528,-0.4279 h -2.791 a 0.5279735,0.42777582 0 0 0 -0.529,0.4279 V 71.6414 c 0,1.4879 -1.581,2.8626 -3.169,3.1094 -1.588,0.2469 -3.688,-0.5542 -4.368,-1.9363 l -29.01,-58.9918 c -4.1,-8.3363993 -14.032,-13.79289922 -25.108,-13.79289922 z M 32.61724,3.1531007 c 1.771,0.01 3.306,0.9042 3.716,2.1751 L 54.96024,63.3649 c 0.64,1.9943 -1.543,4.0313 -4.32,4.0313 h -36.803 c -2.789,0 -4.9730004,-2.0576 -4.3080004,-4.055 L 28.87524,5.3049007 c 0.424,-1.2687 1.971,-2.158 3.742,-2.1518 z m 530.219,0 c 1.771,0.01 3.306,0.9042 3.716,2.1751 l 18.628,58.0366993 c 0.64,1.9943 -1.544,4.0313 -4.321,4.0313 h -36.802 c -2.789,0 -4.974,-2.0576 -4.308,-4.055 l 19.345,-58.0362993 c 0.425,-1.2687 1.972,-2.158 3.742,-2.1518 z m -351.882,0.023 h 16.774 c 2.597,0 5.236,0.7472 7.09,2.0541 1.904,1.3099 3.03,3.2201 3.03,5.1045993 v 20.5755 c 0,1.8949 -1.112,3.8048 -2.99,5.1444 -1.854,1.3224 -4.516,2.0732 -7.13,2.0732 h -16.774 c -2.964,0 -5.452,-1.7739 -5.452,-3.8881 V 7.0647007 c 0,-2.1142 2.488,-3.8886 5.452,-3.8886 z" /></svg>
