<?xml version="1.0" encoding="UTF-8" standalone="no"?>
<!-- Created with Inkscape (http://www.inkscape.org/) -->

<svg
   width="793.75mm"
   height="79.375mm"
   viewBox="0 0 793.74999 79.375"
   version="1.1"
   id="svg1"
   inkscape:version="1.4.2 (ebf0e940, 2025-05-08)"
   sodipodi:docname="logo.svg"
   xml:space="preserve"
   xmlns:inkscape="http://www.inkscape.org/namespaces/inkscape"
   xmlns:sodipodi="http://sodipodi.sourceforge.net/DTD/sodipodi-0.dtd"
   xmlns:xlink="http://www.w3.org/1999/xlink"
   xmlns="http://www.w3.org/2000/svg"
   xmlns:svg="http://www.w3.org/2000/svg"><sodipodi:namedview
     id="namedview1"
     pagecolor="#505050"
     bordercolor="#eeeeee"
     borderopacity="1"
     inkscape:showpageshadow="0"
     inkscape:pageopacity="0"
     inkscape:pagecheckerboard="0"
     inkscape:deskcolor="#505050"
     inkscape:document-units="px"
     inkscape:zoom="0.091249772"
     inkscape:cx="991.7833"
     inkscape:cy="624.6591"
     inkscape:window-width="1472"
     inkscape:window-height="895"
     inkscape:window-x="0"
     inkscape:window-y="61"
     inkscape:window-maximized="0"
     inkscape:current-layer="svg1"
     showguides="false"><inkscape:page
       x="0"
       y="0"
       width="793.75"
       height="79.375"
       id="page6"
       margin="0"
       bleed="0" /></sodipodi:namedview><defs
     id="defs1"><linearGradient
       id="swatch20"
       inkscape:swatch="solid"><stop
         style="stop-color:#ffffff;stop-opacity:1;"
         offset="0"
         id="stop20" /></linearGradient><color-profile
       name="Adobe-RGB-1998"
       xlink:href="file:///System/Library/ColorSync/Profiles/AdobeRGB1998.icc"
       id="color-profile1" /><color-profile
       name="Generic-Lab-Profile"
       xlink:href="file:///System/Library/ColorSync/Profiles/Generic%20Lab%20Profile.icc"
       id="color-profile2" /><color-profile
       name="SMPTE-RP-431-2-2007-DCI-P3"
       xlink:href="file:///System/Library/ColorSync/Profiles/DCI(P3)%20RGB.icc"
       id="color-profile3" /></defs><path
     id="path1-4-7-1-1-4-4-5-4-5-4"
     style="font-size:121.133px;font-family:Brooch;-inkscape-font-specification:Brooch;letter-spacing:12.8715px;word-spacing:3.2179px;baseline-shift:baseline;display:inline;overflow:visible;mix-blend-mode:normal;vector-effect:none;fill:#917c6f;stroke-width:0.775934;enable-background:accumulate;stop-color:#000000"
     d="m 239.76865,0.05995775 v 0 h -39.72931 -3.7072 c -11.05735,0 -19.95035,6.20128995 -19.95035,13.92510025 v 30.117864 29.16717 c 0,3.37471 3.83574,6.04925 8.6573,6.04925 h 16.24315 c 2.5072,0 4.4572,-1.34903 4.4572,-3.10923 v -32.165 c 0,-1.56315 3.2358,-4.16704 4.0501,-2.82654 2.1429,3.45394 5.1215,38.10077 35.93635,38.10077 h 15.98601 c 1.9286,0 3.38575,-1.15633 3.0215,-2.52035 l -1.71435,-6.93578 c -6.85725,-26.93587 -62.31541,-28.5633 -17.55031,-28.5633 22.73611,-1.24197 19.35036,1.84159 19.35036,-9.22485 V 17.507558 C 264.8191,0.86937775 243.66869,-2.25e-6 239.8972,-2.25e-6 Z m 114.79491,0 c -1.07144,0 -1.92859,1.02781995 -1.92859,2.36830995 v 8.8265803 c 0,1.15634 0.6429,1.97001 1.71434,1.92719 l 28.20051,-0.79229 c 2.57145,0 4.77866,2.39189 4.77866,5.51178 v 54.278584 c 0,4.00861 2.63575,7.19489 5.93579,7.19489 h 7.3716 c 3.30006,0 5.93581,-3.18628 5.93581,-7.19489 V 17.901528 c 0,-3.11989 2.2072,-5.58457 4.77865,-5.51178 l 28.22195,0.79229 c 0.85715,0 1.7143,-0.79229 1.7143,-1.92719 V 2.4282677 c 0,-1.34904 -0.85715,-2.36830995 -1.9286,-2.36830995 z m 354.45643,0 c -1.92851,0 -3.62141,1.24195995 -3.62141,2.86510995 V 78.893192 c 0,0.23533 0.2145,0.4282 0.4285,0.4282 h 2.93571 c 0.2145,0 0.4285,-0.21435 0.4285,-0.4282 V 7.7580377 c 0,-1.4775 1.7143,-2.85867 3.2357,-3.1071 1.7144,-0.23532 3.77151,0.55676 4.45731,1.94862 l 29.55053,58.9445743 c 4.15721,8.33193 14.29312,13.7859 25.58614,13.7859 h 18.10752 c 2.1429,0 3.62151,-1.26334 3.62151,-2.8672 V 0.49889775 c 0,-0.23534 -0.21451,-0.4282 -0.42851,-0.4282 h -2.8499 c -0.2145,-0.002 -0.4285,0.21435 -0.4285,0.4282 V 71.629802 c 0,1.4775 -1.7143,2.86083 -3.2358,3.10925 -1.71431,0.25682 -3.77151,-0.55676 -4.45721,-1.92724 L 752.73524,13.862998 C 748.55664,5.5310678 738.42072,0.07918775 727.12761,0.07918775 Z m -679.748031,0.005 c -1.500052,0 -2.678603,0.70665 -3.042904,1.73451995 L 24.514702,6.6817077 1.1500001e-6,78.908942 c 0,0.21435 0,0.40671 0.4285009699999,0.40671 H 3.7286061 c 0.4285,0 0.642851,-0.21435 0.642851,-0.40671 l 1.928592,-5.64454 c 0.642851,-1.58457 2.528603,-2.71092 4.7786559,-2.71092 H 54.06521 c 1.500052,-0.21435 3.278654,0.23533 4.328656,1.17771 0.4285,0.32127 0.64285,0.72808 0.857151,1.1349 1.285741,3.8009 5.892947,6.45831 11.314494,6.45831 h 17.507453 c 0.4285,0 0.4285,-0.21435 0.4285,-0.40672 L 64.779614,6.6711677 C 63.493862,2.7974677 58.715216,0.09293775 53.207959,0.06296775 Z m 529.038231,0 c -1.5001,0 -2.7001,0.70665 -3.0429,1.73451995 l -1.7144,4.88223 -24.51473,72.2272343 c 0,0.21435 0,0.40671 0.4285,0.40671 h 3.3215 c 0.4285,0 0.6429,-0.21435 0.6429,-0.40671 l 1.9286,-5.64454 c 0.42851,-1.58457 2.52861,-2.71092 4.77871,-2.71092 h 42.98646 c 1.5,-0.21435 3.2786,0.23533 4.3287,1.17771 0.4285,0.32127 0.6428,0.72808 0.8571,1.1349 1.2858,3.8009 5.89301,6.45831 11.31452,6.45831 h 17.50742 c 0.4285,0 0.6429,-0.21435 0.4285,-0.40672 L 593.81784,6.6711677 c -1.2857,-3.8737 -6.04301,-6.57822995 -11.55022,-6.60819995 z M 33.364904,3.1848977 c 1.714303,0 3.364305,0.89937 3.792905,2.17345 L 56.165313,63.352152 c 0.642851,1.99143 -1.500052,4.02784 -4.414406,4.02784 H 14.185949 c -2.828593,0 -5.0571959,-2.05564 -4.3929449,-4.04923 L 29.550509,5.3348177 c 0.428501,-1.26339 1.928653,-2.15632 3.814395,-2.14992 z m 529.016796,0 c 1.7143,0 3.3643,0.89937 3.7929,2.17345 l 19.00743,57.9938043 c 0.6429,1.99143 -1.5,4.02784 -4.41431,4.02784 h -37.54355 c -2.8501,0 -5.0787,-2.05564 -4.3929,-4.04923 L 558.56729,5.3348177 c 0.4285,-1.26339 1.92861,-2.15632 3.81441,-2.14992 z m -351.28501,0 h 17.12175 c 2.63576,0 5.33581,0.74947 7.22155,2.05569 1.9286,1.30622 3.08576,3.21626 3.08576,5.0985203 v 20.563254 c 0,1.88435 -1.07146,3.80299 -3.04291,5.14134 -1.92859,1.32761 -4.60719,2.07708 -7.2644,2.07708 h -17.12175 c -3.0215,0 -5.57155,-1.77729 -5.57155,-3.88435 V 7.0799777 c 0,-2.1199 2.55005,-3.88649 5.57155,-3.88649 z"
     inkscape:label="Logo typo"
     inkscape:export-filename="../artan-website/assets/icons/ARTAN LOGOS/Logo typo.svg"
     inkscape:export-xdpi="96"
     inkscape:export-ydpi="96" /></svg>
