<?xml version="1.0" encoding="UTF-8" standalone="no"?>
<!-- Created with Inkscape (http://www.inkscape.org/) -->

<svg
   width="264.58334mm"
   height="264.58334mm"
   viewBox="0 0 264.58334 264.58334"
   version="1.1"
   id="svg1"
   xml:space="preserve"
   sodipodi:docname="01 - Neuroartan Symbol Mark.svg"
   inkscape:version="1.4.2 (ebf0e940, 2025-05-08)"
   xmlns:inkscape="http://www.inkscape.org/namespaces/inkscape"
   xmlns:sodipodi="http://sodipodi.sourceforge.net/DTD/sodipodi-0.dtd"
   xmlns:xlink="http://www.w3.org/1999/xlink"
   xmlns="http://www.w3.org/2000/svg"
   xmlns:svg="http://www.w3.org/2000/svg"><sodipodi:namedview
     id="namedview6"
     pagecolor="#505050"
     bordercolor="#eeeeee"
     borderopacity="1"
     inkscape:showpageshadow="0"
     inkscape:pageopacity="0"
     inkscape:pagecheckerboard="0"
     inkscape:deskcolor="#505050"
     inkscape:document-units="mm"
     inkscape:zoom="0.14863999"
     inkscape:cx="497.84718"
     inkscape:cy="457.48119"
     inkscape:window-width="1472"
     inkscape:window-height="895"
     inkscape:window-x="0"
     inkscape:window-y="61"
     inkscape:window-maximized="0"
     inkscape:current-layer="svg1" /><defs
     id="defs1"><linearGradient
       id="swatch20"><stop
         style="stop-color:#ffffff;stop-opacity:1;"
         offset="0"
         id="stop20" /></linearGradient><color-profile
       name="Adobe-RGB-1998"
       xlink:href="file:///System/Library/ColorSync/Profiles/AdobeRGB1998.icc"
       id="color-profile1" /><color-profile
       name="Generic-Lab-Profile"
       xlink:href="file:///System/Library/ColorSync/Profiles/Generic%20Lab%20Profile.icc"
       id="color-profile2" /><color-profile
       name="SMPTE-RP-431-2-2007-DCI-P3"
       xlink:href="file:///System/Library/ColorSync/Profiles/DCI(P3)%20RGB.icc"
       id="color-profile3" /></defs><path
     id="path112-0-37-6-4-1-3-6-9-9-4-0-8-2-3-5-5"
     style="display:inline;fill:#917c6f;fill-opacity:1;stroke:none;stroke-width:6.61458;stroke-linecap:round;stroke-linejoin:round;stroke-dasharray:none"
     d="M 132.13513,-3.8459092e-5 C 126.08113,0.01396154 120.08013,0.44906154 114.05413,1.3007616 c -1.651,0.2326 -3.515,1.6912 -4.251,3.181 -8.415,16.7648994 -26.300997,29.6929994 -31.398997,47.9027994 -0.543,2.094 -1.138,4.992 -1.585,8.3077 -0.05,0.4395 -0.1,0.9783 -0.136,1.5484 -0.07,1.1347 0.396,1.7633 1.146,1.766 0.341,0 0.738,-0.1415 1.172,-0.4259 8.587,-5.5905 16.355,-10.4696 23.027997,-13.8955 10.563,-5.4164 49.952,-5.4164 60.515,0 6.673,3.4259 14.44,8.305 23.027,13.8955 0.433,0.2844 0.832,0.4205 1.172,0.4259 v 0 c 0.751,0 1.217,-0.6313 1.146,-1.766 -0.04,-0.5701 -0.08,-1.1089 -0.136,-1.5484 -0.447,-3.3157 -1.041,-6.2137 -1.584,-8.3077 -5.099,-18.2098 -22.984,-31.1379 -31.4,-47.9027994 -0.736,-1.4898 -2.599,-2.9484 -4.25,-3.181 -6.235,-0.88170006 -12.342,-1.30760006 -18.395,-1.300800059092 z M 77.386133,12.230161 c -0.259,-0.018 -0.63,0.075 -1.101,0.2925 -50.303,23.2889 -80.725,76.0001 -75.75600001,131.165699 0.15,1.6531 0.90000001,1.781 1.62100001,0.2871 11.81,-24.1351 20.732,-38.2906 40.743,-52.376499 1.229,-0.8653 2.85,-2.6014 3.601,-3.9022 l 4.266,-7.3865 c 0.751,-1.302 1.445,-3.5714 1.58,-5.0681 2.198,-24.3664 10.001,-39.1666 25.005,-61.4596 0.641,-0.9429 0.612,-1.5143 0.04,-1.5524 z m 109.815997,0 c -0.572,0.038 -0.601,0.6082 0.04,1.5511 15.004,22.2929 22.807,37.0945 25.005,61.4609 0.136,1.4967 0.827,3.7661 1.578,5.0681 l 4.266,7.3852 c 0.751,1.3021 2.372,3.0368 3.601,3.9022 20.01,14.085899 28.932,28.242699 40.743,52.377799 0.722,1.4939 1.47,1.3646 1.62,-0.2885 4.969,-55.165599 -25.453,-107.873999 -75.755,-131.164299 -0.471,-0.2177 -0.842,-0.3102 -1.101,-0.2925 z m -54.906,55.2649 a 64.81997,64.797094 0 0 0 -64.819997,64.797199 64.81997,64.797094 0 0 0 64.819997,64.7971 64.81997,64.797094 0 0 0 64.82,-64.7971 64.81997,64.797094 0 0 0 -64.82,-64.797199 z M 44.929133,118.75046 c -0.331,0.014 -0.713,0.1524 -1.127,0.4272 -0.474,0.3198 -0.92,0.6246 -1.274,0.8926 -2.649,2.0436 -4.863,4.0082 -6.406,5.5252 -13.225,13.5186 -15.483,35.466 -25.8,51.1343 -0.922,1.3823 -1.254,3.7239 -0.63,5.2695 4.708,11.6791 10.734,21.9963 18.238,31.5788 1.027,1.3129 3.223,2.1959 4.88,2.0898 18.733,-1.098 38.877,7.9226 57.201,3.2314 2.086,-0.5769 4.894,-1.5117 7.989,-2.7824 0.408,-0.1728 0.896,-0.4068 1.41,-0.6572 1.016997,-0.5074 1.329997,-1.2245 0.956997,-1.8748 -0.17,-0.2939 -0.490997,-0.5673 -0.955997,-0.8014 -9.136,-4.6382 -17.247,-8.9239 -23.551,-12.988 -9.974,-6.4354 -29.668,-40.5354 -30.257,-52.3887 -0.369,-7.4899 -0.03,-16.6547 0.524,-26.8835 0.03,-0.517 -0.06,-0.9292 -0.217,-1.2272 v -0.014 c -0.211,-0.366 -0.551,-0.5537 -0.976,-0.536 z m 174.727997,0 c -0.424,-0.018 -0.763,0.1701 -0.974,0.5361 v 0.014 c -0.164,0.2966 -0.245,0.7102 -0.218,1.2272 0.551,10.2287 0.893,19.3935 0.524,26.8835 -0.588,11.8532 -20.282,45.9519 -30.257,52.3887 -6.305,4.064 -14.415,8.3498 -23.552,12.9879 -0.463,0.2341 -0.784,0.5062 -0.954,0.8015 -0.373,0.6503 -0.06,1.366 0.957,1.8748 0.514,0.2504 1.001,0.4844 1.408,0.6572 3.097,1.2707 5.905,2.2055 7.99,2.781 18.325,4.6913 38.468,-4.328 57.199,-3.2314 1.659,0.1075 3.855,-0.7755 4.882,-2.0884 7.504,-9.5826 13.529,-19.8997 18.238,-31.5788 0.623,-1.5456 0.291,-3.8872 -0.631,-5.2695 -10.316,-15.6683 -12.574,-37.6157 -25.8,-51.1357 -1.542,-1.517 -3.756,-3.4802 -6.405,-5.5252 -0.353,-0.2667 -0.799,-0.5714 -1.273,-0.8912 -0.415,-0.2748 -0.798,-0.4136 -1.128,-0.4273 z m -91.628,110.1163 c -1.503,0 -3.817,0.5347 -5.18,1.1674 -22.208,10.2791 -38.932997,10.9254 -65.747997,9.0817 -1.655,-0.1224 -1.918,0.5905 -0.561,1.5471 45.326997,31.9026 106.203997,31.8849 151.509997,0 1.357,-0.9566 1.093,-1.6695 -0.562,-1.5471 -26.814,1.8437 -43.538,1.1974 -65.747,-9.0817 -1.363,-0.6327 -3.677,-1.1674 -5.181,-1.1674 z"
     inkscape:label="Symbol"
     inkscape:export-filename="01 - Neuroartan Symbol Mark.png"
     inkscape:export-xdpi="96"
     inkscape:export-ydpi="96" /></svg>
