<?xml version="1.0" encoding="UTF-8" standalone="no"?>
<!-- Created with Inkscape (http://www.inkscape.org/) -->

<svg
   width="529.16669mm"
   height="26.458851mm"
   viewBox="0 0 529.16668 26.458851"
   version="1.1"
   id="svg1"
   xml:space="preserve"
   sodipodi:docname="02 - Neuroartan Wordmark.svg"
   inkscape:version="1.4.2 (ebf0e940, 2025-05-08)"
   xmlns:inkscape="http://www.inkscape.org/namespaces/inkscape"
   xmlns:sodipodi="http://sodipodi.sourceforge.net/DTD/sodipodi-0.dtd"
   xmlns:xlink="http://www.w3.org/1999/xlink"
   xmlns="http://www.w3.org/2000/svg"
   xmlns:svg="http://www.w3.org/2000/svg"><sodipodi:namedview
     id="namedview6"
     pagecolor="#505050"
     bordercolor="#eeeeee"
     borderopacity="1"
     inkscape:showpageshadow="0"
     inkscape:pageopacity="0"
     inkscape:pagecheckerboard="0"
     inkscape:deskcolor="#505050"
     inkscape:document-units="mm"
     inkscape:zoom="0.1014269"
     inkscape:cx="823.253"
     inkscape:cy="591.55904"
     inkscape:window-width="1472"
     inkscape:window-height="895"
     inkscape:window-x="0"
     inkscape:window-y="61"
     inkscape:window-maximized="0"
     inkscape:current-layer="svg1" /><defs
     id="defs1"><linearGradient
       id="swatch20"><stop
         style="stop-color:#ffffff;stop-opacity:1;"
         offset="0"
         id="stop20" /></linearGradient><color-profile
       name="Adobe-RGB-1998"
       xlink:href="file:///System/Library/ColorSync/Profiles/AdobeRGB1998.icc"
       id="color-profile1" /><color-profile
       name="Generic-Lab-Profile"
       xlink:href="file:///System/Library/ColorSync/Profiles/Generic%20Lab%20Profile.icc"
       id="color-profile2" /><color-profile
       name="SMPTE-RP-431-2-2007-DCI-P3"
       xlink:href="file:///System/Library/ColorSync/Profiles/DCI(P3)%20RGB.icc"
       id="color-profile3" /></defs><path
     id="path1-4-7-1-1-4-4-5-4-5-4-2-4-0-6-1-6-0-2-7-8-9-2-0-3"
     style="font-size:121.133px;font-family:Brooch;-inkscape-font-specification:Brooch;letter-spacing:12.8715px;word-spacing:3.2179px;baseline-shift:baseline;display:inline;overflow:visible;mix-blend-mode:normal;vector-effect:none;fill:#917c6f;fill-opacity:1;stroke-width:0.51747;enable-background:accumulate;stop-color:#000000"
     d="M -18850.499 3187.3071 C -18851.077 3187.3071 -18851.583 3187.7218 -18851.583 3188.2636 L -18851.583 3213.6197 C -18851.583 3213.6987 -18851.523 3213.7623 -18851.454 3213.7623 L -18850.576 3213.7623 C -18850.516 3213.7623 -18850.447 3213.6906 -18850.447 3213.6197 L -18850.447 3189.8775 C -18850.447 3189.3844 -18849.931 3188.9225 -18849.476 3188.8398 C -18848.963 3188.7608 -18848.347 3189.0255 -18848.14 3189.4899 L -18839.291 3209.1642 C -18838.046 3211.9452 -18835.013 3213.7655 -18831.63 3213.7655 L -18826.208 3213.7655 C -18825.567 3213.7655 -18825.125 3213.3437 -18825.125 3212.8084 L -18825.125 3187.4539 C -18825.125 3187.3749 -18825.185 3187.3107 -18825.252 3187.3107 L -18826.106 3187.3107 C -18826.166 3187.31 -18826.233 3187.3839 -18826.233 3187.4539 L -18826.233 3211.1956 C -18826.233 3211.6887 -18826.748 3212.1504 -18827.203 3212.2332 C -18827.717 3212.3192 -18828.332 3212.0474 -18828.539 3211.5899 L -18837.405 3191.9141 C -18838.657 3189.1333 -18841.692 3187.3138 -18845.074 3187.3138 L -18850.499 3187.3071 z M -18770.273 3187.3071 L -18794.723 3187.3076 C -18795.278 3187.3076 -18795.727 3187.743 -18795.727 3188.2802 L -18795.727 3212.7934 C -18795.727 3213.3304 -18795.277 3213.7655 -18794.723 3213.7655 L -18770.273 3213.7655 C -18769.72 3213.7655 -18769.269 3213.3303 -18769.269 3212.7934 L -18769.269 3211.9893 C -18769.269 3211.4521 -18769.719 3211.0163 -18770.273 3211.0163 L -18783.74 3211.0163 C -18784.073 3211.0163 -18784.346 3210.7536 -18784.346 3210.4292 L -18784.346 3205.6166 C -18784.346 3205.2927 -18784.073 3205.0303 -18783.74 3205.0321 L -18772.846 3205.0885 C -18772.292 3205.0885 -18771.841 3204.6567 -18771.841 3204.1206 L -18771.841 3200.1435 C -18771.841 3199.6066 -18772.291 3199.1709 -18772.846 3199.1705 L -18783.74 3199.1705 C -18784.073 3199.1705 -18784.346 3198.9074 -18784.346 3198.5829 L -18784.346 3190.6439 C -18784.346 3190.3194 -18784.073 3190.0563 -18783.74 3190.0563 L -18770.273 3190.0563 C -18769.719 3190.0563 -18769.269 3189.6202 -18769.269 3189.0832 L -18769.269 3188.2797 C -18769.269 3187.7426 -18769.719 3187.3071 -18770.273 3187.3071 z M -18737.934 3187.3071 C -18739.004 3187.3072 -18739.871 3188.0712 -18739.871 3189.0135 L -18739.871 3206.5282 L -18739.851 3206.5282 C -18739.851 3208.5223 -18739.047 3210.2266 -18737.44 3211.6421 C -18735.833 3213.0576 -18733.896 3213.7655 -18731.632 3213.7655 L -18731.225 3213.7655 L -18731.145 3213.7655 L -18729.646 3213.7655 L -18723.636 3213.7655 L -18722.137 3213.7655 L -18722.057 3213.7655 L -18721.651 3213.7655 C -18719.387 3213.7655 -18717.45 3213.0576 -18715.843 3211.6421 C -18714.236 3210.2266 -18713.432 3208.5223 -18713.432 3206.5282 L -18713.412 3206.5282 L -18713.412 3189.0135 C -18713.412 3188.0712 -18714.279 3187.3072 -18715.349 3187.3071 L -18717.597 3187.3071 C -18720.016 3187.3067 -18722.013 3189.2019 -18722.137 3191.618 L -18722.137 3210.8705 A 1.8181922 1.8181797 0 0 1 -18723.955 3212.6885 L -18729.326 3212.6885 A 1.8181922 1.8181797 0 0 1 -18731.145 3210.8705 L -18731.145 3191.618 C -18731.269 3189.2019 -18733.266 3187.3067 -18735.685 3187.3071 L -18737.934 3187.3071 z M -18665.047 3187.3071 L -18665.087 3187.3273 L -18676.949 3187.3273 L -18678.056 3187.3273 C -18681.357 3187.3273 -18684.013 3189.3955 -18684.013 3191.9719 L -18684.013 3202.0184 L -18684.013 3211.7465 C -18684.013 3212.8722 -18682.867 3213.7655 -18681.427 3213.7655 L -18676.579 3213.7655 C -18675.829 3213.7655 -18675.247 3213.3155 -18675.247 3212.7283 L -18675.247 3201.9992 C -18675.247 3201.4778 -18674.28 3200.6089 -18674.038 3201.0561 C -18673.398 3202.2082 -18672.508 3213.7655 -18663.307 3213.7655 L -18658.535 3213.7655 C -18657.959 3213.7655 -18657.525 3213.3801 -18657.633 3212.9252 L -18658.145 3210.6111 C -18660.191 3201.6261 -18676.75 3201.0835 -18663.386 3201.0835 C -18656.596 3200.6693 -18657.608 3201.6975 -18657.608 3198.0067 L -18657.608 3193.1471 C -18657.608 3187.5983 -18663.92 3187.3072 -18665.047 3187.3071 z M -18621.535 3187.3071 C -18623.36 3187.3071 -18624.92 3188.0148 -18626.214 3189.4305 C -18627.509 3190.846 -18628.157 3192.5507 -18628.157 3194.5449 L -18628.157 3206.5276 C -18628.157 3208.5216 -18627.509 3210.2266 -18626.214 3211.6426 C -18624.92 3213.0576 -18623.36 3213.7655 -18621.535 3213.7655 L -18608.32 3213.7655 C -18606.495 3213.7655 -18604.935 3213.0576 -18603.641 3211.6426 C -18602.347 3210.2266 -18601.699 3208.5216 -18601.699 3206.5276 L -18601.699 3194.5449 C -18601.699 3192.5508 -18602.347 3190.846 -18603.641 3189.4305 C -18604.935 3188.0149 -18606.495 3187.3071 -18608.32 3187.3071 L -18621.535 3187.3071 z M -18497.478 3187.3071 L -18497.518 3187.3273 L -18509.38 3187.3273 L -18510.487 3187.3273 C -18513.788 3187.3273 -18516.444 3189.3955 -18516.444 3191.9719 L -18516.444 3202.0184 L -18516.444 3211.7465 C -18516.444 3212.8722 -18515.298 3213.7655 -18513.858 3213.7655 L -18509.01 3213.7655 C -18508.26 3213.7655 -18507.678 3213.3155 -18507.678 3212.7283 L -18507.678 3201.9992 C -18507.678 3201.4778 -18506.711 3200.6089 -18506.469 3201.0561 C -18505.829 3202.2082 -18504.939 3213.7655 -18495.738 3213.7655 L -18490.966 3213.7655 C -18490.39 3213.7655 -18489.956 3213.3801 -18490.064 3212.9252 L -18490.576 3210.6111 C -18492.622 3201.6261 -18509.181 3201.0835 -18495.817 3201.0835 C -18489.027 3200.6693 -18490.039 3201.6975 -18490.039 3198.0067 L -18490.039 3193.1471 C -18490.039 3187.5983 -18496.351 3187.3072 -18497.478 3187.3071 z M -18446.83 3187.3071 L -18447.888 3187.3076 L -18460.012 3187.3082 C -18460.33 3187.3082 -18460.584 3187.6469 -18460.588 3188.0895 L -18460.588 3188.0998 L -18460.588 3191.0438 L -18460.588 3191.0542 C -18460.588 3191.4314 -18460.393 3191.4368 -18460.074 3191.4226 L -18451.66 3191.4226 C -18450.892 3191.4226 -18450.233 3192.2201 -18450.233 3193.2608 L -18450.233 3211.3646 C -18450.233 3212.7017 -18449.445 3213.7655 -18448.462 3213.7655 L -18447.888 3213.7655 L -18446.83 3213.7655 L -18446.255 3213.7655 C -18445.272 3213.7655 -18444.483 3212.7011 -18444.483 3211.364 L -18444.483 3193.2608 C -18444.483 3192.2201 -18443.825 3191.4226 -18443.058 3191.4226 L -18434.642 3191.4226 C -18434.323 3191.4366 -18434.13 3191.433 -18434.13 3191.0537 L -18434.13 3191.0433 L -18434.13 3188.0993 L -18434.13 3188.089 C -18434.13 3187.6464 -18434.387 3187.3076 -18434.705 3187.3076 L -18446.83 3187.3071 z M -18347.791 3187.3071 C -18348.369 3187.3071 -18348.875 3187.7218 -18348.875 3188.2636 L -18348.875 3213.6197 C -18348.875 3213.6987 -18348.815 3213.7623 -18348.746 3213.7623 L -18347.868 3213.7623 C -18347.808 3213.7623 -18347.739 3213.6906 -18347.739 3213.6197 L -18347.739 3189.8775 C -18347.739 3189.3844 -18347.223 3188.9225 -18346.768 3188.8398 C -18346.255 3188.7608 -18345.639 3189.0255 -18345.432 3189.4899 L -18336.583 3209.1642 C -18335.338 3211.9452 -18332.305 3213.7655 -18328.922 3213.7655 L -18323.5 3213.7655 C -18322.858 3213.7655 -18322.416 3213.3437 -18322.416 3212.8084 L -18322.416 3187.4539 C -18322.416 3187.3749 -18322.476 3187.3107 -18322.543 3187.3107 L -18323.397 3187.3107 C -18323.457 3187.31 -18323.525 3187.3838 -18323.525 3187.4539 L -18323.525 3211.1956 C -18323.525 3211.6887 -18324.04 3212.1504 -18324.495 3212.2332 C -18325.009 3212.3192 -18325.624 3212.0474 -18325.831 3211.5899 L -18334.697 3191.9141 C -18335.949 3189.1333 -18338.984 3187.3138 -18342.366 3187.3138 L -18347.791 3187.3071 z M -18563.56 3187.3087 C -18564.008 3187.3087 -18564.367 3187.5444 -18564.469 3187.8874 L -18564.981 3189.5168 L -18572.301 3213.6259 C -18572.301 3213.6979 -18572.301 3213.7618 -18572.173 3213.7618 L -18571.181 3213.7618 C -18571.055 3213.7618 -18570.989 3213.6897 -18570.989 3213.6259 L -18570.415 3211.7418 C -18570.286 3211.213 -18569.658 3210.8369 -18568.987 3210.8369 L -18556.15 3210.8369 C -18555.702 3210.7649 -18555.172 3210.9162 -18554.858 3211.2302 C -18554.73 3211.3376 -18554.666 3211.4733 -18554.602 3211.609 C -18554.218 3212.8777 -18552.841 3213.7655 -18551.223 3213.7655 L -18545.995 3213.7655 C -18545.868 3213.7655 -18545.804 3213.6938 -18545.868 3213.6301 L -18552.958 3189.5142 C -18553.339 3188.2201 -18554.761 3187.3171 -18556.409 3187.3087 L -18563.56 3187.3087 z M -18395.99 3187.3087 C -18396.438 3187.3087 -18396.797 3187.5444 -18396.899 3187.8874 L -18397.411 3189.5168 L -18404.731 3213.6259 C -18404.731 3213.6979 -18404.731 3213.7618 -18404.603 3213.7618 L -18403.611 3213.7618 C -18403.485 3213.7618 -18403.419 3213.6897 -18403.419 3213.6259 L -18402.845 3211.7418 C -18402.716 3211.213 -18402.088 3210.8369 -18401.417 3210.8369 L -18388.58 3210.8369 C -18388.132 3210.7649 -18387.602 3210.9162 -18387.288 3211.2302 C -18387.16 3211.3376 -18387.096 3211.4733 -18387.032 3211.609 C -18386.648 3212.8777 -18385.271 3213.7655 -18383.653 3213.7655 L -18378.425 3213.7655 C -18378.298 3213.7655 -18378.234 3213.6938 -18378.298 3213.6301 L -18385.388 3189.5142 C -18385.769 3188.2201 -18387.191 3187.3171 -18388.839 3187.3087 L -18395.99 3187.3087 z M -18562.344 3188.3499 C -18561.833 3188.3499 -18561.341 3188.6501 -18561.212 3189.0755 L -18555.536 3208.434 C -18555.344 3209.0987 -18555.984 3209.7786 -18556.854 3209.7786 L -18568.065 3209.7786 C -18568.915 3209.7786 -18569.582 3209.0923 -18569.376 3208.4262 L -18563.484 3189.0682 C -18563.355 3188.6463 -18562.908 3188.3478 -18562.344 3188.3499 z M -18394.774 3188.3499 C -18394.263 3188.3499 -18393.771 3188.6501 -18393.642 3189.0755 L -18387.966 3208.434 C -18387.774 3209.0987 -18388.414 3209.7786 -18389.284 3209.7786 L -18400.495 3209.7786 C -18401.345 3209.7786 -18402.012 3209.0923 -18401.806 3208.4262 L -18395.914 3189.0682 C -18395.785 3188.6463 -18395.338 3188.3478 -18394.774 3188.3499 z M -18619.013 3188.382 L -18610.842 3188.382 C -18610.663 3188.382 -18610.505 3188.456 -18610.371 3188.6037 C -18610.232 3188.7513 -18610.167 3188.9298 -18610.167 3189.139 L -18610.167 3211.9335 C -18610.167 3212.1425 -18610.227 3212.3218 -18610.371 3212.4699 C -18610.505 3212.6163 -18610.663 3212.6906 -18610.842 3212.6906 L -18619.013 3212.6906 C -18619.192 3212.6906 -18619.351 3212.6164 -18619.485 3212.4699 C -18619.624 3212.3218 -18619.688 3212.1426 -18619.688 3211.9335 L -18619.688 3189.139 C -18619.688 3188.9298 -18619.628 3188.7514 -18619.485 3188.6037 C -18619.351 3188.456 -18619.192 3188.382 -18619.013 3188.382 z M -18673.607 3188.3882 L -18668.495 3188.3882 C -18667.709 3188.3882 -18666.903 3188.6378 -18666.34 3189.0734 C -18665.763 3189.5092 -18665.418 3190.1472 -18665.418 3190.7751 L -18665.418 3197.6336 C -18665.418 3198.2623 -18665.738 3198.9024 -18666.327 3199.3488 C -18666.903 3199.7915 -18667.703 3200.0417 -18668.495 3200.0417 L -18673.607 3200.0417 C -18674.51 3200.0417 -18675.271 3199.4491 -18675.271 3198.7462 L -18675.271 3189.6873 C -18675.271 3188.9803 -18674.51 3188.3913 -18673.607 3188.3913 L -18673.607 3188.3882 z M -18506.038 3188.3882 L -18500.926 3188.3882 C -18500.14 3188.3882 -18499.334 3188.6378 -18498.771 3189.0734 C -18498.194 3189.5092 -18497.849 3190.1472 -18497.849 3190.7751 L -18497.849 3197.6336 C -18497.849 3198.2623 -18498.169 3198.9024 -18498.758 3199.3488 C -18499.334 3199.7915 -18500.134 3200.0417 -18500.926 3200.0417 L -18506.038 3200.0417 C -18506.941 3200.0417 -18507.702 3199.4491 -18507.702 3198.7462 L -18507.702 3189.6873 C -18507.702 3188.9803 -18506.941 3188.3913 -18506.038 3188.3913 L -18506.038 3188.3882 z "
     transform="translate(18851.584,-3187.3066)"
     inkscape:label="Typography"
     inkscape:export-filename="02 - Neuroartan Wordmark.png"
     inkscape:export-xdpi="96"
     inkscape:export-ydpi="96" /></svg>
