<?xml version="1.0" encoding="UTF-8" standalone="no"?>
<!-- Created with Inkscape (http://www.inkscape.org/) -->

<svg
   width="529.16669mm"
   height="343.95834mm"
   viewBox="0 0 529.16668 343.95834"
   version="1.1"
   id="svg1"
   xml:space="preserve"
   sodipodi:docname="03 - Neuroartan Lockup Horizontal.svg"
   inkscape:version="1.4.2 (ebf0e940, 2025-05-08)"
   xmlns:inkscape="http://www.inkscape.org/namespaces/inkscape"
   xmlns:sodipodi="http://sodipodi.sourceforge.net/DTD/sodipodi-0.dtd"
   xmlns:xlink="http://www.w3.org/1999/xlink"
   xmlns="http://www.w3.org/2000/svg"
   xmlns:svg="http://www.w3.org/2000/svg"><sodipodi:namedview
     id="namedview6"
     pagecolor="#505050"
     bordercolor="#eeeeee"
     borderopacity="1"
     inkscape:showpageshadow="0"
     inkscape:pageopacity="0"
     inkscape:pagecheckerboard="0"
     inkscape:deskcolor="#505050"
     inkscape:document-units="mm"
     inkscape:zoom="0.045575505"
     inkscape:cx="1349.4091"
     inkscape:cy="-197.4745"
     inkscape:window-width="1472"
     inkscape:window-height="895"
     inkscape:window-x="0"
     inkscape:window-y="61"
     inkscape:window-maximized="0"
     inkscape:current-layer="svg1" /><defs
     id="defs1"><linearGradient
       id="swatch20"><stop
         style="stop-color:#ffffff;stop-opacity:1;"
         offset="0"
         id="stop20" /></linearGradient><color-profile
       name="Adobe-RGB-1998"
       xlink:href="file:///System/Library/ColorSync/Profiles/AdobeRGB1998.icc"
       id="color-profile1" /><color-profile
       name="Generic-Lab-Profile"
       xlink:href="file:///System/Library/ColorSync/Profiles/Generic%20Lab%20Profile.icc"
       id="color-profile2" /><color-profile
       name="SMPTE-RP-431-2-2007-DCI-P3"
       xlink:href="file:///System/Library/ColorSync/Profiles/DCI(P3)%20RGB.icc"
       id="color-profile3" /></defs><path
     id="path1-4-7-1-1-4-4-5-4-5-4-2-4-0-6-1-6-0-2-7-8-9-2-0"
     style="font-size:121.133px;font-family:Brooch;-inkscape-font-specification:Brooch;letter-spacing:12.8715px;word-spacing:3.2179px;baseline-shift:baseline;display:inline;overflow:visible;mix-blend-mode:normal;vector-effect:none;fill:#917c6f;fill-opacity:1;stroke-width:0.51747;enable-background:accumulate;stop-color:#000000"
     d="M -18770.273 3187.3068 L -18794.723 3187.3073 C -18795.278 3187.3073 -18795.727 3187.7427 -18795.727 3188.2799 L -18795.727 3212.7936 C -18795.727 3213.3306 -18795.277 3213.7656 -18794.723 3213.7656 L -18770.273 3213.7656 C -18769.72 3213.7656 -18769.269 3213.3305 -18769.269 3212.7936 L -18769.269 3211.989 C -18769.269 3211.4518 -18769.719 3211.0164 -18770.273 3211.0164 L -18783.74 3211.0164 C -18784.073 3211.0164 -18784.346 3210.7533 -18784.346 3210.4289 L -18784.346 3205.6168 C -18784.346 3205.2929 -18784.073 3205.0305 -18783.74 3205.0323 L -18772.846 3205.0881 C -18772.292 3205.0881 -18771.841 3204.6568 -18771.841 3204.1207 L -18771.841 3200.1432 C -18771.841 3199.6063 -18772.291 3199.1711 -18772.846 3199.1707 L -18783.74 3199.1707 C -18784.073 3199.1707 -18784.346 3198.9076 -18784.346 3198.5831 L -18784.346 3190.6435 C -18784.346 3190.319 -18784.073 3190.056 -18783.74 3190.056 L -18770.273 3190.056 C -18769.719 3190.056 -18769.269 3189.6204 -18769.269 3189.0834 L -18769.269 3188.2793 C -18769.269 3187.7422 -18769.719 3187.3068 -18770.273 3187.3068 z M -18850.499 3187.3073 C -18851.077 3187.3073 -18851.583 3187.7215 -18851.583 3188.2633 L -18851.583 3213.6199 C -18851.583 3213.6989 -18851.523 3213.7625 -18851.454 3213.7625 L -18850.576 3213.7625 C -18850.516 3213.7625 -18850.447 3213.6908 -18850.447 3213.6199 L -18850.447 3189.8772 C -18850.447 3189.3841 -18849.931 3188.9222 -18849.476 3188.8395 C -18848.963 3188.7605 -18848.347 3189.0257 -18848.14 3189.4901 L -18839.291 3209.1638 C -18838.046 3211.9448 -18835.013 3213.7656 -18831.63 3213.7656 L -18826.208 3213.7656 C -18825.567 3213.7656 -18825.125 3213.3439 -18825.125 3212.8086 L -18825.125 3187.4535 C -18825.125 3187.3745 -18825.185 3187.3109 -18825.252 3187.3109 L -18826.106 3187.3109 C -18826.166 3187.3102 -18826.233 3187.3835 -18826.233 3187.4535 L -18826.233 3211.1952 C -18826.233 3211.6883 -18826.748 3212.1501 -18827.203 3212.2329 C -18827.717 3212.3189 -18828.332 3212.0476 -18828.539 3211.5901 L -18837.405 3191.9143 C -18838.657 3189.1335 -18841.692 3187.314 -18845.074 3187.314 L -18850.499 3187.3073 z M -18737.934 3187.3073 C -18739.004 3187.3074 -18739.871 3188.0714 -18739.871 3189.0137 L -18739.871 3206.5278 L -18739.851 3206.5278 C -18739.851 3208.5219 -18739.047 3210.2267 -18737.44 3211.6422 C -18735.833 3213.0577 -18733.896 3213.7656 -18731.632 3213.7656 L -18731.225 3213.7656 L -18731.145 3213.7656 L -18729.646 3213.7656 L -18723.636 3213.7656 L -18722.137 3213.7656 L -18722.057 3213.7656 L -18721.651 3213.7656 C -18719.387 3213.7656 -18717.45 3213.0577 -18715.843 3211.6422 C -18714.236 3210.2267 -18713.432 3208.5219 -18713.432 3206.5278 L -18713.412 3206.5278 L -18713.412 3189.0137 C -18713.412 3188.0714 -18714.279 3187.3074 -18715.349 3187.3073 L -18717.597 3187.3073 C -18720.016 3187.3069 -18722.013 3189.202 -18722.137 3191.6181 L -18722.137 3210.8707 A 1.8181922 1.8181797 0 0 1 -18723.955 3212.6887 L -18729.326 3212.6887 A 1.8181922 1.8181797 0 0 1 -18731.145 3210.8707 L -18731.145 3191.6181 C -18731.269 3189.202 -18733.266 3187.3069 -18735.685 3187.3073 L -18737.934 3187.3073 z M -18665.047 3187.3073 L -18665.087 3187.3275 L -18676.949 3187.3275 L -18678.056 3187.3275 C -18681.357 3187.3275 -18684.013 3189.3957 -18684.013 3191.9721 L -18684.013 3202.0185 L -18684.013 3211.7466 C -18684.013 3212.8723 -18682.867 3213.7656 -18681.427 3213.7656 L -18676.579 3213.7656 C -18675.829 3213.7656 -18675.247 3213.3152 -18675.247 3212.728 L -18675.247 3201.9994 C -18675.247 3201.478 -18674.28 3200.6091 -18674.038 3201.0563 C -18673.398 3202.2084 -18672.508 3213.7656 -18663.307 3213.7656 L -18658.535 3213.7656 C -18657.959 3213.7656 -18657.525 3213.3798 -18657.633 3212.9249 L -18658.145 3210.6113 C -18660.191 3201.6263 -18676.75 3201.0837 -18663.386 3201.0837 C -18656.596 3200.6695 -18657.608 3201.6977 -18657.608 3198.0069 L -18657.608 3193.1473 C -18657.608 3187.5985 -18663.92 3187.3074 -18665.047 3187.3073 z M -18621.535 3187.3073 C -18623.36 3187.3073 -18624.92 3188.015 -18626.214 3189.4307 C -18627.509 3190.8462 -18628.157 3192.5509 -18628.157 3194.5451 L -18628.157 3206.5278 C -18628.157 3208.5218 -18627.509 3210.2268 -18626.214 3211.6428 C -18624.92 3213.0578 -18623.36 3213.7656 -18621.535 3213.7656 L -18608.32 3213.7656 C -18606.495 3213.7656 -18604.935 3213.0578 -18603.641 3211.6428 C -18602.347 3210.2268 -18601.699 3208.5218 -18601.699 3206.5278 L -18601.699 3194.5451 C -18601.699 3192.551 -18602.347 3190.8462 -18603.641 3189.4307 C -18604.935 3188.0151 -18606.495 3187.3073 -18608.32 3187.3073 L -18621.535 3187.3073 z M -18497.478 3187.3073 L -18497.518 3187.3275 L -18509.38 3187.3275 L -18510.487 3187.3275 C -18513.788 3187.3275 -18516.444 3189.3957 -18516.444 3191.9721 L -18516.444 3202.0185 L -18516.444 3211.7466 C -18516.444 3212.8723 -18515.298 3213.7656 -18513.858 3213.7656 L -18509.01 3213.7656 C -18508.26 3213.7656 -18507.678 3213.3152 -18507.678 3212.728 L -18507.678 3201.9994 C -18507.678 3201.478 -18506.711 3200.6091 -18506.469 3201.0563 C -18505.829 3202.2084 -18504.939 3213.7656 -18495.738 3213.7656 L -18490.966 3213.7656 C -18490.39 3213.7656 -18489.956 3213.3798 -18490.064 3212.9249 L -18490.576 3210.6113 C -18492.622 3201.6263 -18509.181 3201.0837 -18495.817 3201.0837 C -18489.027 3200.6695 -18490.039 3201.6977 -18490.039 3198.0069 L -18490.039 3193.1473 C -18490.039 3187.5985 -18496.351 3187.3074 -18497.478 3187.3073 z M -18446.83 3187.3073 L -18447.888 3187.3078 L -18460.012 3187.3083 C -18460.33 3187.3083 -18460.584 3187.6471 -18460.588 3188.0897 L -18460.588 3188.0995 L -18460.588 3191.044 L -18460.588 3191.0538 C -18460.588 3191.431 -18460.393 3191.437 -18460.074 3191.4228 L -18451.66 3191.4228 C -18450.892 3191.4228 -18450.233 3192.2202 -18450.233 3193.2609 L -18450.233 3211.3647 C -18450.233 3212.7018 -18449.445 3213.7656 -18448.462 3213.7656 L -18447.888 3213.7656 L -18446.83 3213.7656 L -18446.255 3213.7656 C -18445.272 3213.7656 -18444.483 3212.7013 -18444.483 3211.3642 L -18444.483 3193.2609 C -18444.483 3192.2202 -18443.825 3191.4228 -18443.058 3191.4228 L -18434.642 3191.4228 C -18434.323 3191.4368 -18434.13 3191.4326 -18434.13 3191.0533 L -18434.13 3191.0435 L -18434.13 3188.099 L -18434.13 3188.0892 C -18434.13 3187.6466 -18434.387 3187.3078 -18434.705 3187.3078 L -18446.83 3187.3073 z M -18347.791 3187.3073 C -18348.369 3187.3073 -18348.875 3187.7215 -18348.875 3188.2633 L -18348.875 3213.6199 C -18348.875 3213.6989 -18348.815 3213.7625 -18348.746 3213.7625 L -18347.868 3213.7625 C -18347.808 3213.7625 -18347.739 3213.6908 -18347.739 3213.6199 L -18347.739 3189.8772 C -18347.739 3189.3841 -18347.223 3188.9222 -18346.768 3188.8395 C -18346.255 3188.7605 -18345.639 3189.0257 -18345.432 3189.4901 L -18336.583 3209.1638 C -18335.338 3211.9448 -18332.305 3213.7656 -18328.922 3213.7656 L -18323.5 3213.7656 C -18322.858 3213.7656 -18322.416 3213.3439 -18322.416 3212.8086 L -18322.416 3187.4535 C -18322.416 3187.3745 -18322.476 3187.3109 -18322.543 3187.3109 L -18323.397 3187.3109 C -18323.457 3187.3102 -18323.525 3187.3834 -18323.525 3187.4535 L -18323.525 3211.1952 C -18323.525 3211.6883 -18324.04 3212.1501 -18324.495 3212.2329 C -18325.009 3212.3189 -18325.624 3212.0476 -18325.831 3211.5901 L -18334.697 3191.9143 C -18335.949 3189.1335 -18338.984 3187.314 -18342.366 3187.314 L -18347.791 3187.3073 z M -18563.56 3187.3089 C -18564.008 3187.3089 -18564.367 3187.5446 -18564.469 3187.8876 L -18564.981 3189.517 L -18572.301 3213.6261 C -18572.301 3213.6981 -18572.301 3213.762 -18572.173 3213.762 L -18571.181 3213.762 C -18571.055 3213.762 -18570.989 3213.6899 -18570.989 3213.6261 L -18570.415 3211.742 C -18570.286 3211.2132 -18569.658 3210.8371 -18568.987 3210.8371 L -18556.15 3210.8371 C -18555.702 3210.7651 -18555.172 3210.9159 -18554.858 3211.2299 C -18554.73 3211.3373 -18554.666 3211.4735 -18554.602 3211.6092 C -18554.218 3212.8779 -18552.841 3213.7656 -18551.223 3213.7656 L -18545.995 3213.7656 C -18545.868 3213.7656 -18545.804 3213.6934 -18545.868 3213.6297 L -18552.958 3189.5144 C -18553.339 3188.2203 -18554.761 3187.3173 -18556.409 3187.3089 L -18563.56 3187.3089 z M -18395.99 3187.3089 C -18396.438 3187.3089 -18396.797 3187.5446 -18396.899 3187.8876 L -18397.411 3189.517 L -18404.731 3213.6261 C -18404.731 3213.6981 -18404.731 3213.762 -18404.603 3213.762 L -18403.611 3213.762 C -18403.485 3213.762 -18403.419 3213.6899 -18403.419 3213.6261 L -18402.845 3211.742 C -18402.716 3211.2132 -18402.088 3210.8371 -18401.417 3210.8371 L -18388.58 3210.8371 C -18388.132 3210.7651 -18387.602 3210.9159 -18387.288 3211.2299 C -18387.16 3211.3373 -18387.096 3211.4735 -18387.032 3211.6092 C -18386.648 3212.8779 -18385.271 3213.7656 -18383.653 3213.7656 L -18378.425 3213.7656 C -18378.298 3213.7656 -18378.234 3213.6934 -18378.298 3213.6297 L -18385.388 3189.5144 C -18385.769 3188.2203 -18387.191 3187.3173 -18388.839 3187.3089 L -18395.99 3187.3089 z M -18562.344 3188.3501 C -18561.833 3188.3501 -18561.341 3188.6498 -18561.212 3189.0752 L -18555.536 3208.4337 C -18555.344 3209.0984 -18555.984 3209.7783 -18556.854 3209.7783 L -18568.065 3209.7783 C -18568.915 3209.7783 -18569.582 3209.0925 -18569.376 3208.4264 L -18563.484 3189.0684 C -18563.355 3188.6465 -18562.908 3188.348 -18562.344 3188.3501 z M -18394.774 3188.3501 C -18394.263 3188.3501 -18393.771 3188.6498 -18393.642 3189.0752 L -18387.966 3208.4337 C -18387.774 3209.0984 -18388.414 3209.7783 -18389.284 3209.7783 L -18400.495 3209.7783 C -18401.345 3209.7783 -18402.012 3209.0925 -18401.806 3208.4264 L -18395.914 3189.0684 C -18395.785 3188.6465 -18395.338 3188.348 -18394.774 3188.3501 z M -18619.013 3188.3817 L -18610.842 3188.3817 C -18610.663 3188.3817 -18610.505 3188.4556 -18610.371 3188.6033 C -18610.232 3188.7509 -18610.167 3188.93 -18610.167 3189.1392 L -18610.167 3211.9337 C -18610.167 3212.1427 -18610.227 3212.322 -18610.371 3212.4701 C -18610.505 3212.6165 -18610.663 3212.6908 -18610.842 3212.6908 L -18619.013 3212.6908 C -18619.192 3212.6908 -18619.351 3212.6166 -18619.485 3212.4701 C -18619.624 3212.322 -18619.688 3212.1428 -18619.688 3211.9337 L -18619.688 3189.1392 C -18619.688 3188.93 -18619.628 3188.751 -18619.485 3188.6033 C -18619.351 3188.4556 -18619.192 3188.3817 -18619.013 3188.3817 z M -18673.607 3188.3884 L -18668.495 3188.3884 C -18667.709 3188.3884 -18666.903 3188.638 -18666.34 3189.0736 C -18665.763 3189.5094 -18665.418 3190.1474 -18665.418 3190.7753 L -18665.418 3197.6338 C -18665.418 3198.2625 -18665.738 3198.9025 -18666.327 3199.3489 C -18666.903 3199.7916 -18667.703 3200.0419 -18668.495 3200.0419 L -18673.607 3200.0419 C -18674.51 3200.0419 -18675.271 3199.4488 -18675.271 3198.7459 L -18675.271 3189.687 C -18675.271 3188.98 -18674.51 3188.391 -18673.607 3188.391 L -18673.607 3188.3884 z M -18506.038 3188.3884 L -18500.926 3188.3884 C -18500.14 3188.3884 -18499.334 3188.638 -18498.771 3189.0736 C -18498.194 3189.5094 -18497.849 3190.1474 -18497.849 3190.7753 L -18497.849 3197.6338 C -18497.849 3198.2625 -18498.169 3198.9025 -18498.758 3199.3489 C -18499.334 3199.7916 -18500.134 3200.0419 -18500.926 3200.0419 L -18506.038 3200.0419 C -18506.941 3200.0419 -18507.702 3199.4488 -18507.702 3198.7459 L -18507.702 3189.687 C -18507.702 3188.98 -18506.941 3188.391 -18506.038 3188.391 L -18506.038 3188.3884 z "
     transform="translate(18851.584,-2869.8074)"
     inkscape:label="Typography"
     inkscape:export-filename="03 - Neuroartan Lockup Horizontal.png"
     inkscape:export-xdpi="96"
     inkscape:export-ydpi="96" /><path
     id="path112-0-37-6-4-1-3-6-9-9-4-0-8-2-3-5-0-7-0-3"
     style="display:inline;fill:#917c6f;fill-opacity:1;stroke:none;stroke-width:6.61458;stroke-linecap:round;stroke-linejoin:round;stroke-dasharray:none"
     d="M 264.42811,-7.61211e-6 C 258.37411,0.01399239 252.37311,0.44909239 246.34711,1.3007924 c -1.651,0.2326 -3.515,1.6912 -4.251,3.181 -8.415,16.7648996 -26.301,29.6929996 -31.399,47.9027996 -0.543,2.094 -1.138,4.992 -1.585,8.3077 -0.05,0.4395 -0.1,0.9783 -0.136,1.5484 -0.07,1.1347 0.396,1.7633 1.146,1.766 0.341,0 0.738,-0.1415 1.172,-0.4259 8.587,-5.5905 16.355,-10.4696 23.028,-13.8955 10.563,-5.4164 49.952,-5.4164 60.515,0 6.673,3.4259 14.44,8.305 23.027,13.8955 0.433,0.2844 0.83,0.4205 1.17,0.4259 v 0 c 0.751,0 1.217,-0.6313 1.146,-1.766 -0.04,-0.5701 -0.08,-1.1089 -0.134,-1.5484 -0.447,-3.3157 -1.043,-6.2137 -1.584,-8.3077 -5.099,-18.2098 -22.984,-31.1379 -31.4,-47.9027996 -0.738,-1.4898 -2.599,-2.9484 -4.25,-3.181 -6.237,-0.88170001 -12.344,-1.30760001 -18.395,-1.30080001211 z M 209.67911,12.230192 c -0.259,-0.018 -0.63,0.075 -1.101,0.2925 -50.303,23.2889 -80.725,76.0001 -75.756,131.165698 0.15,1.6531 0.9,1.781 1.621,0.2871 11.81,-24.1351 20.732,-38.2906 40.743,-52.376498 1.227,-0.8653 2.848,-2.6014 3.599,-3.9022 l 4.266,-7.3865 c 0.751,-1.302 1.445,-3.5714 1.581,-5.0681 2.198,-24.3664 10.001,-39.1666 25.005,-61.4596 0.641,-0.9429 0.612,-1.5143 0.04,-1.5524 z m 109.816,0 c -0.572,0.038 -0.601,0.6082 0.04,1.5511 15.004,22.2929 22.807,37.0945 25.005,61.4609 0.136,1.4967 0.827,3.7661 1.578,5.0681 l 4.266,7.3852 c 0.751,1.3021 2.372,3.0368 3.601,3.9022 20.01,14.085898 28.932,28.242698 40.743,52.377898 0.722,1.4939 1.47,1.3645 1.62,-0.2885 4.969,-55.165598 -25.455,-107.873998 -75.757,-131.164298 -0.471,-0.2178 -0.842,-0.3102 -1.099,-0.2925 z m -54.906,55.2649 a 64.81997,64.797094 0 0 0 -64.82,64.797198 64.81997,64.797094 0 0 0 64.82,64.7971 64.81997,64.797094 0 0 0 64.82,-64.7971 64.81997,64.797094 0 0 0 -64.82,-64.797198 z m -87.367,51.255398 c -0.331,0.014 -0.713,0.1524 -1.127,0.4272 -0.474,0.3199 -0.92,0.6246 -1.274,0.8926 -2.649,2.0436 -4.863,4.0083 -6.406,5.5253 -13.225,13.5186 -15.483,35.466 -25.8,51.1342 -0.922,1.3823 -1.254,3.7239 -0.63,5.2696 4.708,11.6791 10.734,21.9962 18.238,31.5788 1.027,1.3129 3.223,2.1958 4.88,2.0898 18.733,-1.098 38.877,7.9225 57.201,3.2313 2.086,-0.5769 4.894,-1.5117 7.989,-2.7824 0.408,-0.1728 0.896,-0.4068 1.41,-0.6572 1.017,-0.5074 1.33,-1.2245 0.957,-1.8747 -0.17,-0.2939 -0.491,-0.5673 -0.956,-0.8014 -9.136,-4.6383 -17.247,-8.9239 -23.551,-12.9881 -9.974,-6.4354 -29.668,-40.5353 -30.257,-52.3887 -0.369,-7.4899 -0.03,-16.6547 0.524,-26.8835 0.03,-0.517 -0.06,-0.9292 -0.217,-1.2272 v -0.014 c -0.211,-0.366 -0.551,-0.5537 -0.976,-0.536 z m 174.728,0 c -0.424,-0.018 -0.763,0.1702 -0.974,0.5362 v 0.014 c -0.164,0.2965 -0.245,0.7102 -0.218,1.2272 0.551,10.2287 0.893,19.3935 0.524,26.8835 -0.588,11.8531 -20.282,45.9519 -30.257,52.3887 -6.305,4.064 -14.415,8.3498 -23.552,12.9879 -0.463,0.2341 -0.784,0.5062 -0.954,0.8015 -0.373,0.6503 -0.06,1.366 0.957,1.8747 0.514,0.2504 1.001,0.4845 1.408,0.6572 3.097,1.2707 5.903,2.2055 7.99,2.781 18.325,4.6914 38.468,-4.328 57.199,-3.2314 1.659,0.1075 3.855,-0.7754 4.882,-2.0883 7.504,-9.5826 13.529,-19.8997 18.238,-31.5788 0.623,-1.5457 0.291,-3.8873 -0.631,-5.2696 -10.316,-15.6683 -12.574,-37.6157 -25.8,-51.1357 -1.542,-1.5169 -3.756,-3.4802 -6.405,-5.5252 -0.353,-0.2667 -0.799,-0.5713 -1.273,-0.8912 -0.415,-0.2748 -0.798,-0.4136 -1.128,-0.4273 z m -91.628,110.1163 c -1.503,0 -3.817,0.5347 -5.18,1.1674 -22.208,10.2791 -38.933,10.9254 -65.748,9.0817 -1.655,-0.1224 -1.918,0.5905 -0.561,1.5471 45.327,31.9026 106.204,31.8849 151.508,0 1.357,-0.9566 1.095,-1.6695 -0.562,-1.5471 -26.814,1.8437 -43.538,1.1974 -65.747,-9.0817 -1.363,-0.6327 -3.677,-1.1674 -5.181,-1.1674 z"
     inkscape:label="Symbol" /></svg>
