<?xml version="1.0" encoding="UTF-8" standalone="no"?>
<!-- Created with Inkscape (http://www.inkscape.org/) -->

<svg
   width="3166.5032mm"
   height="411.74808mm"
   viewBox="0 0 3166.5031 411.74809"
   version="1.1"
   id="svg1"
   xml:space="preserve"
   sodipodi:docname="04 - Neuroartan Lockup Vertical.svg"
   inkscape:version="1.4.2 (ebf0e940, 2025-05-08)"
   xmlns:inkscape="http://www.inkscape.org/namespaces/inkscape"
   xmlns:sodipodi="http://sodipodi.sourceforge.net/DTD/sodipodi-0.dtd"
   xmlns:xlink="http://www.w3.org/1999/xlink"
   xmlns="http://www.w3.org/2000/svg"
   xmlns:svg="http://www.w3.org/2000/svg"><sodipodi:namedview
     id="namedview6"
     pagecolor="#505050"
     bordercolor="#eeeeee"
     borderopacity="1"
     inkscape:showpageshadow="0"
     inkscape:pageopacity="0"
     inkscape:pagecheckerboard="0"
     inkscape:deskcolor="#505050"
     inkscape:document-units="mm"
     inkscape:zoom="0.018586909"
     inkscape:cx="2582.4627"
     inkscape:cy="6509.958"
     inkscape:window-width="1472"
     inkscape:window-height="923"
     inkscape:window-x="0"
     inkscape:window-y="33"
     inkscape:window-maximized="0"
     inkscape:current-layer="svg1"><inkscape:page
       x="1.8895508e-07"
       y="0"
       width="3166.5029"
       height="411.74811"
       id="page6"
       margin="0 0 0 0"
       bleed="0" /></sodipodi:namedview><defs
     id="defs1"><linearGradient
       id="swatch20"><stop
         style="stop-color:#ffffff;stop-opacity:1;"
         offset="0"
         id="stop20" /></linearGradient><color-profile
       name="Adobe-RGB-1998"
       xlink:href="file:///System/Library/ColorSync/Profiles/AdobeRGB1998.icc"
       id="color-profile1" /><color-profile
       name="Generic-Lab-Profile"
       xlink:href="file:///System/Library/ColorSync/Profiles/Generic%20Lab%20Profile.icc"
       id="color-profile2" /><color-profile
       name="SMPTE-RP-431-2-2007-DCI-P3"
       xlink:href="file:///System/Library/ColorSync/Profiles/DCI(P3)%20RGB.icc"
       id="color-profile3" /></defs><g
     id="g6"
     transform="translate(-26.649553,-86.063888)"
     inkscape:export-filename="04 - Neuroartan Lockup Vertical.png"
     inkscape:export-xdpi="96"
     inkscape:export-ydpi="96"><path
       id="path1-4-7-1-1-4-4-5-4-5-4-2-4-0-6-1-6-0-2-7-8-9-2-0"
       style="font-size:121.133px;font-family:Brooch;-inkscape-font-specification:Brooch;letter-spacing:12.8715px;word-spacing:3.2179px;baseline-shift:baseline;display:inline;overflow:visible;mix-blend-mode:normal;vector-effect:none;fill:#917c6f;fill-opacity:1;stroke-width:0.51747;enable-background:accumulate;stop-color:#000000"
       d="m 3131.3534,226.52693 c 0,-0.39499 -0.3001,-0.7155 -0.6351,-0.7155 h -4.2699 c -0.3,-0.004 -0.64,0.365 -0.64,0.7155 v 118.70714 c 0,2.46548 -2.575,4.77445 -4.85,5.18845 -2.5699,0.42999 -5.6449,-0.92949 -6.6799,-3.21696 l -44.3295,-98.37539 c -6.2598,-13.90383 -21.4347,-23.00323 -38.3445,-23.00323 l -27.1247,-0.035 c -2.89,0 -5.42,2.07347 -5.42,4.78244 v 126.77906 c 0,0.39499 0.3001,0.71549 0.645,0.71549 h 4.39 c 0.2999,0 0.645,-0.36099 0.645,-0.71549 V 238.64329 c 0,-2.46547 2.5799,-4.77445 4.8549,-5.18794 2.565,-0.395 5.6449,0.92848 6.68,3.25046 l 44.2444,98.36989 c 6.2249,13.90483 21.3897,23.00623 38.3045,23.00623 h 27.1097 c 3.21,0 5.42,-2.10898 5.42,-4.78545 z m -279.2819,131.12 c -0.01,-0.079 -0.045,-0.161 -0.1249,-0.24049 L 2816.497,236.82881 c -1.9051,-6.46892 -9.0099,-10.98287 -17.2499,-11.02787 h -35.7596 c -2.24,0 -4.0349,1.17898 -4.5449,2.89396 l -2.56,8.14941 -36.5996,120.54162 c 0,0.36 0,0.67949 0.64,0.67949 h 4.96 c 0.63,0 0.9599,-0.36048 0.9599,-0.67949 l 2.87,-9.42089 c 0.645,-2.64397 3.785,-4.52394 7.14,-4.52394 h 64.1842 c 2.24,-0.36 4.8899,0.39599 6.46,1.96597 0.6399,0.537 0.9599,1.21549 1.2799,1.89398 1.92,6.34343 8.8049,10.78238 16.8948,10.78238 h 26.1397 c 0.4751,0 0.775,-0.201 0.76,-0.4365 z m -48.2944,-24.97771 c -0.03,2.87696 -2.955,5.47994 -6.7599,5.47994 h -56.0545 c -4.2499,0 -7.5849,-3.43096 -6.5548,-6.76142 l 29.4597,-96.7889 c 0.6449,-2.10948 2.8799,-3.60196 5.6999,-3.59146 2.555,0 5.0149,1.50048 5.6599,3.62746 l 28.3796,96.7914 c 0.1201,0.41549 0.1751,0.83198 0.1701,1.24298 z M 2572.7897,229.70489 c 0,-2.21297 -1.285,-3.90896 -2.8749,-3.90896 l -60.6244,-0.003 -5.2899,0.003 -60.6193,0.003 c -1.5901,0 -2.8601,1.69348 -2.88,3.90645 v 0.052 14.71984 0.0515 c 0,1.88598 0.975,1.91348 2.57,1.84247 h 42.0695 c 3.84,0 7.1348,3.98696 7.1348,9.1904 v 90.51797 c 0,6.68543 3.9401,12.00437 8.855,12.00437 h 2.87 5.2899 2.875 c 4.9149,0 8.8599,-5.31895 8.8599,-12.00437 v -90.51814 c 0,-5.20344 3.29,-9.19039 7.1248,-9.19039 h 42.0796 c 1.595,0.07 2.56,0.0515 2.56,-1.84498 v -0.0515 -14.71983 z m -279.2818,59.48433 c 0.055,-2.14549 -0.26,-5.28495 -0.26,-9.89839 V 254.9926 c 0,-27.74368 -31.5597,-29.19867 -37.1946,-29.19916 l -0.2,0.1005 h -59.3093 -5.5349 c -16.5049,0 -29.7847,10.34137 -29.7847,23.22323 v 50.23143 48.64244 c 0,5.62844 5.7299,10.09239 12.9298,10.09239 h 24.2398 c 3.7499,0 6.6599,-2.24998 6.6599,-5.18595 V 299.2531 c 0,-2.60697 4.8348,-6.95142 6.0449,-4.71545 3.1999,5.76044 7.6499,63.54578 53.6543,63.54578 h 23.8598 c 2.8799,0 5.0499,-1.92699 4.51,-4.20146 l -2.56,-11.56986 c -10.2298,-44.92449 -93.024,-47.63746 -26.2047,-47.63746 25.4647,-1.55348 28.9796,0.95049 29.1497,-5.48543 z m -39.3096,-46.05599 v 34.29211 c 0,3.14347 -1.6,6.34343 -4.545,8.5754 -2.8799,2.21348 -6.8798,3.46497 -10.8398,3.46497 h -25.5598 c -4.5149,0 -8.3199,-2.96347 -8.3199,-6.47793 V 237.6943 c 0,-3.53497 3.805,-6.48043 8.3199,-6.48043 v -0.0151 h 25.5598 c 3.9299,0 7.9599,1.24849 10.7748,3.42646 2.885,2.17897 4.61,5.36894 4.61,8.5084 z m -239.9672,114.5137 c -0.01,-0.079 -0.045,-0.161 -0.125,-0.24049 l -35.4496,-120.57763 c -1.9051,-6.46892 -9.0099,-10.98287 -17.2499,-11.02787 h -35.7596 c -2.2399,0 -4.0349,1.17898 -4.5449,2.89396 l -2.56,8.14941 -36.5996,120.54162 c 0,0.36 0,0.67949 0.64,0.67949 h 4.96 c 0.63,0 0.96,-0.36048 0.96,-0.67949 l 2.8699,-9.42089 c 0.645,-2.64397 3.785,-4.52394 7.14,-4.52394 h 64.1842 c 2.24,-0.36 4.8899,0.39599 6.46,1.96597 0.6399,0.537 0.9599,1.21549 1.2799,1.89398 1.92,6.34343 8.805,10.78238 16.8949,10.78238 h 26.1396 c 0.4751,0 0.775,-0.201 0.7601,-0.4365 z m -48.2945,-24.97771 c -0.03,2.87696 -2.955,5.47994 -6.7599,5.47994 h -56.0543 c -4.25,0 -7.585,-3.43096 -6.555,-6.76142 l 29.4597,-96.7889 c 0.645,-2.10948 2.8799,-3.60196 5.6999,-3.59146 2.555,0 5.0149,1.50048 5.6599,3.62746 l 28.3796,96.7914 c 0.1201,0.41549 0.1751,0.83198 0.1701,1.24298 z m -230.9824,-70.6872 c 0,-9.97037 -3.2399,-18.49179 -9.7098,-25.56921 -6.47,-7.07792 -14.2699,-10.61937 -23.3948,-10.61937 h -66.0743 c -9.1249,0 -16.9247,3.54095 -23.3947,10.61937 -6.4749,7.07742 -9.7149,15.59833 -9.7149,25.56921 v 59.91282 c 0,9.96988 3.24,18.49429 9.7149,25.57421 6.47,7.07492 14.2698,10.61438 23.3947,10.61438 h 66.0743 c 9.1249,0 16.9248,-3.53946 23.3948,-10.61438 6.4699,-7.07992 9.7098,-15.60432 9.7098,-25.57421 z m -42.3395,-27.02918 v 113.97119 c 0,1.045 -0.2999,1.94148 -1.02,2.68198 -0.6699,0.73198 -1.46,1.10298 -2.3549,1.10298 h -40.8546 c -0.895,0 -1.69,-0.37049 -2.36,-1.10298 -0.6949,-0.7405 -1.015,-1.63649 -1.015,-2.68198 V 234.95284 c 0,-1.046 0.3,-1.93849 1.015,-2.67698 0.67,-0.73848 1.465,-1.10848 2.36,-1.10848 h 40.8546 c 0.8949,0 1.685,0.37 2.3549,1.10848 0.695,0.73799 1.02,1.63098 1.02,2.67698 z m -236.9423,54.23638 c 0.055,-2.14549 -0.26,-5.28495 -0.26,-9.89839 V 254.9926 c 0,-27.74368 -31.5596,-29.19867 -37.1946,-29.19916 l -0.2,0.1005 h -59.3093 -5.5349 c -16.5049,0 -29.7847,10.34137 -29.7847,23.22323 v 50.23143 48.64244 c 0,5.62844 5.7299,10.09239 12.9298,10.09239 h 24.2398 c 3.7499,0 6.6599,-2.24998 6.6599,-5.18595 V 299.2531 c 0,-2.60697 4.8349,-6.95142 6.045,-4.71545 3.1999,5.76044 7.6498,63.54578 53.6543,63.54578 h 23.8598 c 2.8799,0 5.0499,-1.92699 4.5099,-4.20146 l -2.56,-11.56986 c -10.2299,-44.92449 -93.024,-47.63746 -26.2047,-47.63746 25.4647,-1.55348 28.9847,0.95049 29.1497,-5.48543 z m -39.3096,-46.05599 v 34.29211 c 0,3.14347 -1.6,6.34343 -4.5449,8.5754 -2.88,2.21348 -6.88,3.46497 -10.8399,3.46497 h -25.5598 c -4.5148,0 -8.3198,-2.96347 -8.3198,-6.47793 V 237.6943 c 0,-3.53497 3.805,-6.48043 8.3198,-6.48043 v -0.0151 h 25.5598 c 3.9299,0 7.9599,1.24849 10.7748,3.42646 2.885,2.17897 4.61,5.36894 4.61,8.5084 z m -239.9672,-8.8084 c 0,-4.71144 -4.3351,-8.5309 -9.6849,-8.5314 h -11.2399 c -12.0948,-0.002 -22.0797,9.4734 -22.6998,21.55376 v 96.2619 a 9.0908575,9.090795 0 0 1 -9.0899,9.08939 h -26.8547 a 9.0908575,9.090795 0 0 1 -9.0948,-9.08939 V 247.3472 c -0.6201,-12.08037 -10.6049,-21.55576 -22.6998,-21.55376 h -11.2449 c -5.35,4.9e-4 -9.6849,3.81995 -9.6849,8.5314 v 87.5725 h 0.1 c 0,9.97039 4.02,18.49179 12.0549,25.56922 8.0349,7.07741 17.7198,10.61687 29.0397,10.61687 h 2.0349 0.4001 7.4948 30.0498 7.4949 0.4 2.0299 c 11.3199,0 21.0048,-3.53946 29.0397,-10.61687 8.0349,-7.07743 12.0549,-15.59883 12.0549,-25.56922 h 0.1 z m -279.28182,-3.66895 c 0,-2.68548 -2.2501,-4.86244 -5.02,-4.86244 l -122.24865,0.003 c -2.77495,0 -5.01995,2.17648 -5.01995,4.86245 V 353.2235 c 0,2.68496 2.25,4.86044 5.01995,4.86044 h 122.24865 c 2.7649,0 5.02,-2.17598 5.02,-4.86044 v -4.01996 c 0,-2.68597 -2.2501,-4.86294 -5.02,-4.86294 h -67.3342 c -1.66505,0 -3.03,-1.31549 -3.03,-2.93747 v -24.06322 c 0,-1.61949 1.36495,-2.93097 3.03,-2.92198 l 54.4693,0.2815 c 2.77,0 5.025,-2.15647 5.025,-4.83694 v -19.88728 c 0,-2.68447 -2.25,-4.86343 -5.025,-4.86544 h -54.4693 c -1.66505,0 -3.03,-1.31549 -3.03,-2.93797 v -39.69455 c 0,-1.62248 1.36495,-2.93797 3.03,-2.93797 h 67.3342 c 2.7699,0 5.02,-2.17998 5.02,-4.86494 z m -279.27691,-4.12895 c 0,-0.395 -0.29999,-0.7155 -0.63499,-0.7155 h -4.26995 c -0.3,-0.004 -0.635,0.3655 -0.635,0.7155 v 118.70714 c 0,2.46547 -2.57497,4.77445 -4.84994,5.18845 -2.56997,0.42999 -5.64493,-0.92949 -6.67993,-3.21696 l -44.32948,-98.37539 c -6.25994,-13.90383 -21.43476,-23.00323 -38.34457,-23.00323 l -27.12469,-0.035 c -2.88997,0 -5.41993,2.07347 -5.41993,4.78244 v 126.77906 c 0,0.39499 0.29999,0.71549 0.64499,0.71549 h 4.38995 c 0.29999,0 0.64499,-0.36099 0.64499,-0.71549 V 238.64329 c 0,-2.46547 2.57997,-4.77445 4.85494,-5.18794 2.56497,-0.395 5.64493,0.92848 6.67993,3.25046 l 44.2445,98.36989 c 6.22493,13.90483 21.38975,23.00623 38.30455,23.00623 h 27.1097 c 3.20496,0 5.41494,-2.10898 5.41494,-4.78545 z"
       inkscape:label="Typography" /><path
       id="path112-0-37-6-4-1-3-6-9-9-4-0-8-2-3-5-0-7-0-3"
       style="display:inline;fill:#917c6f;fill-opacity:1;stroke:none;stroke-width:6.61458;stroke-linecap:round;stroke-linejoin:round;stroke-dasharray:none"
       d="m 220.58338,159.64624 c -6.054,0.01 -12.055,0.449 -18.081,1.301 -1.651,0.233 -3.515,1.691 -4.251,3.181 -8.415,16.765 -26.301,29.693 -31.399,47.903 -0.543,2.094 -1.138,4.992 -1.585,8.308 -0.05,0.439 -0.1,0.978 -0.136,1.548 -0.07,1.135 0.396,1.763 1.146,1.766 0.341,0 0.738,-0.142 1.172,-0.426 8.587,-5.59 16.355,-10.47 23.028,-13.895 10.563,-5.417 49.952,-5.417 60.515,0 6.673,3.425 14.44,8.305 23.027,13.895 0.433,0.284 0.83,0.421 1.17,0.426 v 0 c 0.751,0 1.217,-0.631 1.146,-1.766 -0.04,-0.57 -0.08,-1.109 -0.134,-1.548 -0.447,-3.316 -1.043,-6.214 -1.584,-8.308 -5.099,-18.21 -22.984,-31.138 -31.4,-47.903 -0.738,-1.49 -2.599,-2.948 -4.25,-3.181 -6.237,-0.882 -12.344,-1.308 -18.395,-1.301 z m -54.749,12.23 c -0.259,-0.02 -0.63,0.07 -1.101,0.293 -50.303,23.289 -80.725,76 -75.756,131.16599 0.15,1.653 0.9,1.781 1.621,0.287 11.81,-24.135 20.732,-38.291 40.743,-52.37699 1.227,-0.865 2.848,-2.601 3.599,-3.902 l 4.266,-7.386 c 0.751,-1.302 1.445,-3.572 1.581,-5.069 2.198,-24.366 10.001,-39.166 25.005,-61.459 0.641,-0.943 0.612,-1.514 0.04,-1.553 z m 109.816,0 c -0.572,0.04 -0.601,0.609 0.04,1.552 15.004,22.292 22.807,37.094 25.005,61.46 0.136,1.497 0.827,3.767 1.578,5.069 l 4.266,7.385 c 0.751,1.302 2.372,3.037 3.601,3.902 20.01,14.08599 28.932,28.24299 40.743,52.37799 0.722,1.494 1.47,1.364 1.62,-0.289 4.969,-55.16499 -25.455,-107.87399 -75.757,-131.16399 -0.471,-0.218 -0.842,-0.31 -1.099,-0.292 z m -54.906,55.265 a 64.81997,64.797094 0 0 0 -64.82,64.79799 64.81997,64.797094 0 0 0 64.82,64.797 64.81997,64.797094 0 0 0 64.82,-64.797 64.81997,64.797094 0 0 0 -64.82,-64.79799 z m -87.367,51.25599 c -0.331,0.01 -0.713,0.152 -1.127,0.427 -0.474,0.32 -0.92,0.625 -1.274,0.893 -2.649,2.043 -4.863,4.008 -6.406,5.525 -13.225,13.518 -15.483,35.466 -25.8,51.134 -0.922,1.382 -1.254,3.724 -0.63,5.27 4.708,11.679 10.734,21.996 18.238,31.578 1.027,1.313 3.223,2.196 4.88,2.09 18.733,-1.098 38.877,7.923 57.201,3.232 2.086,-0.577 4.894,-1.512 7.989,-2.783 0.408,-0.173 0.896,-0.407 1.41,-0.657 1.017,-0.507 1.33,-1.225 0.957,-1.875 -0.17,-0.294 -0.491,-0.567 -0.956,-0.801 -9.136,-4.638 -17.247,-8.924 -23.551,-12.988 -9.974,-6.436 -29.668,-40.536 -30.257,-52.389 -0.369,-7.49 -0.03,-16.655 0.524,-26.883 0.03,-0.517 -0.06,-0.93 -0.217,-1.228 v -0.01 c -0.211,-0.366 -0.551,-0.553 -0.976,-0.536 z m 174.728,0 c -0.424,-0.02 -0.763,0.17 -0.974,0.536 v 0.01 c -0.164,0.296 -0.245,0.71 -0.218,1.227 0.551,10.229 0.893,19.394 0.524,26.884 -0.588,11.853 -20.282,45.952 -30.257,52.388 -6.305,4.064 -14.415,8.35 -23.552,12.988 -0.463,0.234 -0.784,0.506 -0.954,0.802 -0.373,0.65 -0.06,1.366 0.957,1.874 0.514,0.251 1.001,0.485 1.408,0.658 3.097,1.27 5.903,2.205 7.99,2.781 18.325,4.691 38.468,-4.328 57.199,-3.232 1.659,0.108 3.855,-0.775 4.882,-2.088 7.504,-9.583 13.529,-19.9 18.238,-31.579 0.623,-1.546 0.291,-3.887 -0.631,-5.269 -10.316,-15.669 -12.574,-37.616 -25.8,-51.136 -1.542,-1.517 -3.756,-3.48 -6.405,-5.525 -0.353,-0.267 -0.799,-0.572 -1.273,-0.892 -0.415,-0.274 -0.798,-0.413 -1.128,-0.427 z m -91.628,110.116 c -1.503,0 -3.817,0.535 -5.18,1.167 -22.208,10.28 -38.933,10.926 -65.748,9.082 -1.655,-0.122 -1.918,0.591 -0.561,1.547 45.327,31.903 106.204,31.885 151.508,0 1.357,-0.956 1.095,-1.669 -0.562,-1.547 -26.814,1.844 -43.538,1.198 -65.747,-9.082 -1.363,-0.632 -3.677,-1.167 -5.181,-1.167 z"
       inkscape:label="Symbol" /></g></svg>
