<?xml version="1.0" encoding="UTF-8" standalone="no"?>
<!-- Created with Inkscape (http://www.inkscape.org/) -->

<svg
   width="67.174026mm"
   height="8.0000162mm"
   viewBox="0 0 67.174024 8.0000172"
   version="1.1"
   id="svg1"
   inkscape:version="1.4.2 (ebf0e940, 2025-05-08)"
   sodipodi:docname="Email Format.svg"
   xmlns:inkscape="http://www.inkscape.org/namespaces/inkscape"
   xmlns:sodipodi="http://sodipodi.sourceforge.net/DTD/sodipodi-0.dtd"
   xmlns="http://www.w3.org/2000/svg"
   xmlns:svg="http://www.w3.org/2000/svg">
  <sodipodi:namedview
     id="namedview1"
     pagecolor="#505050"
     bordercolor="#eeeeee"
     borderopacity="1"
     inkscape:showpageshadow="0"
     inkscape:pageopacity="0"
     inkscape:pagecheckerboard="0"
     inkscape:deskcolor="#505050"
     inkscape:document-units="mm"
     inkscape:zoom="0.88412054"
     inkscape:cx="179.83973"
     inkscape:cy="384.56295"
     inkscape:window-width="1472"
     inkscape:window-height="923"
     inkscape:window-x="0"
     inkscape:window-y="33"
     inkscape:window-maximized="0"
     inkscape:current-layer="svg1">
    <inkscape:page
       x="-7.7076495e-14"
       y="0"
       width="67.174026"
       height="8.0000172"
       id="page2"
       margin="0"
       bleed="0" />
  </sodipodi:namedview>
  <defs
     id="defs1" />
  <rect
     style="display:none;fill:#ffffff;stroke-width:6.61459;stroke-linecap:round;stroke-linejoin:bevel"
     id="rect1-0-1"
     width="138.48618"
     height="180.51604"
     x="-35.949947"
     y="-36.508762"
     inkscape:label="Background"
     sodipodi:insensitive="true" />
  <rect
     style="display:none;fill:#ffffff;stroke-width:6.61458;stroke-linecap:round;stroke-linejoin:bevel"
     id="rect1-0"
     width="127"
     height="165.07335"
     x="-30.399105"
     y="-32.158234"
     inkscape:label="Background 480px" />
  <rect
     style="fill:none;stroke:none;stroke-width:6.61457;stroke-linecap:round;stroke-linejoin:bevel"
     id="rect30"
     width="70.202003"
     height="11"
     x="-1.5001068"
     y="-1.4999894" />
  <g
     id="g25"
     transform="translate(23.263914,-25.668879)"
     inkscape:label="Correspondence Office"
     inkscape:export-filename="Exports/Correspondence Office.svg"
     inkscape:export-xdpi="96"
     inkscape:export-ydpi="96">
    <g
       id="g31"
       transform="translate(0.50000128,-1.0802591)">
      <path
         style="font-weight:bold;font-size:4.93889px;font-family:Manrope;-inkscape-font-specification:'Manrope Bold';letter-spacing:0px;word-spacing:0px;fill:#917c6f;stroke-width:6.61458;stroke-linecap:round;stroke-linejoin:bevel"
         d="m -10.076662,32.045605 q -0.5334,0 -0.913695,-0.232128 -0.380294,-0.234597 -0.585258,-0.651934 -0.202495,-0.417336 -0.202495,-0.968022 0,-0.550686 0.202495,-0.968022 0.204964,-0.417337 0.585258,-0.649464 0.380295,-0.234598 0.913695,-0.234598 0.6148919,0 1.0248198,0.308681 0.4099278,0.306211 0.5753806,0.827264 l -0.6000751,0.165453 q -0.1037167,-0.348192 -0.3531306,-0.543278 -0.249414,-0.197556 -0.6469947,-0.197556 -0.358069,0 -0.597606,0.160514 -0.237066,0.160514 -0.358069,0.451909 -0.118533,0.288925 -0.121003,0.679097 0,0.390172 0.118533,0.681567 0.121003,0.288925 0.360539,0.449439 0.239537,0.160514 0.597606,0.160514 0.3975807,0 0.6469947,-0.197556 0.2494139,-0.197555 0.3531306,-0.543278 l 0.6000751,0.165453 q -0.1654528,0.521053 -0.5753806,0.829734 -0.4099279,0.306211 -1.0248198,0.306211 z m 3.3214066,0 q -0.4000501,0 -0.698853,-0.18027 -0.2988028,-0.180269 -0.4642556,-0.496358 -0.1629834,-0.318559 -0.1629834,-0.730956 0,-0.419806 0.1679223,-0.735895 0.1679222,-0.316088 0.4667251,-0.493889 0.2988028,-0.1778 0.6914446,-0.1778 0.4025195,0 0.7013223,0.18027 0.2988029,0.180269 0.4642557,0.498828 0.1654528,0.316089 0.1654528,0.728486 0,0.414867 -0.1679223,0.733425 -0.1654528,0.316089 -0.4642556,0.496359 -0.2988029,0.1778 -0.6988529,0.1778 z m 0,-0.558095 q 0.3556,0 0.5284612,-0.237067 0.1728611,-0.237066 0.1728611,-0.612422 0,-0.387703 -0.1753306,-0.617361 -0.1753306,-0.232128 -0.5259917,-0.232128 -0.2395362,0 -0.3951112,0.108656 -0.1531056,0.106186 -0.227189,0.298802 -0.074083,0.190148 -0.074083,0.442031 0,0.387703 0.1753306,0.619831 0.1778,0.229658 0.5210526,0.229658 z m 1.8743089,0.484011 v -2.667 h 0.5259917 v 0.649464 l -0.064205,-0.08396 q 0.049389,-0.13335 0.1308806,-0.242006 0.083961,-0.111125 0.200025,-0.182739 0.098778,-0.06668 0.2173112,-0.103717 0.1210028,-0.03951 0.2469445,-0.04692 0.1259417,-0.0099 0.244475,0.0099 v 0.555625 q -0.1185333,-0.03457 -0.2741084,-0.02222 -0.1531056,0.01235 -0.2765778,0.08643 -0.1234723,0.06668 -0.2024945,0.170392 -0.076553,0.103717 -0.1135945,0.237067 -0.037042,0.13088 -0.037042,0.283986 v 1.355725 z m 1.9706177,0 v -2.667 h 0.5259918 v 0.649464 l -0.064206,-0.08396 q 0.049389,-0.13335 0.1308806,-0.242006 0.083961,-0.111125 0.2000251,-0.182739 0.098778,-0.06668 0.2173111,-0.103717 0.1210028,-0.03951 0.2469445,-0.04692 0.1259417,-0.0099 0.2444751,0.0099 v 0.555625 q -0.1185334,-0.03457 -0.2741084,-0.02222 -0.1531056,0.01235 -0.2765778,0.08643 -0.1234723,0.06668 -0.2024945,0.170392 -0.076553,0.103717 -0.1135945,0.237067 -0.037042,0.13088 -0.037042,0.283986 v 1.355725 z m 3.13372593,0.07408 q -0.40498897,0 -0.71120015,-0.175331 -0.30621118,-0.17533 -0.47907233,-0.486481 -0.17039175,-0.31115 -0.17039175,-0.716139 0,-0.437091 0.1679223,-0.758119 0.16792226,-0.323497 0.46672511,-0.501298 0.29880284,-0.1778 0.69144459,-0.1778 0.41486676,0 0.70379183,0.195087 0.29139447,0.192616 0.43215287,0.545747 0.1407584,0.353131 0.1061861,0.832203 H 0.84075838 V 30.586163 Q 0.83828894,30.15154 0.68765279,29.951515 0.53701665,29.75149 0.21351935,29.75149 q -0.36547785,0 -0.54327789,0.227189 -0.17780004,0.22472 -0.17780004,0.659342 0,0.404989 0.17780004,0.627239 0.17780004,0.22225 0.51858344,0.22225 0.21978061,0 0.37782509,-0.09631 0.16051392,-0.09878 0.2469445,-0.283986 l 0.58772791,0.1778 Q 1.2482168,31.645555 0.92718896,31.84558 0.60863055,32.045605 0.22339713,32.045605 Z M -0.6952364,30.803474 v -0.449439 h 1.8347976 v 0.449439 z m 3.7091021,1.242131 q -0.493889,0 -0.8025696,-0.22225 -0.3086807,-0.22225 -0.3753557,-0.62477 l 0.6074835,-0.09384 q 0.046919,0.197556 0.2074334,0.31115 0.1605139,0.113595 0.4049889,0.113595 0.2148418,0 0.3309057,-0.08396 0.1185333,-0.08643 0.1185333,-0.234598 0,-0.09137 -0.04445,-0.145697 -0.041981,-0.0568 -0.1876778,-0.108656 -0.1456973,-0.05186 -0.4469695,-0.13088 -0.3358446,-0.0889 -0.5334002,-0.190147 -0.1975556,-0.103717 -0.2839861,-0.244475 -0.086431,-0.140759 -0.086431,-0.340784 0,-0.249414 0.1308806,-0.434622 0.1308806,-0.185209 0.3654778,-0.283986 0.2345973,-0.101248 0.5531557,-0.101248 0.3111501,0 0.5506862,0.09631 0.2420057,0.09631 0.3901724,0.274108 0.1481667,0.1778 0.1827389,0.417336 l -0.6074835,0.108656 q -0.022225,-0.170392 -0.155575,-0.26917 -0.1308806,-0.09878 -0.3506612,-0.111125 -0.2099028,-0.01235 -0.338314,0.06421 -0.1284111,0.07408 -0.1284111,0.209903 0,0.07655 0.051858,0.13088 0.051858,0.05433 0.2074334,0.108656 0.1580445,0.05433 0.4691946,0.13335 0.3185584,0.08149 0.5087056,0.187678 0.1926167,0.103717 0.2765779,0.249414 0.08643,0.145697 0.08643,0.35313 0,0.40252 -0.2938639,0.632178 -0.2913945,0.229659 -0.8075085,0.229659 z m 2.9262932,0 q -0.3901723,0 -0.6544029,-0.185209 Q 5.0215254,31.675188 4.8881754,31.35663 4.7548253,31.035602 4.7548253,30.638021 q 0,-0.402519 0.1333501,-0.721078 0.13335,-0.318558 0.3901723,-0.501297 0.2592917,-0.185209 0.6395862,-0.185209 0.3778251,0 0.654403,0.185209 0.2790472,0.182739 0.4321528,0.501297 0.1531056,0.316089 0.1531056,0.721078 0,0.40005 -0.1506361,0.718609 -0.1506362,0.318558 -0.4247446,0.503766 -0.2741084,0.185209 -0.6420557,0.185209 z m -1.2865808,1.11125 v -3.852334 h 0.5259918 v 1.871839 h 0.074083 v 1.980495 z m 1.1952114,-1.64465 q 0.2321278,0 0.3827639,-0.116064 0.1506362,-0.116064 0.2222501,-0.31362 0.074083,-0.200025 0.074083,-0.4445 0,-0.242006 -0.074083,-0.439561 -0.074083,-0.200025 -0.2296584,-0.316089 -0.155575,-0.118533 -0.3951112,-0.118533 -0.2271889,0 -0.3704167,0.111125 -0.1432278,0.108655 -0.2123723,0.306211 -0.066675,0.195086 -0.066675,0.456847 0,0.259292 0.066675,0.456847 0.069145,0.197556 0.2148417,0.308681 0.1481667,0.108656 0.3877029,0.108656 z m 3.0300054,0.5334 q -0.4000501,0 -0.6988529,-0.18027 Q 7.8811391,31.685066 7.7156863,31.368977 7.552703,31.050418 7.552703,30.638021 q 0,-0.419806 0.1679222,-0.735895 0.1679223,-0.316088 0.4667251,-0.493889 0.2988029,-0.1778 0.6914446,-0.1778 0.4025196,0 0.7013224,0.18027 0.2988028,0.180269 0.4642557,0.498828 0.165453,0.316089 0.165453,0.728486 0,0.414867 -0.167922,0.733425 -0.1654533,0.316089 -0.4642561,0.496359 -0.2988029,0.1778 -0.698853,0.1778 z m 0,-0.558095 q 0.3556001,0 0.5284612,-0.237067 0.1728612,-0.237066 0.1728612,-0.612422 0,-0.387703 -0.1753306,-0.617361 -0.1753306,-0.232128 -0.5259918,-0.232128 -0.2395361,0 -0.3951112,0.108656 -0.1531056,0.106186 -0.2271889,0.298802 -0.074083,0.190148 -0.074083,0.442031 0,0.387703 0.1753306,0.619831 0.1778001,0.229658 0.5210525,0.229658 z M 12.59778,31.971521 V 30.68741 q 0,-0.125942 -0.01729,-0.279047 -0.01729,-0.153106 -0.08149,-0.293864 -0.06174,-0.143228 -0.187678,-0.234598 -0.123472,-0.09137 -0.335844,-0.09137 -0.113595,0 -0.22472,0.03704 -0.111125,0.03704 -0.202494,0.128411 -0.0889,0.0889 -0.143228,0.246944 -0.05433,0.155575 -0.05433,0.40005 L 10.997575,30.45034 q 0,-0.340783 0.130881,-0.617361 0.13335,-0.276578 0.390172,-0.439561 0.256823,-0.165453 0.632178,-0.165453 0.296334,0 0.48895,0.09878 0.192617,0.09878 0.306211,0.251883 0.113595,0.153106 0.167923,0.325967 0.05433,0.172861 0.06914,0.328436 0.01729,0.153106 0.01729,0.249414 v 1.489075 z m -1.849615,0 v -2.667 h 0.530931 v 0.827264 h 0.07161 v 1.839736 z m 4.122326,0.07408 q -0.367948,0 -0.642056,-0.185209 -0.274108,-0.185208 -0.424745,-0.503766 -0.150636,-0.318559 -0.150636,-0.718609 0,-0.404989 0.150636,-0.721078 0.153106,-0.318558 0.432153,-0.501297 0.279048,-0.185209 0.656873,-0.185209 0.380294,0 0.637116,0.185209 0.259292,0.182739 0.392642,0.501297 0.13335,0.318559 0.13335,0.721078 0,0.397581 -0.13335,0.718609 -0.13335,0.318558 -0.39758,0.503766 -0.264231,0.185209 -0.654403,0.185209 z m 0.09137,-0.5334 q 0.239536,0 0.385234,-0.108656 0.148166,-0.111125 0.214841,-0.308681 0.06915,-0.197555 0.06915,-0.456847 0,-0.261761 -0.06915,-0.456847 -0.06668,-0.197556 -0.209903,-0.306211 -0.143227,-0.111125 -0.370416,-0.111125 -0.239536,0 -0.395111,0.118533 -0.155576,0.116064 -0.229659,0.316089 -0.07408,0.197555 -0.07408,0.439561 0,0.244475 0.07161,0.4445 0.07408,0.197556 0.224719,0.31362 0.150636,0.116064 0.382764,0.116064 z m 0.66922,0.459316 v -1.871839 h -0.07408 v -1.684161 h 0.600076 v 3.556 z m 2.429937,0.07408 q -0.404989,0 -0.7112,-0.175331 -0.306211,-0.17533 -0.479073,-0.486481 -0.170391,-0.31115 -0.170391,-0.716139 0,-0.437091 0.167922,-0.758119 0.167922,-0.323497 0.466725,-0.501298 0.298803,-0.1778 0.691445,-0.1778 0.414866,0 0.703792,0.195087 0.291394,0.192616 0.432152,0.545747 0.140759,0.353131 0.106187,0.832203 h -0.590198 v -0.217311 q -0.0025,-0.434623 -0.153105,-0.634648 -0.150637,-0.200025 -0.474134,-0.200025 -0.365478,0 -0.543278,0.227189 -0.1778,0.22472 -0.1778,0.659342 0,0.404989 0.1778,0.627239 0.1778,0.22225 0.518584,0.22225 0.21978,0 0.377825,-0.09631 0.160514,-0.09878 0.246944,-0.283986 l 0.587728,0.1778 q -0.153105,0.360539 -0.474133,0.560564 -0.318559,0.200025 -0.703792,0.200025 z m -0.918634,-1.242131 v -0.449439 h 1.834798 v 0.449439 z m 4.44994,1.168047 V 30.68741 q 0,-0.125942 -0.01729,-0.279047 -0.01729,-0.153106 -0.08149,-0.293864 -0.06174,-0.143228 -0.187678,-0.234598 -0.123472,-0.09137 -0.335844,-0.09137 -0.113595,0 -0.22472,0.03704 -0.111125,0.03704 -0.202494,0.128411 -0.0889,0.0889 -0.143228,0.246944 -0.05433,0.155575 -0.05433,0.40005 L 19.992119,30.45034 q 0,-0.340783 0.130881,-0.617361 0.13335,-0.276578 0.390172,-0.439561 0.256823,-0.165453 0.632178,-0.165453 0.296334,0 0.48895,0.09878 0.192617,0.09878 0.306212,0.251883 0.113594,0.153106 0.167922,0.325967 0.05433,0.172861 0.06914,0.328436 0.01729,0.153106 0.01729,0.249414 v 1.489075 z m -1.849615,0 v -2.667 h 0.530931 v 0.827264 h 0.07161 v 1.839736 z m 4.211228,0.07408 q -0.412398,0 -0.703792,-0.182739 -0.291395,-0.185209 -0.44697,-0.503767 -0.153105,-0.318558 -0.155575,-0.721078 0.0025,-0.409928 0.160514,-0.726017 0.160514,-0.318558 0.454378,-0.498828 0.293864,-0.182739 0.698853,-0.182739 0.454378,0 0.767997,0.229659 0.316089,0.227189 0.412398,0.6223 l -0.592667,0.160514 q -0.06914,-0.214842 -0.229658,-0.333375 -0.160514,-0.121003 -0.365478,-0.121003 -0.232128,0 -0.382764,0.111125 -0.150636,0.108656 -0.22225,0.301272 -0.07161,0.192617 -0.07161,0.437092 0,0.380295 0.170391,0.614892 0.170392,0.234597 0.506237,0.234597 0.237066,0 0.372886,-0.108655 0.138289,-0.108656 0.207433,-0.31362 l 0.607484,0.13582 q -0.123473,0.407458 -0.432153,0.627239 -0.308681,0.217311 -0.75565,0.217311 z m 2.822581,0 q -0.404989,0 -0.7112,-0.175331 -0.306212,-0.17533 -0.479073,-0.486481 -0.170391,-0.31115 -0.170391,-0.716139 0,-0.437091 0.167922,-0.758119 0.167922,-0.323497 0.466725,-0.501298 0.298803,-0.1778 0.691445,-0.1778 0.414866,0 0.703791,0.195087 0.291395,0.192616 0.432153,0.545747 0.140759,0.353131 0.106186,0.832203 h -0.590197 v -0.217311 q -0.0025,-0.434623 -0.153106,-0.634648 -0.150636,-0.200025 -0.474133,-0.200025 -0.365478,0 -0.543278,0.227189 -0.1778,0.22472 -0.1778,0.659342 0,0.404989 0.1778,0.627239 0.1778,0.22225 0.518584,0.22225 0.21978,0 0.377825,-0.09631 0.160514,-0.09878 0.246944,-0.283986 l 0.587728,0.1778 q -0.153106,0.360539 -0.474133,0.560564 -0.318559,0.200025 -0.703792,0.200025 z m -0.918634,-1.242131 v -0.449439 h 1.834798 v 0.449439 z m 5.171015,1.242131 q -0.5334,0 -0.913694,-0.232128 -0.380295,-0.234597 -0.585259,-0.651934 -0.202494,-0.417336 -0.202494,-0.968022 0,-0.550686 0.202494,-0.968022 0.204964,-0.417337 0.585259,-0.649464 0.380294,-0.234598 0.913694,-0.234598 0.533401,0 0.913695,0.234598 0.382764,0.232127 0.585259,0.649464 0.204963,0.417336 0.204963,0.968022 0,0.550686 -0.204963,0.968022 -0.202495,0.417337 -0.585259,0.651934 -0.380294,0.232128 -0.913695,0.232128 z m 0,-0.560564 q 0.35807,0.0025 0.595137,-0.158045 0.239536,-0.160514 0.358069,-0.451908 0.121003,-0.291395 0.121003,-0.681567 0,-0.390172 -0.121003,-0.676628 -0.118533,-0.288925 -0.358069,-0.449439 -0.237067,-0.160514 -0.595137,-0.165453 -0.358069,-0.0025 -0.595136,0.158045 -0.237067,0.160514 -0.358069,0.451908 -0.118534,0.291395 -0.118534,0.681567 0,0.390172 0.118534,0.679097 0.118533,0.286456 0.3556,0.44697 0.239536,0.160514 0.597605,0.165453 z m 2.429938,0.48648 V 29.26254 q 0,-0.101247 0.0074,-0.22225 0.0074,-0.123472 0.04198,-0.244475 0.03457,-0.121003 0.125942,-0.21978 0.113594,-0.125942 0.244475,-0.172862 0.13335,-0.04939 0.261761,-0.05433 0.128411,-0.0074 0.22472,-0.0074 h 0.333375 v 0.484011 h -0.308681 q -0.170392,0 -0.254353,0.08643 -0.08149,0.08396 -0.08149,0.22225 v 2.837392 z m -0.429683,-2.200275 v -0.466725 h 1.669345 v 0.466725 z m 2.09162,2.200275 V 29.26254 q 0,-0.101247 0.0074,-0.22225 0.0074,-0.123472 0.04198,-0.244475 0.03457,-0.121003 0.125941,-0.21978 0.113595,-0.125942 0.244475,-0.172862 0.13335,-0.04939 0.261762,-0.05433 0.128411,-0.0074 0.224719,-0.0074 h 0.333375 v 0.484011 h -0.30868 q -0.170392,0 -0.254353,0.08643 -0.08149,0.08396 -0.08149,0.22225 v 2.837392 z M 34.69109,29.771234 v -0.466725 h 1.669345 v 0.466725 z m 2.187925,-0.871714 v -0.545748 h 0.595136 v 0.545748 z m 0,3.071989 v -2.667 h 0.595136 v 2.667 z m 2.494142,0.07408 q -0.412398,0 -0.703792,-0.182739 -0.291395,-0.185209 -0.44697,-0.503767 -0.153105,-0.318558 -0.155575,-0.721078 0.0025,-0.409928 0.160514,-0.726017 0.160514,-0.318558 0.454378,-0.498828 0.293864,-0.182739 0.698853,-0.182739 0.454378,0 0.767997,0.229659 0.316089,0.227189 0.412398,0.6223 l -0.592667,0.160514 q -0.06914,-0.214842 -0.229658,-0.333375 -0.160514,-0.121003 -0.365478,-0.121003 -0.232128,0 -0.382764,0.111125 -0.150636,0.108656 -0.22225,0.301272 -0.07161,0.192617 -0.07161,0.437092 0,0.380295 0.170391,0.614892 0.170392,0.234597 0.506237,0.234597 0.237066,0 0.372886,-0.108655 0.138289,-0.108656 0.207433,-0.31362 l 0.607484,0.13582 q -0.123473,0.407458 -0.432153,0.627239 -0.308681,0.217311 -0.75565,0.217311 z m 2.822581,0 q -0.404989,0 -0.7112,-0.175331 -0.306212,-0.17533 -0.479073,-0.486481 -0.170391,-0.31115 -0.170391,-0.716139 0,-0.437091 0.167922,-0.758119 0.167922,-0.323497 0.466725,-0.501298 0.298803,-0.1778 0.691445,-0.1778 0.414866,0 0.703791,0.195087 0.291395,0.192616 0.432153,0.545747 0.140759,0.353131 0.106186,0.832203 h -0.590197 v -0.217311 q -0.0025,-0.434623 -0.153106,-0.634648 -0.150636,-0.200025 -0.474133,-0.200025 -0.365478,0 -0.543278,0.227189 -0.1778,0.22472 -0.1778,0.659342 0,0.404989 0.1778,0.627239 0.1778,0.22225 0.518584,0.22225 0.21978,0 0.377825,-0.09631 0.160514,-0.09878 0.246944,-0.283986 l 0.587728,0.1778 q -0.153106,0.360539 -0.474133,0.560564 -0.318559,0.200025 -0.703792,0.200025 z m -0.918634,-1.242131 v -0.449439 h 1.834798 v 0.449439 z"
         id="text1-6"
         aria-label="Correspondence Office&#10;" />
      <path
         id="path112-0-37-6-4-1-3-6-9-9-4-0-8-2-3-5-5"
         style="display:inline;fill:#917c6f;fill-opacity:1;stroke:none;stroke-width:6.61461;stroke-linecap:round;stroke-linejoin:round;stroke-dasharray:none"
         d="m -19.768659,26.749143 c -0.18305,4.2e-4 -0.364498,0.01358 -0.546701,0.03934 -0.04992,0.007 -0.106281,0.05113 -0.128535,0.09618 -0.254438,0.506906 -0.795243,0.897805 -0.949387,1.4484 -0.01642,0.06331 -0.03441,0.150939 -0.04793,0.251193 -0.0015,0.01329 -0.003,0.02958 -0.0042,0.04682 -0.0022,0.03431 0.01198,0.05332 0.03465,0.0534 0.01031,0 0.02231,-0.0042 0.03543,-0.01287 0.259639,-0.169034 0.494514,-0.316561 0.696279,-0.420146 0.319386,-0.163772 1.510361,-0.163772 1.829746,0 0.201767,0.103585 0.436612,0.251112 0.69625,0.420146 0.01309,0.0086 0.02516,0.01273 0.03544,0.01287 v 0 c 0.02271,0 0.0368,-0.01909 0.03465,-0.0534 -0.0012,-0.01724 -0.0024,-0.03353 -0.0041,-0.04682 -0.01351,-0.100254 -0.03147,-0.187879 -0.04789,-0.251193 -0.154173,-0.550595 -0.694949,-0.941494 -0.949416,-1.4484 -0.02225,-0.04505 -0.07859,-0.08915 -0.128505,-0.09618 -0.188523,-0.02666 -0.373175,-0.03954 -0.556195,-0.03934 z m -1.655403,0.369795 c -0.0078,-6.29e-4 -0.01905,0.0022 -0.03329,0.0089 -1.520973,0.704168 -2.44082,2.297956 -2.290576,3.965955 0.0046,0.04998 0.02722,0.05385 0.04902,0.0087 0.35709,-0.729754 0.626857,-1.157764 1.231915,-1.583668 0.03716,-0.02617 0.08617,-0.07866 0.10888,-0.117988 l 0.128988,-0.223339 c 0.0227,-0.03937 0.04369,-0.107986 0.04777,-0.153241 0.06646,-0.736747 0.302393,-1.18425 0.756057,-1.858305 0.01938,-0.02851 0.0185,-0.04578 0.0012,-0.04694 z m 3.320422,0 c -0.01729,0.001 -0.01817,0.01839 0.0012,0.04689 0.453664,0.674054 0.689597,1.121598 0.756057,1.858346 0.0041,0.04526 0.02501,0.113873 0.04771,0.153241 l 0.128988,0.223301 c 0.02271,0.03937 0.07172,0.09182 0.10888,0.117988 0.605028,0.425904 0.874795,0.853951 1.231915,1.583705 0.02183,0.04517 0.04445,0.04126 0.04898,-0.0087 0.150245,-1.667998 -0.769602,-3.261702 -2.290545,-3.965911 -0.01424,-0.0066 -0.02546,-0.0094 -0.03329,-0.0089 z m -1.660151,1.671002 a 1.9599116,1.9592198 0 0 0 -1.959912,1.959223 1.9599116,1.9592198 0 0 0 1.959912,1.959221 1.9599116,1.9592198 0 0 0 1.959913,-1.959221 1.9599116,1.9592198 0 0 0 -1.959913,-1.959223 z m -2.641649,1.549771 c -0.01001,4.33e-4 -0.02156,0.0046 -0.03407,0.01291 -0.01433,0.0097 -0.02782,0.01887 -0.03852,0.02698 -0.0801,0.06179 -0.147038,0.121193 -0.193693,0.167061 -0.399874,0.40875 -0.468147,1.072359 -0.780095,1.546109 -0.02787,0.04179 -0.03791,0.112595 -0.01905,0.15933 0.142352,0.353132 0.324555,0.665084 0.551448,0.954824 0.03106,0.0397 0.09745,0.06639 0.147553,0.06319 0.566416,-0.0332 1.175494,0.239549 1.729542,0.09771 0.06307,-0.01745 0.147976,-0.04571 0.241558,-0.08413 0.01234,-0.0053 0.02709,-0.0123 0.04263,-0.01987 0.03075,-0.01534 0.04022,-0.03702 0.02894,-0.05669 -0.0051,-0.0089 -0.01485,-0.01715 -0.0289,-0.02423 -0.276238,-0.140243 -0.521484,-0.269827 -0.712094,-0.392708 -0.301576,-0.194583 -0.897048,-1.225638 -0.914857,-1.584037 -0.01115,-0.226467 -9.34e-4,-0.503575 0.01585,-0.812857 9.34e-4,-0.01563 -0.0018,-0.02809 -0.0065,-0.0371 v -4.34e-4 c -0.0064,-0.01107 -0.01666,-0.01674 -0.02951,-0.01619 z m 5.283116,0 c -0.01282,-5.72e-4 -0.02307,0.0051 -0.02945,0.01622 v 4.34e-4 c -0.0049,0.009 -0.0074,0.02147 -0.0066,0.0371 0.01666,0.309277 0.027,0.586387 0.01585,0.812856 -0.01778,0.358396 -0.613252,1.389412 -0.914858,1.584038 -0.190639,0.122879 -0.435855,0.252465 -0.712124,0.392704 -0.014,0.0071 -0.02371,0.01529 -0.02885,0.02423 -0.01128,0.01967 -0.0018,0.0413 0.02893,0.05669 0.01554,0.0076 0.03027,0.01465 0.04257,0.01987 0.09364,0.03842 0.178545,0.06668 0.241588,0.08409 0.554079,0.141848 1.163127,-0.130862 1.729482,-0.09771 0.05016,0.0033 0.116561,-0.02345 0.147614,-0.06315 0.226893,-0.289741 0.409066,-0.601691 0.551449,-0.954823 0.01884,-0.04673 0.0088,-0.117536 -0.01908,-0.15933 -0.311918,-0.47375 -0.380191,-1.137358 -0.780097,-1.546151 -0.04663,-0.04587 -0.113567,-0.105228 -0.193662,-0.167061 -0.01067,-0.0081 -0.02416,-0.01729 -0.03849,-0.02694 -0.01255,-0.0083 -0.02413,-0.01251 -0.03411,-0.01291 z m -2.770485,3.329502 c -0.04545,0 -0.115412,0.01618 -0.156624,0.0353 -0.671486,0.3108 -1.177187,0.330343 -1.987972,0.274595 -0.05004,-0.0037 -0.05799,0.01785 -0.01697,0.04679 1.370518,0.964614 3.211209,0.964078 4.581092,0 0.04103,-0.02893 0.03305,-0.05048 -0.01699,-0.04679 -0.810754,0.05575 -1.316425,0.03621 -1.987941,-0.274595 -0.04121,-0.01913 -0.111179,-0.0353 -0.156654,-0.0353 z"
         inkscape:label="Symbol"
         inkscape:export-filename="01 - Neuroartan Symbol Mark.png"
         inkscape:export-xdpi="96"
         inkscape:export-ydpi="96" />
    </g>
  </g>
</svg>
