<?xml version="1.0" encoding="UTF-8" standalone="no"?>
<!-- Created with Inkscape (http://www.inkscape.org/) -->

<svg
   width="63.985996mm"
   height="8mm"
   viewBox="0 0 63.985994 8.000001"
   version="1.1"
   id="svg1"
   inkscape:version="1.4.2 (ebf0e940, 2025-05-08)"
   sodipodi:docname="Email Format.svg"
   xmlns:inkscape="http://www.inkscape.org/namespaces/inkscape"
   xmlns:sodipodi="http://sodipodi.sourceforge.net/DTD/sodipodi-0.dtd"
   xmlns="http://www.w3.org/2000/svg"
   xmlns:svg="http://www.w3.org/2000/svg">
  <sodipodi:namedview
     id="namedview1"
     pagecolor="#505050"
     bordercolor="#eeeeee"
     borderopacity="1"
     inkscape:showpageshadow="0"
     inkscape:pageopacity="0"
     inkscape:pagecheckerboard="0"
     inkscape:deskcolor="#505050"
     inkscape:document-units="mm"
     inkscape:zoom="0.88412054"
     inkscape:cx="179.83973"
     inkscape:cy="384.56295"
     inkscape:window-width="1472"
     inkscape:window-height="923"
     inkscape:window-x="0"
     inkscape:window-y="33"
     inkscape:window-maximized="0"
     inkscape:current-layer="svg1">
    <inkscape:page
       x="0"
       y="0"
       width="63.985992"
       height="8.000001"
       id="page2"
       margin="0"
       bleed="0" />
  </sodipodi:namedview>
  <defs
     id="defs1" />
  <rect
     style="display:none;fill:#ffffff;stroke-width:6.61459;stroke-linecap:round;stroke-linejoin:bevel"
     id="rect1-0-1"
     width="138.48618"
     height="180.51604"
     x="-39.725216"
     y="-50.847752"
     inkscape:label="Background"
     sodipodi:insensitive="true" />
  <rect
     style="display:none;fill:#ffffff;stroke-width:6.61458;stroke-linecap:round;stroke-linejoin:bevel"
     id="rect1-0"
     width="127"
     height="165.07335"
     x="-34.174377"
     y="-46.497223"
     inkscape:label="Background 480px" />
  <g
     id="g26"
     inkscape:label="Wordmark"
     transform="translate(-9.2374657,-109.25774)"
     inkscape:export-filename="Exports/Center Wordmark.png"
     inkscape:export-xdpi="96"
     inkscape:export-ydpi="96">
    <rect
       style="fill:none;stroke-width:6.6146;stroke-linecap:round;stroke-linejoin:bevel"
       id="rect1-4"
       width="63.985996"
       height="8"
       x="9.2374687"
       y="109.25774" />
    <path
       id="path1-4-7-1-1-4-4-5-4-5-4-2-4-0-6-1-6-0-2-7-8-9-2-0-3"
       style="font-size:121.133px;font-family:Brooch;-inkscape-font-specification:Brooch;letter-spacing:12.8715px;word-spacing:3.2179px;baseline-shift:baseline;display:inline;overflow:visible;mix-blend-mode:normal;vector-effect:none;fill:#917c6f;fill-opacity:1;stroke-width:0.517469;enable-background:accumulate;stop-color:#000000"
       d="m 11.360189,111.7579 c -0.06552,0 -0.122881,0.047 -0.122881,0.10842 v 2.87437 c 0,0.009 0.0068,0.0161 0.01463,0.0161 h 0.09953 c 0.0068,0 0.01463,-0.008 0.01463,-0.0161 v -2.69142 c 0,-0.0559 0.0585,-0.10825 0.110072,-0.11763 0.05816,-0.009 0.127983,0.021 0.151448,0.0737 l 1.003122,2.23028 c 0.141133,0.31525 0.484954,0.5216 0.86845,0.5216 h 0.614637 c 0.07266,0 0.122769,-0.0478 0.122769,-0.10849 v -2.87419 c 0,-0.009 -0.0068,-0.0162 -0.01439,-0.0162 h -0.09681 c -0.0068,-8e-5 -0.01439,0.009 -0.01439,0.0162 v 2.69136 c 0,0.0559 -0.05838,0.10823 -0.109959,0.11761 -0.05827,0.01 -0.127984,-0.021 -0.151449,-0.073 l -1.005049,-2.23045 c -0.141927,-0.31523 -0.485973,-0.52149 -0.869356,-0.52149 z m 9.09441,0 -2.771649,5e-5 c -0.06292,0 -0.113813,0.0493 -0.113813,0.11026 v 2.77881 c 0,0.0609 0.05101,0.1102 0.113813,0.1102 h 2.771649 c 0.06268,0 0.113813,-0.0493 0.113813,-0.1102 v -0.0911 c 0,-0.0609 -0.05101,-0.11031 -0.113813,-0.11031 h -1.526618 c -0.03775,0 -0.06869,-0.0298 -0.06869,-0.0665 v -0.54556 c 0,-0.0367 0.03095,-0.0665 0.06869,-0.0663 l 1.234943,0.006 c 0.06281,0 0.113927,-0.0489 0.113927,-0.10973 v -0.45085 c 0,-0.0609 -0.05101,-0.11025 -0.113927,-0.11029 h -1.234943 c -0.03775,0 -0.06869,-0.0298 -0.06869,-0.0666 v -0.89997 c 0,-0.0367 0.03095,-0.0666 0.06869,-0.0666 h 1.526618 c 0.0628,0 0.113813,-0.0494 0.113813,-0.11032 v -0.0911 c 0,-0.0609 -0.05101,-0.11025 -0.113813,-0.11025 z m 3.665945,0 c -0.121295,0 -0.219578,0.0866 -0.219578,0.19343 v 1.98546 h 0.0023 c 0,0.22606 0.09114,0.41926 0.27331,0.57972 0.18217,0.16046 0.401747,0.24071 0.658394,0.24071 h 0.04614 0.0091 0.169927 0.681293 0.169926 0.0091 0.04602 c 0.256647,0 0.476225,-0.0803 0.658395,-0.24071 0.182169,-0.16046 0.27331,-0.35366 0.27331,-0.57972 h 0.0023 v -1.98546 c 0,-0.10682 -0.09828,-0.19343 -0.219579,-0.19343 H 26.42607 c -0.274218,-5e-5 -0.500598,0.21478 -0.514654,0.48868 v 2.18245 a 0.20611004,0.20610862 0 0 1 -0.206088,0.2061 h -0.608855 a 0.20611004,0.20610862 0 0 1 -0.206202,-0.2061 v -2.18245 c -0.01405,-0.2739 -0.240436,-0.48873 -0.514654,-0.48868 z m 8.262462,0 -0.0045,0.003 h -1.344674 -0.12549 c -0.3742,0 -0.675284,0.23446 -0.675284,0.52651 v 1.13887 1.10278 c 0,0.12761 0.12991,0.22887 0.293148,0.22887 h 0.54957 c 0.08502,0 0.150995,-0.051 0.150995,-0.11757 v -1.21625 c 0,-0.0591 0.109619,-0.15761 0.137052,-0.10691 0.07255,0.1306 0.173441,1.44073 1.216465,1.44073 h 0.540953 c 0.0653,0 0.114494,-0.0437 0.102251,-0.0953 l -0.05804,-0.26233 c -0.231934,-1.01853 -2.10906,-1.08004 -0.594118,-1.08004 0.769713,-0.0469 0.654993,0.0696 0.654993,-0.34879 v -0.55088 c 0,-0.62901 -0.715528,-0.66201 -0.843284,-0.66202 z m 4.932515,0 c -0.206882,0 -0.383724,0.0803 -0.530413,0.2407 -0.146799,0.16047 -0.220256,0.35371 -0.220256,0.57977 v 1.35836 c 0,0.22604 0.07346,0.41932 0.220256,0.57983 0.146689,0.16041 0.323531,0.24066 0.530413,0.24066 h 1.49805 c 0.206881,0 0.383724,-0.0803 0.53041,-0.24066 0.146689,-0.16051 0.220145,-0.35379 0.220145,-0.57983 v -1.35836 c 0,-0.22605 -0.07346,-0.4193 -0.220145,-0.57977 -0.146686,-0.16047 -0.323529,-0.2407 -0.53041,-0.2407 z m 14.063086,0 -0.0045,0.003 h -1.344693 -0.125489 c -0.374201,0 -0.675286,0.23446 -0.675286,0.52651 v 1.13887 1.10278 c 0,0.12761 0.129912,0.22887 0.29315,0.22887 h 0.549569 c 0.08502,0 0.150995,-0.051 0.150995,-0.11757 v -1.21625 c 0,-0.0591 0.109618,-0.15761 0.137051,-0.10691 0.07255,0.1306 0.173441,1.44073 1.216466,1.44073 h 0.540953 c 0.0653,0 0.114492,-0.0437 0.10225,-0.0953 l -0.05804,-0.26233 c -0.231934,-1.01888 -2.10906,-1.08039 -0.594119,-1.08039 0.769713,-0.0469 0.654993,0.0696 0.654993,-0.34879 v -0.55088 c 0,-0.62901 -0.715529,-0.66201 -0.843284,-0.66202 z m 5.741451,0 -0.119934,5e-5 -1.374376,7e-5 c -0.03605,0 -0.06485,0.0384 -0.0653,0.0886 v 8.7e-4 0.33373 8.7e-4 c 0,0.0427 0.02211,0.0434 0.05827,0.0418 h 0.953812 c 0.08706,0 0.161764,0.0904 0.161764,0.20838 v 2.05224 c 0,0.15158 0.08933,0.27217 0.20076,0.27217 h 0.06507 0.119934 0.06518 c 0.111434,0 0.200872,-0.12066 0.200872,-0.27224 v -2.05217 c 0,-0.11798 0.07459,-0.20838 0.16154,-0.20838 h 0.954036 c 0.03616,0.002 0.05804,8.7e-4 0.05804,-0.0418 v -8.7e-4 -0.33373 -8.6e-4 c 0,-0.0501 -0.02914,-0.0886 -0.06518,-0.0886 z m 11.227048,0 c -0.06552,0 -0.122883,0.047 -0.122883,0.10842 v 2.87437 c 0,0.009 0.0068,0.0161 0.01463,0.0161 h 0.09953 c 0.0068,0 0.01463,-0.008 0.01463,-0.0161 v -2.69142 c 0,-0.0559 0.0585,-0.10825 0.110073,-0.11763 0.05816,-0.009 0.127982,0.021 0.151448,0.0737 l 1.003121,2.23028 c 0.141133,0.31525 0.484955,0.5216 0.868449,0.5216 h 0.614639 c 0.07278,0 0.122882,-0.0478 0.122882,-0.10849 v -2.87419 c 0,-0.009 -0.0068,-0.0162 -0.01439,-0.0162 h -0.09681 c -0.0068,-8e-5 -0.01451,0.009 -0.01451,0.0162 v 2.69136 c 0,0.0559 -0.05838,0.10823 -0.109959,0.11761 -0.05827,0.01 -0.127983,-0.021 -0.151449,-0.073 l -1.005072,-2.23045 c -0.141926,-0.31523 -0.485975,-0.52149 -0.869357,-0.52149 z m -24.459547,0 c -0.05078,0 -0.09148,0.0268 -0.103043,0.0656 l -0.05804,0.18471 -0.829794,2.733 c 0,0.008 0,0.0154 0.0145,0.0154 h 0.112453 c 0.01429,0 0.02177,-0.008 0.02177,-0.0154 l 0.06507,-0.21358 c 0.01463,-0.0599 0.08581,-0.10258 0.161878,-0.10258 h 1.455202 c 0.05078,-0.008 0.110865,0.009 0.146459,0.0446 0.0145,0.0122 0.02177,0.0275 0.02902,0.0429 0.04353,0.14382 0.199627,0.24447 0.383043,0.24447 h 0.592646 c 0.0144,0 0.02165,-0.008 0.0144,-0.0154 l -0.80372,-2.73381 c -0.04319,-0.14669 -0.204387,-0.24905 -0.391205,-0.25001 z m 18.995715,0 c -0.05078,0 -0.09148,0.0268 -0.103044,0.0656 l -0.05804,0.18471 -0.829794,2.733 c 0,0.008 0,0.0154 0.01451,0.0154 h 0.112453 c 0.01429,0 0.02176,-0.008 0.02176,-0.0154 l 0.06507,-0.21358 c 0.01464,-0.0599 0.08582,-0.10258 0.161878,-0.10258 h 1.455201 c 0.05078,-0.008 0.110866,0.009 0.146461,0.0446 0.01451,0.0122 0.02176,0.0275 0.02902,0.0429 0.04353,0.14382 0.199627,0.24447 0.383043,0.24447 h 0.592645 c 0.01439,0 0.02166,-0.008 0.01439,-0.0154 l -0.803721,-2.73378 c -0.04319,-0.14669 -0.204388,-0.24905 -0.391206,-0.25001 z m -18.857869,0.11802 c 0.05793,0 0.1137,0.0341 0.128324,0.0823 l 0.64343,2.19449 c 0.02177,0.0753 -0.05079,0.15241 -0.149409,0.15241 h -1.270876 c -0.09636,0 -0.171967,-0.0778 -0.148617,-0.1533 l 0.667919,-2.19442 c 0.01463,-0.0479 0.06529,-0.0817 0.129229,-0.0814 z m 18.995715,0 c 0.05792,0 0.113699,0.0341 0.128322,0.0823 l 0.643432,2.19449 c 0.02176,0.0753 -0.05078,0.15241 -0.149408,0.15241 h -1.27088 c -0.09635,0 -0.171966,-0.0778 -0.148614,-0.1533 l 0.667916,-2.19442 c 0.01464,-0.0479 0.0653,-0.0817 0.129232,-0.0814 z m -25.419706,0.003 h 0.926264 c 0.02029,0 0.0382,0.009 0.05339,0.0251 0.01575,0.0168 0.02313,0.037 0.02313,0.0607 v 2.58412 c 0,0.0237 -0.0068,0.044 -0.02313,0.0608 -0.01519,0.0166 -0.0331,0.025 -0.05339,0.025 h -0.926264 c -0.02029,0 -0.03832,-0.009 -0.05351,-0.025 -0.01575,-0.0168 -0.02301,-0.0371 -0.02301,-0.0608 v -2.58398 c 0,-0.0237 0.0068,-0.044 0.02301,-0.0607 0.01519,-0.0168 0.03322,-0.0251 0.05351,-0.0251 z m -6.188769,8.7e-4 h 0.579496 c 0.0891,0 0.180469,0.0283 0.24429,0.0777 0.06541,0.0494 0.104518,0.12173 0.104518,0.19291 v 0.77748 c 0,0.0712 -0.03627,0.14382 -0.103044,0.19443 -0.0653,0.0502 -0.155983,0.0785 -0.245764,0.0785 h -0.579496 c -0.102364,0 -0.188631,-0.0671 -0.188631,-0.14686 v -1.02691 c 0,-0.0802 0.08627,-0.14691 0.188631,-0.14691 z m 18.9956,0 h 0.579497 c 0.0891,0 0.18047,0.0283 0.24429,0.0777 0.06541,0.0494 0.104517,0.12173 0.104517,0.19291 v 0.77748 c 0,0.0712 -0.03628,0.14382 -0.103043,0.19443 -0.0653,0.0502 -0.155982,0.0785 -0.245764,0.0785 h -0.579497 c -0.102364,0 -0.18863,-0.0671 -0.18863,-0.14686 v -1.02691 c 0,-0.0802 0.08627,-0.14691 0.18863,-0.14691 z"
       inkscape:label="Typography"
       inkscape:export-filename="02 - Neuroartan Wordmark.png"
       inkscape:export-xdpi="96"
       inkscape:export-ydpi="96" />
  </g>
</svg>
