<?xml version="1.0" encoding="UTF-8" standalone="no"?>
<!-- Created with Inkscape (http://www.inkscape.org/) -->

<svg
   width="70.202011mm"
   height="11.000001mm"
   viewBox="0 0 70.202009 11.000002"
   version="1.1"
   id="svg1"
   inkscape:version="1.4.2 (ebf0e940, 2025-05-08)"
   sodipodi:docname="Email Format.svg"
   xmlns:inkscape="http://www.inkscape.org/namespaces/inkscape"
   xmlns:sodipodi="http://sodipodi.sourceforge.net/DTD/sodipodi-0.dtd"
   xmlns="http://www.w3.org/2000/svg"
   xmlns:svg="http://www.w3.org/2000/svg">
  <sodipodi:namedview
     id="namedview1"
     pagecolor="#505050"
     bordercolor="#eeeeee"
     borderopacity="1"
     inkscape:showpageshadow="0"
     inkscape:pageopacity="0"
     inkscape:pagecheckerboard="0"
     inkscape:deskcolor="#505050"
     inkscape:document-units="mm"
     inkscape:zoom="0.88412054"
     inkscape:cx="179.83973"
     inkscape:cy="384.56295"
     inkscape:window-width="1472"
     inkscape:window-height="923"
     inkscape:window-x="0"
     inkscape:window-y="33"
     inkscape:window-maximized="0"
     inkscape:current-layer="svg1">
    <inkscape:page
       x="4.0819651e-16"
       y="0"
       width="70.202003"
       height="11.000002"
       id="page2"
       margin="0"
       bleed="0" />
  </sodipodi:namedview>
  <defs
     id="defs1" />
  <rect
     style="display:none;fill:#ffffff;stroke-width:6.61459;stroke-linecap:round;stroke-linejoin:bevel"
     id="rect1-0-1"
     width="138.48618"
     height="180.51604"
     x="-34.449841"
     y="-35.008774"
     inkscape:label="Background"
     sodipodi:insensitive="true" />
  <rect
     style="display:none;fill:#ffffff;stroke-width:6.61458;stroke-linecap:round;stroke-linejoin:bevel"
     id="rect1-0"
     width="127"
     height="165.07335"
     x="-28.899"
     y="-30.658245"
     inkscape:label="Background 480px" />
  <g
     id="g25"
     transform="translate(24.76402,-24.168889)"
     inkscape:label="Correspondence Office"
     inkscape:export-filename="Exports/Correspondence Office.png"
     inkscape:export-xdpi="96"
     inkscape:export-ydpi="96">
    <rect
       style="fill:none;stroke:none;stroke-width:6.61457;stroke-linecap:round;stroke-linejoin:bevel"
       id="rect30"
       width="70.202003"
       height="11"
       x="-24.764021"
       y="24.16889" />
    <g
       id="g31"
       transform="translate(0.50000128,-1.0802591)">
      <text
         xml:space="preserve"
         style="font-size:4.23333px;font-family:Brooch;-inkscape-font-specification:Brooch;text-align:start;letter-spacing:0px;word-spacing:0px;writing-mode:lr-tb;direction:ltr;text-anchor:start;fill:#917c6f;stroke-width:6.61458;stroke-linecap:round;stroke-linejoin:bevel"
         x="-11.926276"
         y="31.971521"
         id="text1-6"><tspan
           sodipodi:role="line"
           id="tspan1-7"
           style="font-style:normal;font-variant:normal;font-weight:bold;font-stretch:normal;font-size:4.93889px;font-family:Manrope;-inkscape-font-specification:'Manrope Bold';letter-spacing:0px;fill:#917c6f;stroke-width:6.61458"
           x="-11.926276"
           y="31.971521">Correspondence Office</tspan><tspan
           sodipodi:role="line"
           style="font-style:normal;font-variant:normal;font-weight:normal;font-stretch:normal;font-size:4.23333px;font-family:Manrope;-inkscape-font-specification:Manrope;letter-spacing:0px;fill:#917c6f;stroke-width:6.61458"
           x="-11.926276"
           y="37.54414"
           id="tspan12-8" /></text>
      <path
         id="path112-0-37-6-4-1-3-6-9-9-4-0-8-2-3-5-5"
         style="display:inline;fill:#917c6f;fill-opacity:1;stroke:none;stroke-width:6.61461;stroke-linecap:round;stroke-linejoin:round;stroke-dasharray:none"
         d="m -19.768659,26.749143 c -0.18305,4.2e-4 -0.364498,0.01358 -0.546701,0.03934 -0.04992,0.007 -0.106281,0.05113 -0.128535,0.09618 -0.254438,0.506906 -0.795243,0.897805 -0.949387,1.4484 -0.01642,0.06331 -0.03441,0.150939 -0.04793,0.251193 -0.0015,0.01329 -0.003,0.02958 -0.0042,0.04682 -0.0022,0.03431 0.01198,0.05332 0.03465,0.0534 0.01031,0 0.02231,-0.0042 0.03543,-0.01287 0.259639,-0.169034 0.494514,-0.316561 0.696279,-0.420146 0.319386,-0.163772 1.510361,-0.163772 1.829746,0 0.201767,0.103585 0.436612,0.251112 0.69625,0.420146 0.01309,0.0086 0.02516,0.01273 0.03544,0.01287 v 0 c 0.02271,0 0.0368,-0.01909 0.03465,-0.0534 -0.0012,-0.01724 -0.0024,-0.03353 -0.0041,-0.04682 -0.01351,-0.100254 -0.03147,-0.187879 -0.04789,-0.251193 -0.154173,-0.550595 -0.694949,-0.941494 -0.949416,-1.4484 -0.02225,-0.04505 -0.07859,-0.08915 -0.128505,-0.09618 -0.188523,-0.02666 -0.373175,-0.03954 -0.556195,-0.03934 z m -1.655403,0.369795 c -0.0078,-6.29e-4 -0.01905,0.0022 -0.03329,0.0089 -1.520973,0.704168 -2.44082,2.297956 -2.290576,3.965955 0.0046,0.04998 0.02722,0.05385 0.04902,0.0087 0.35709,-0.729754 0.626857,-1.157764 1.231915,-1.583668 0.03716,-0.02617 0.08617,-0.07866 0.10888,-0.117988 l 0.128988,-0.223339 c 0.0227,-0.03937 0.04369,-0.107986 0.04777,-0.153241 0.06646,-0.736747 0.302393,-1.18425 0.756057,-1.858305 0.01938,-0.02851 0.0185,-0.04578 0.0012,-0.04694 z m 3.320422,0 c -0.01729,0.001 -0.01817,0.01839 0.0012,0.04689 0.453664,0.674054 0.689597,1.121598 0.756057,1.858346 0.0041,0.04526 0.02501,0.113873 0.04771,0.153241 l 0.128988,0.223301 c 0.02271,0.03937 0.07172,0.09182 0.10888,0.117988 0.605028,0.425904 0.874795,0.853951 1.231915,1.583705 0.02183,0.04517 0.04445,0.04126 0.04898,-0.0087 0.150245,-1.667998 -0.769602,-3.261702 -2.290545,-3.965911 -0.01424,-0.0066 -0.02546,-0.0094 -0.03329,-0.0089 z m -1.660151,1.671002 a 1.9599116,1.9592198 0 0 0 -1.959912,1.959223 1.9599116,1.9592198 0 0 0 1.959912,1.959221 1.9599116,1.9592198 0 0 0 1.959913,-1.959221 1.9599116,1.9592198 0 0 0 -1.959913,-1.959223 z m -2.641649,1.549771 c -0.01001,4.33e-4 -0.02156,0.0046 -0.03407,0.01291 -0.01433,0.0097 -0.02782,0.01887 -0.03852,0.02698 -0.0801,0.06179 -0.147038,0.121193 -0.193693,0.167061 -0.399874,0.40875 -0.468147,1.072359 -0.780095,1.546109 -0.02787,0.04179 -0.03791,0.112595 -0.01905,0.15933 0.142352,0.353132 0.324555,0.665084 0.551448,0.954824 0.03106,0.0397 0.09745,0.06639 0.147553,0.06319 0.566416,-0.0332 1.175494,0.239549 1.729542,0.09771 0.06307,-0.01745 0.147976,-0.04571 0.241558,-0.08413 0.01234,-0.0053 0.02709,-0.0123 0.04263,-0.01987 0.03075,-0.01534 0.04022,-0.03702 0.02894,-0.05669 -0.0051,-0.0089 -0.01485,-0.01715 -0.0289,-0.02423 -0.276238,-0.140243 -0.521484,-0.269827 -0.712094,-0.392708 -0.301576,-0.194583 -0.897048,-1.225638 -0.914857,-1.584037 -0.01115,-0.226467 -9.34e-4,-0.503575 0.01585,-0.812857 9.34e-4,-0.01563 -0.0018,-0.02809 -0.0065,-0.0371 v -4.34e-4 c -0.0064,-0.01107 -0.01666,-0.01674 -0.02951,-0.01619 z m 5.283116,0 c -0.01282,-5.72e-4 -0.02307,0.0051 -0.02945,0.01622 v 4.34e-4 c -0.0049,0.009 -0.0074,0.02147 -0.0066,0.0371 0.01666,0.309277 0.027,0.586387 0.01585,0.812856 -0.01778,0.358396 -0.613252,1.389412 -0.914858,1.584038 -0.190639,0.122879 -0.435855,0.252465 -0.712124,0.392704 -0.014,0.0071 -0.02371,0.01529 -0.02885,0.02423 -0.01128,0.01967 -0.0018,0.0413 0.02893,0.05669 0.01554,0.0076 0.03027,0.01465 0.04257,0.01987 0.09364,0.03842 0.178545,0.06668 0.241588,0.08409 0.554079,0.141848 1.163127,-0.130862 1.729482,-0.09771 0.05016,0.0033 0.116561,-0.02345 0.147614,-0.06315 0.226893,-0.289741 0.409066,-0.601691 0.551449,-0.954823 0.01884,-0.04673 0.0088,-0.117536 -0.01908,-0.15933 -0.311918,-0.47375 -0.380191,-1.137358 -0.780097,-1.546151 -0.04663,-0.04587 -0.113567,-0.105228 -0.193662,-0.167061 -0.01067,-0.0081 -0.02416,-0.01729 -0.03849,-0.02694 -0.01255,-0.0083 -0.02413,-0.01251 -0.03411,-0.01291 z m -2.770485,3.329502 c -0.04545,0 -0.115412,0.01618 -0.156624,0.0353 -0.671486,0.3108 -1.177187,0.330343 -1.987972,0.274595 -0.05004,-0.0037 -0.05799,0.01785 -0.01697,0.04679 1.370518,0.964614 3.211209,0.964078 4.581092,0 0.04103,-0.02893 0.03305,-0.05048 -0.01699,-0.04679 -0.810754,0.05575 -1.316425,0.03621 -1.987941,-0.274595 -0.04121,-0.01913 -0.111179,-0.0353 -0.156654,-0.0353 z"
         inkscape:label="Symbol"
         inkscape:export-filename="01 - Neuroartan Symbol Mark.png"
         inkscape:export-xdpi="96"
         inkscape:export-ydpi="96" />
    </g>
  </g>
</svg>
