<?xml version="1.0" encoding="UTF-8" standalone="no"?>
<svg
   role="img"
   viewBox="0 0 24 24"
   version="1.1"
   id="svg1"
   sodipodi:docname="spotify.svg"
   inkscape:version="1.4.2 (ebf0e940, 2025-05-08)"
   xmlns:inkscape="http://www.inkscape.org/namespaces/inkscape"
   xmlns:sodipodi="http://sodipodi.sourceforge.net/DTD/sodipodi-0.dtd"
   xmlns="http://www.w3.org/2000/svg"
   xmlns:svg="http://www.w3.org/2000/svg"
   xmlns:rdf="http://www.w3.org/1999/02/22-rdf-syntax-ns#"
   xmlns:cc="http://creativecommons.org/ns#"
   xmlns:dc="http://purl.org/dc/elements/1.1/">
  <sodipodi:namedview
     id="namedview1"
     pagecolor="#505050"
     bordercolor="#eeeeee"
     borderopacity="1"
     inkscape:showpageshadow="0"
     inkscape:pageopacity="0"
     inkscape:pagecheckerboard="0"
     inkscape:deskcolor="#505050"
     inkscape:zoom="7.9033942"
     inkscape:cx="22.648497"
     inkscape:cy="16.069045"
     inkscape:window-width="1472"
     inkscape:window-height="895"
     inkscape:window-x="0"
     inkscape:window-y="61"
     inkscape:window-maximized="0"
     inkscape:current-layer="svg1" />
  <defs
     id="defs1" />
  <title
     id="title1">Apple</title>
  <path
     fill="currentColor"
     d="M 12,0 C 5.4,0 0,5.4 0,12 0,18.6 5.4,24 12,24 18.6,24 24,18.6 24,12 24,5.4 18.66,0 12,0 Z m 5.521,17.34 c -0.24,0.359 -0.66,0.48 -1.021,0.24 C 13.68,15.84 10.14,15.479 5.939,16.439 5.521,16.561 5.16,16.26 5.04,15.9 4.92,15.479 5.22,15.12 5.58,15 c 4.56,-1.021 8.52,-0.6 11.64,1.32 0.42,0.18 0.479,0.659 0.301,1.02 z m 1.44,-3.3 c -0.301,0.42 -0.841,0.6 -1.262,0.3 C 14.46,12.36 9.54,11.76 5.76,12.96 5.281,13.08 4.74,12.84 4.62,12.36 4.5,11.88 4.74,11.339 5.22,11.219 9.6,9.9 15,10.561 18.72,12.84 c 0.361,0.181 0.54,0.78 0.241,1.2 z m 0.12,-3.36 C 15.24,8.4 8.82,8.16 5.16,9.301 4.56,9.48 3.96,9.12 3.78,8.58 3.6,7.979 3.96,7.38 4.5,7.199 8.76,5.939 15.78,6.179 20.221,8.82 c 0.539,0.3 0.719,1.02 0.419,1.56 -0.299,0.421 -1.02,0.599 -1.559,0.3 z"
     id="path1-7"
     style="fill:#000000;stroke:none" />
  <metadata
     id="metadata1">
    <rdf:RDF>
      <cc:Work
         rdf:about="">
        <dc:title>Apple</dc:title>
      </cc:Work>
    </rdf:RDF>
  </metadata>
</svg>
